<?xml version="1.0" encoding="utf-8"?>
<!-- Generator: Adobe Illustrator 26.5.0, SVG Export Plug-In . SVG Version: 6.00 Build 0)  -->
<svg version="1.1"
	 id="svg839" xmlns:dc="http://purl.org/dc/elements/1.1/" xmlns:sodipodi="http://sodipodi.sourceforge.net/DTD/sodipodi-0.dtd" xmlns:svg="http://www.w3.org/2000/svg" xmlns:cc="http://creativecommons.org/ns#" xmlns:rdf="http://www.w3.org/1999/02/22-rdf-syntax-ns#" xmlns:inkscape="http://www.inkscape.org/namespaces/inkscape" inkscape:export-filename="/home/henrique/Documents/GitHub/godot-demo-projects/2d/role_playing_game/icon.png" inkscape:export-ydpi="96" sodipodi:docname="icon.svg"
	 xmlns="http://www.w3.org/2000/svg" xmlns:xlink="http://www.w3.org/1999/xlink" x="0px" y="0px" viewBox="0 0 64 64"
	 style="enable-background:new 0 0 64 64;" xml:space="preserve">
<style type="text/css">
	.st0{fill:url(#rect1519_00000127037590716546045040000003559586298009002928_);}
	.st1{opacity:0.22;fill:#FFFFFF;enable-background:new    ;}
	.st2{fill:#F9F9F9;stroke:#B7BEC8;stroke-width:0.981;stroke-linecap:round;stroke-linejoin:round;stroke-miterlimit:15.1181;}
	.st3{fill:#939DAC;}
	.st4{fill:none;stroke:#8787DE;stroke-width:2;stroke-linecap:round;stroke-linejoin:round;stroke-miterlimit:15.1181;}
	.st5{fill:none;stroke:#58397C;stroke-width:7;stroke-linecap:round;stroke-linejoin:round;}
	.st6{fill:#CE7301;}
	.st7{fill:none;stroke:#CE7301;stroke-width:5;stroke-linecap:round;stroke-linejoin:round;}
	.st8{fill:#DCAA29;}
	.st9{fill:url(#SVGID_00000088115106259288126950000010682873828547394980_);}
	.st10{fill:url(#SVGID_00000083809601499967780290000013188078332515024799_);}
	.st11{fill:url(#SVGID_00000001626414360148811800000000831476101776341951_);}
	.st12{fill:url(#SVGID_00000020385093743796046220000002512186782513573815_);}
	.st13{fill:url(#SVGID_00000025442600942596575410000005043475486063122071_);}
	.st14{fill:url(#SVGID_00000104708006231348365850000013395906384311930811_);}
	.st15{fill:url(#SVGID_00000083056403125026616470000008955760138950526092_);}
	.st16{fill:url(#SVGID_00000021801927007170351210000006083878581993264319_);}
	.st17{fill:url(#SVGID_00000013883215550253555500000014441203220693210042_);}
	.st18{fill:#FFF1B2;stroke:#4D3616;stroke-width:0.75;}
	.st19{fill:#4D3616;}
</style>
<sodipodi:namedview  bordercolor="#666666" borderopacity="1.0" id="base" inkscape:current-layer="layer1" inkscape:cx="24.889913" inkscape:cy="29.585249" inkscape:document-units="mm" inkscape:pageopacity="0.0" inkscape:pageshadow="2" inkscape:snap-page="true" inkscape:window-height="1026" inkscape:window-maximized="1" inkscape:window-width="1920" inkscape:window-x="0" inkscape:window-y="26" inkscape:zoom="3.959798" pagecolor="#ffffff" showgrid="false" units="px">
	</sodipodi:namedview>
<g id="layer1" transform="translate(0,-280.06665)" inkscape:groupmode="layer" inkscape:label="Layer 1">
	
		<linearGradient id="rect1519_00000110443751562076516430000008012425149931914119_" gradientUnits="userSpaceOnUse" x1="-857.8403" y1="2116.9482" x2="-853.7695" y2="2125.6619" gradientTransform="matrix(3.7795 0 0 -3.7795 3260.3857 8342.7666)">
		<stop  offset="0" style="stop-color:#5F5FD3"/>
		<stop  offset="1" style="stop-color:#8D5FD3"/>
	</linearGradient>
	<path id="rect1519" style="fill:url(#rect1519_00000110443751562076516430000008012425149931914119_);" d="M0.6,280.1h62.7
		c0.3,0,0.6,0.3,0.6,0.6v62.7c0,0.3-0.3,0.6-0.6,0.6H0.6c-0.3,0-0.6-0.3-0.6-0.6v-62.7C0,280.3,0.3,280.1,0.6,280.1z"/>
	<path id="rect1542" inkscape:connector-curvature="0" class="st1" d="M37.4,280.1L0.8,343.5c0,0.3,0.3,0.6,0.6,0.6h5.9l36.9-64
		H37.4z M49.4,280.1l-37,64h4.1l36.9-64H49.4z M60.9,280.1l-36.9,64h2.3l37-64H60.9z"/>
	<g id="g1497" transform="matrix(1.0119908,0,0,1.0119908,3.2611903,-0.01978024)">
		<g>
			<defs>
				<path id="SVGID_1_" d="M34,307.3c0-1.9-1.5-3.5-3.5-3.5h-6.9c-1.9,0-3.5,1.5-3.5,3.5v27.6c0,1.9,1.5,3.5,3.5,3.5h6.9
					c1.9,0,3.5-1.5,3.5-3.5V307.3z"/>
			</defs>
			<clipPath id="SVGID_00000011022268070534194330000011599450607648089501_">
				<use xlink:href="#SVGID_1_"  style="overflow:visible;"/>
			</clipPath>
		</g>
	</g>
	<path id="rect1499" inkscape:connector-curvature="0" class="st2" d="M13.5,285.5c-1.5,0-2.7,1.2-2.7,2.7v9.4
		c0,1.5,1.2,2.7,2.7,2.7H39v5l4.3-5h12.5c1.5,0,2.7-1.2,2.7-2.7v-9.4c0-1.5-1.2-2.7-2.7-2.7H13.5z"/>
	<path id="rect1507" class="st3" d="M14,288.3h17.6c0.3,0,0.6,0.3,0.6,0.6v0c0,0.3-0.3,0.6-0.6,0.6H14c-0.3,0-0.6-0.3-0.6-0.6v0
		C13.4,288.6,13.7,288.3,14,288.3z"/>
	<path id="rect1509" class="st3" d="M14,291.3h40.3c0.3,0,0.6,0.3,0.6,0.6v0c0,0.3-0.3,0.6-0.6,0.6H14c-0.3,0-0.6-0.3-0.6-0.6v0
		C13.4,291.5,13.7,291.3,14,291.3z"/>
	<path id="rect1511" class="st3" d="M34.2,288.3h9.4c0.3,0,0.5,0.2,0.5,0.5v0.2c0,0.3-0.2,0.5-0.5,0.5h-9.4c-0.3,0-0.5-0.2-0.5-0.5
		v-0.2C33.7,288.5,33.9,288.3,34.2,288.3z"/>
	<path id="rect1513" class="st3" d="M34.2,288.3h9.4c0.3,0,0.5,0.2,0.5,0.5v0.2c0,0.3-0.2,0.5-0.5,0.5h-9.4c-0.3,0-0.5-0.2-0.5-0.5
		v-0.2C33.7,288.5,33.9,288.3,34.2,288.3z"/>
	<path id="rect1515" class="st3" d="M13.9,294h9.4c0.3,0,0.5,0.2,0.5,0.5v0.2c0,0.3-0.2,0.5-0.5,0.5h-9.4c-0.3,0-0.5-0.2-0.5-0.5
		v-0.2C13.4,294.3,13.6,294,13.9,294z"/>
	<path id="rect1517" class="st3" d="M27.2,294h17.6c0.3,0,0.6,0.3,0.6,0.6v0c0,0.3-0.3,0.6-0.6,0.6H27.2c-0.3,0-0.6-0.3-0.6-0.6v0
		C26.6,294.3,26.9,294,27.2,294z"/>
	
		<path id="path1550" inkscape:flatsided="false" inkscape:randomized="0" inkscape:rounded="0.12" inkscape:transform-center-x="-1.426933e-06" inkscape:transform-center-y="0.067388288" sodipodi:arg1="0.78539816" sodipodi:arg2="1.4137167" sodipodi:cx="14.032366" sodipodi:cy="292.36978" sodipodi:r1="0.73499119" sodipodi:r2="0.40645012" sodipodi:sides="5" sodipodi:type="star" class="st1" d="
		M53,329.3c-0.2,0-0.7-1.4-0.9-1.5c-0.2-0.1-1.7-0.2-1.7-0.4c-0.1-0.2,1.1-1.1,1.2-1.3c0.1-0.2-0.3-1.6-0.2-1.8
		c0.2-0.1,1.4,0.7,1.6,0.7c0.2,0,1.5-0.8,1.6-0.7c0.2,0.1-0.2,1.6-0.2,1.8c0.1,0.2,1.2,1.1,1.2,1.3c-0.1,0.2-1.6,0.3-1.7,0.4
		C53.8,327.9,53.3,329.3,53,329.3L53,329.3z"/>
	
		<path id="path1552" inkscape:flatsided="false" inkscape:randomized="0" inkscape:rounded="0.12" inkscape:transform-center-x="1.1465329e-06" inkscape:transform-center-y="0.048086405" sodipodi:arg1="0.78539816" sodipodi:arg2="1.4137167" sodipodi:cx="14.032366" sodipodi:cy="292.36978" sodipodi:r1="0.73499119" sodipodi:r2="0.40645012" sodipodi:sides="5" sodipodi:type="star" class="st1" d="
		M7.3,307.8c-0.2,0-0.5-1-0.6-1.1c-0.1-0.1-1.2-0.1-1.2-0.3c0-0.1,0.8-0.8,0.8-1c0-0.1-0.2-1.2-0.1-1.3c0.1-0.1,1,0.5,1.2,0.5
		c0.2,0,1-0.6,1.2-0.5c0.1,0.1-0.2,1.1-0.1,1.3c0,0.1,0.9,0.8,0.8,1c0,0.1-1.1,0.2-1.2,0.3C7.9,306.8,7.5,307.8,7.3,307.8L7.3,307.8
		z"/>
	
		<path id="path1554" inkscape:flatsided="false" inkscape:randomized="0" inkscape:rounded="0.12" inkscape:transform-center-x="1.1465329e-06" inkscape:transform-center-y="0.048086405" sodipodi:arg1="0.78539816" sodipodi:arg2="1.4137167" sodipodi:cx="14.032366" sodipodi:cy="292.36978" sodipodi:r1="0.73499119" sodipodi:r2="0.40645012" sodipodi:sides="5" sodipodi:type="star" class="st1" d="
		M9.7,313.6c-0.2,0-0.5-1-0.6-1.1c-0.1-0.1-1.2-0.1-1.2-0.3c0-0.1,0.8-0.8,0.8-1c0-0.1-0.2-1.2-0.1-1.3c0.1-0.1,1,0.5,1.2,0.5
		c0.2,0,1-0.6,1.2-0.5c0.1,0.1-0.2,1.1-0.1,1.3c0,0.1,0.9,0.8,0.8,1c0,0.1-1.1,0.2-1.2,0.3C10.2,312.6,9.8,313.6,9.7,313.6
		L9.7,313.6z"/>
	
		<path id="path1556" inkscape:flatsided="false" inkscape:randomized="0" inkscape:rounded="0.12" inkscape:transform-center-x="0.024398526" inkscape:transform-center-y="0.0045220952" sodipodi:arg1="0.78539816" sodipodi:arg2="1.4137167" sodipodi:cx="14.032366" sodipodi:cy="292.36978" sodipodi:r1="0.73499119" sodipodi:r2="0.40645012" sodipodi:sides="5" sodipodi:type="star" class="st1" d="
		M47.7,335.8c-0.1,0-0.1-0.7-0.2-0.7c-0.1-0.1-0.7-0.3-0.7-0.4s0.6-0.3,0.6-0.4c0-0.1,0-0.7,0.1-0.8c0.1,0,0.5,0.5,0.6,0.5
		c0.1,0,0.7-0.2,0.8-0.1c0.1,0.1-0.3,0.6-0.3,0.7c0,0.1,0.4,0.6,0.3,0.7s-0.7-0.1-0.8,0C48.2,335.3,47.8,335.8,47.7,335.8
		L47.7,335.8z"/>
	
		<path id="path1558" inkscape:flatsided="false" inkscape:randomized="0" inkscape:rounded="0.12" inkscape:transform-center-x="0.024398526" inkscape:transform-center-y="0.0045220952" sodipodi:arg1="0.78539816" sodipodi:arg2="1.4137167" sodipodi:cx="14.032366" sodipodi:cy="292.36978" sodipodi:r1="0.73499119" sodipodi:r2="0.40645012" sodipodi:sides="5" sodipodi:type="star" class="st1" d="
		M11.8,307.8c-0.1,0-0.1-0.7-0.2-0.7c-0.1-0.1-0.7-0.3-0.7-0.4c0-0.1,0.6-0.3,0.6-0.4c0-0.1,0-0.7,0.1-0.8c0.1,0,0.5,0.5,0.6,0.5
		c0.1,0,0.7-0.2,0.8-0.1c0.1,0.1-0.3,0.6-0.3,0.7c0,0.1,0.4,0.6,0.3,0.7c0,0.1-0.7-0.1-0.8,0C12.2,307.3,11.9,307.8,11.8,307.8
		L11.8,307.8z"/>
	<path id="rect1567" class="st4" d="M0.6,280.1h62.7c0.3,0,0.6,0.3,0.6,0.6v62.7c0,0.3-0.3,0.6-0.6,0.6H0.6c-0.3,0-0.6-0.3-0.6-0.6
		v-62.7C0,280.3,0.3,280.1,0.6,280.1z"/>
</g>
<g>
	<g>
		<g>
			<path class="st5" d="M42,33.7c-7.1-3.2-7.6-3.9-11-8.1c-3.2,4.3-3.4,4.5-10.6,8.1c-8.5,4.2-7.7,12.8-7.2,15
				c2.4,9.1,17.8,8.7,17.8,8.7s15.4,0.3,17.8-8.7C49.4,46.5,50.6,37.7,42,33.7z"/>
			<path class="st5" d="M42,34.7c-7.1-3.2-7.6-3.9-11-8.1c-3.2,4.3-3.4,4.5-10.6,8.1c-8.5,4.2-7.7,12.8-7.2,15
				c2.4,9.1,17.8,8.7,17.8,8.7s15.4,0.3,17.8-8.7C49.4,47.5,50.6,38.7,42,34.7z"/>
			<path class="st5" d="M42,33.7c-7.1-3.2-7.6-3.9-11-8.1c-3.2,4.3-3.4,4.5-10.6,8.1c-8.5,4.2-7.7,12.8-7.2,15
				c2.4,9.1,17.8,8.7,17.8,8.7s15.4,0.3,17.8-8.7C49.4,46.5,50.6,37.7,42,33.7z"/>
			<path class="st5" d="M42,33.7c-7.1-3.2-7.6-3.9-11-8.1c-3.2,4.3-3.4,4.5-10.6,8.1c-8.5,4.2-7.7,12.8-7.2,15
				c2.4,9.1,17.8,8.7,17.8,8.7s15.4,0.3,17.8-8.7C49.4,46.5,50.6,37.7,42,33.7z"/>
			<path class="st5" d="M42,33.7c-7.1-3.2-7.6-3.9-11-8.1c-3.2,4.3-3.4,4.5-10.6,8.1c-8.5,4.2-7.7,12.8-7.2,15
				c2.4,9.1,17.8,8.7,17.8,8.7s15.4,0.3,17.8-8.7C49.4,46.5,50.6,37.7,42,33.7z"/>
			<path class="st5" d="M42,33.7c-7.1-3.2-7.6-3.9-11-8.1c-3.2,4.3-3.4,4.5-10.6,8.1c-8.5,4.2-7.7,12.8-7.2,15
				c2.4,9.1,17.8,8.7,17.8,8.7s15.4,0.3,17.8-8.7C49.4,46.5,50.6,37.7,42,33.7z"/>
			<path class="st5" d="M42,33.7c-7.1-3.2-7.6-3.9-11-8.1c-3.2,4.3-3.4,4.5-10.6,8.1c-8.5,4.2-7.7,12.8-7.2,15
				c2.4,9.1,17.8,8.7,17.8,8.7s15.4,0.3,17.8-8.7C49.4,46.5,50.6,37.7,42,33.7z"/>
			<path class="st5" d="M42,33.7c-7.1-3.2-7.6-3.9-11-8.1c-3.2,4.3-3.4,4.5-10.6,8.1c-8.5,4.2-7.7,12.8-7.2,15
				c2.4,9.1,17.8,8.7,17.8,8.7s15.4,0.3,17.8-8.7C49.4,46.5,50.6,37.7,42,33.7z"/>
			<path class="st5" d="M42,33.7c-7.1-3.2-7.6-3.9-11-8.1c-3.2,4.3-3.4,4.5-10.6,8.1c-8.5,4.2-7.7,12.8-7.2,15
				c2.4,9.1,17.8,8.7,17.8,8.7s15.4,0.3,17.8-8.7C49.4,46.5,50.6,37.7,42,33.7z"/>
			<path class="st5" d="M42,33.7c-7.1-3.2-7.6-3.9-11-8.1c-3.2,4.3-3.4,4.5-10.6,8.1c-8.5,4.2-7.7,12.8-7.2,15
				c2.4,9.1,17.8,8.7,17.8,8.7s15.4,0.3,17.8-8.7C49.4,46.5,50.6,37.7,42,33.7z"/>
			<path class="st5" d="M42,33.7c-7.1-3.2-7.6-3.9-11-8.1c-3.2,4.3-3.4,4.5-10.6,8.1c-8.5,4.2-7.7,12.8-7.2,15
				c2.4,9.1,17.8,8.7,17.8,8.7s15.4,0.3,17.8-8.7C49.4,46.5,50.6,37.7,42,33.7z"/>
			<path class="st5" d="M42,33.7c-7.1-3.2-7.6-3.9-11-8.1c-3.2,4.3-3.4,4.5-10.6,8.1c-8.5,4.2-7.7,12.8-7.2,15
				c2.4,9.1,17.8,8.7,17.8,8.7s15.4,0.3,17.8-8.7C49.4,46.5,50.6,37.7,42,33.7z"/>
			<path class="st5" d="M42,33.7c-7.1-3.2-7.6-3.9-11-8.1c-3.2,4.3-3.4,4.5-10.6,8.1c-8.5,4.2-7.7,12.8-7.2,15
				c2.4,9.1,17.8,8.7,17.8,8.7s15.4,0.3,17.8-8.7C49.4,46.5,50.6,37.7,42,33.7z"/>
		</g>
		<circle class="st5" cx="21" cy="43.2" r="5.6"/>
		<circle class="st5" cx="21" cy="43.2" r="2.1"/>
		<circle class="st5" cx="40.5" cy="43.2" r="5.6"/>
		<circle class="st5" cx="40.5" cy="43.2" r="2.1"/>
		<path class="st5" d="M31.3,47.9h-0.4c-0.9,0-1.7-0.8-1.7-1.7v-1.4c0-0.9,0.8-1.7,1.7-1.7h0.4c0.9,0,1.7,0.8,1.7,1.7v1.4
			C33,47.2,32.2,47.9,31.3,47.9z"/>
	</g>
	<g>
		<g>
			<path class="st6" d="M42,32.7c-7.1-3.2-7.6-3.9-11-8.1c-3.2,4.3-3.4,4.5-10.6,8.1c-8.5,4.2-7.7,12.8-7.2,15
				c2.4,9.1,17.8,8.7,17.8,8.7s15.4,0.3,17.8-8.7C49.4,45.5,50.6,36.7,42,32.7z"/>
			<path class="st7" d="M42,33.7c-7.1-3.2-7.6-3.9-11-8.1c-3.2,4.3-3.4,4.5-10.6,8.1c-8.5,4.2-7.7,12.8-7.2,15
				c2.4,9.1,17.8,8.7,17.8,8.7s15.4,0.3,17.8-8.7C49.4,46.5,50.6,37.7,42,33.7z"/>
			<path class="st8" d="M42,32.7c-7.1-3.2-7.6-3.9-11-8.1c-3.2,4.3-3.4,4.5-10.6,8.1c-8.5,4.2-7.7,12.8-7.2,15
				c2.4,9.1,17.8,8.7,17.8,8.7s15.4,0.3,17.8-8.7C49.4,45.5,50.6,36.7,42,32.7z"/>
			
				<radialGradient id="SVGID_00000168837827881411845660000011386717676911614398_" cx="31.8169" cy="40.2826" r="13.662" gradientTransform="matrix(1.035340e-13 1 -0.9375 9.706829e-14 69.5839 8.4657)" gradientUnits="userSpaceOnUse">
				<stop  offset="0.3696" style="stop-color:#FFE923;stop-opacity:0"/>
				<stop  offset="0.8478" style="stop-color:#FFEA2E"/>
			</radialGradient>
			<path style="fill:url(#SVGID_00000168837827881411845660000011386717676911614398_);" d="M42,32.7c-7.1-3.2-7.6-3.9-11-8.1
				c-3.2,4.3-3.4,4.5-10.6,8.1c-8.5,4.2-7.7,12.8-7.2,15c2.4,9.1,17.8,8.7,17.8,8.7s15.4,0.3,17.8-8.7C49.4,45.5,50.6,36.7,42,32.7z
				"/>
			
				<radialGradient id="SVGID_00000183224704916760917750000015374024847904439226_" cx="31.4103" cy="43.3324" r="16.3003" gradientTransform="matrix(1.035340e-13 1 -1.1728 1.214285e-13 82.2321 11.9221)" gradientUnits="userSpaceOnUse">
				<stop  offset="0.3846" style="stop-color:#FFE923;stop-opacity:0"/>
				<stop  offset="0.79" style="stop-color:#D7A112"/>
			</radialGradient>
			<path style="fill:url(#SVGID_00000183224704916760917750000015374024847904439226_);" d="M42,32.7c-7.1-3.2-7.6-3.9-11-8.1
				c-3.2,4.3-3.4,4.5-10.6,8.1c-8.5,4.2-7.7,12.8-7.2,15c2.4,9.1,17.8,8.7,17.8,8.7s15.4,0.3,17.8-8.7C49.4,45.5,50.6,36.7,42,32.7z
				"/>
			
				<radialGradient id="SVGID_00000098218590174063023620000014770730643367960215_" cx="31.207" cy="29.1003" r="26.7784" gradientUnits="userSpaceOnUse">
				<stop  offset="0.6681" style="stop-color:#FFE923;stop-opacity:0"/>
				<stop  offset="0.8478" style="stop-color:#FFEA2E"/>
			</radialGradient>
			<path style="fill:url(#SVGID_00000098218590174063023620000014770730643367960215_);" d="M42,32.7c-7.1-3.2-7.6-3.9-11-8.1
				c-3.2,4.3-3.4,4.5-10.6,8.1c-8.5,4.2-7.7,12.8-7.2,15c2.4,9.1,17.8,8.7,17.8,8.7s15.4,0.3,17.8-8.7C49.4,45.5,50.6,36.7,42,32.7z
				"/>
			
				<radialGradient id="SVGID_00000097483054946594480640000011868359620840563605_" cx="20.8379" cy="43.8745" r="26.7784" gradientUnits="userSpaceOnUse">
				<stop  offset="0" style="stop-color:#FFEA2E"/>
				<stop  offset="0.1649" style="stop-color:#FFEA2C;stop-opacity:0.2993"/>
				<stop  offset="0.2243" style="stop-color:#FFE925;stop-opacity:4.712987e-02"/>
				<stop  offset="0.2354" style="stop-color:#FFE923;stop-opacity:0"/>
			</radialGradient>
			<path style="fill:url(#SVGID_00000097483054946594480640000011868359620840563605_);" d="M42,32.7c-7.1-3.2-7.6-3.9-11-8.1
				c-3.2,4.3-3.4,4.5-10.6,8.1c-8.5,4.2-7.7,12.8-7.2,15c2.4,9.1,17.8,8.7,17.8,8.7s15.4,0.3,17.8-8.7C49.4,45.5,50.6,36.7,42,32.7z
				"/>
			
				<radialGradient id="SVGID_00000095337409467175969010000015745675588812432811_" cx="31.0431" cy="45.1622" r="15.1319" gradientTransform="matrix(1.035340e-13 1 -0.7792 8.066955e-14 66.2317 14.1191)" gradientUnits="userSpaceOnUse">
				<stop  offset="8.749924e-02" style="stop-color:#FFEA2E"/>
				<stop  offset="0.1666" style="stop-color:#FFEA2B;stop-opacity:0.3771"/>
				<stop  offset="0.214" style="stop-color:#FFE923;stop-opacity:3.502786e-03"/>
				<stop  offset="0.2144" style="stop-color:#FFE923;stop-opacity:0"/>
			</radialGradient>
			<path style="fill:url(#SVGID_00000095337409467175969010000015745675588812432811_);" d="M42,32.7c-7.1-3.2-7.6-3.9-11-8.1
				c-3.2,4.3-3.4,4.5-10.6,8.1c-8.5,4.2-7.7,12.8-7.2,15c2.4,9.1,17.8,8.7,17.8,8.7s15.4,0.3,17.8-8.7C49.4,45.5,50.6,36.7,42,32.7z
				"/>
			
				<radialGradient id="SVGID_00000063593972011523881420000017274961428779412866_" cx="31.1787" cy="42.248" r="17.9008" gradientTransform="matrix(1.035340e-13 1 -1.2111 1.253932e-13 82.3465 11.0694)" gradientUnits="userSpaceOnUse">
				<stop  offset="0" style="stop-color:#F9F9F9;stop-opacity:0.8"/>
				<stop  offset="0.5906" style="stop-color:#F9F9F9;stop-opacity:0"/>
			</radialGradient>
			<path style="fill:url(#SVGID_00000063593972011523881420000017274961428779412866_);" d="M42,32.7c-7.1-3.2-7.6-3.9-11-8.1
				c-3.2,4.3-3.4,4.5-10.6,8.1c-8.5,4.2-7.7,12.8-7.2,15c2.4,9.1,17.8,8.7,17.8,8.7s15.4,0.3,17.8-8.7C49.4,45.5,50.6,36.7,42,32.7z
				"/>
			
				<radialGradient id="SVGID_00000008870040603491307720000009713574399444555658_" cx="29.4844" cy="32.4211" r="10.9299" gradientTransform="matrix(-0.7381 0.6746 -0.4199 -0.4595 64.8634 27.4267)" gradientUnits="userSpaceOnUse">
				<stop  offset="0.2517" style="stop-color:#F9F9F9;stop-opacity:0.8"/>
				<stop  offset="0.2798" style="stop-color:#F9F9F9;stop-opacity:0.7125"/>
				<stop  offset="0.5092" style="stop-color:#F9F9F9;stop-opacity:0"/>
			</radialGradient>
			<path style="fill:url(#SVGID_00000008870040603491307720000009713574399444555658_);" d="M42,32.7c-7.1-3.2-7.6-3.9-11-8.1
				c-3.2,4.3-3.4,4.5-10.6,8.1c-8.5,4.2-7.7,12.8-7.2,15c2.4,9.1,17.8,8.7,17.8,8.7s15.4,0.3,17.8-8.7C49.4,45.5,50.6,36.7,42,32.7z
				"/>
			
				<radialGradient id="SVGID_00000027594955495779421560000005736246685708702643_" cx="27.0446" cy="50.2451" r="6.3617" gradientTransform="matrix(0.7567 0.6538 -0.5096 0.5898 32.1861 2.9283)" gradientUnits="userSpaceOnUse">
				<stop  offset="0.2517" style="stop-color:#F9F9F9;stop-opacity:0.8"/>
				<stop  offset="0.2798" style="stop-color:#F9F9F9;stop-opacity:0.7125"/>
				<stop  offset="0.5092" style="stop-color:#F9F9F9;stop-opacity:0"/>
			</radialGradient>
			<path style="fill:url(#SVGID_00000027594955495779421560000005736246685708702643_);" d="M42,32.7c-7.1-3.2-7.6-3.9-11-8.1
				c-3.2,4.3-3.4,4.5-10.6,8.1c-8.5,4.2-7.7,12.8-7.2,15c2.4,9.1,17.8,8.7,17.8,8.7s15.4,0.3,17.8-8.7C49.4,45.5,50.6,36.7,42,32.7z
				"/>
			
				<radialGradient id="SVGID_00000063594474999090592440000017974187096860539834_" cx="31.1787" cy="42.248" r="20.196" gradientTransform="matrix(1.035340e-13 1 -0.9846 1.019419e-13 72.777 11.0694)" gradientUnits="userSpaceOnUse">
				<stop  offset="0.8367" style="stop-color:#F9F9F9;stop-opacity:0"/>
				<stop  offset="0.9162" style="stop-color:#F9F9F9;stop-opacity:0.8"/>
			</radialGradient>
			<path style="fill:url(#SVGID_00000063594474999090592440000017974187096860539834_);" d="M42,32.7c-7.1-3.2-7.6-3.9-11-8.1
				c-3.2,4.3-3.4,4.5-10.6,8.1c-8.5,4.2-7.7,12.8-7.2,15c2.4,9.1,17.8,8.7,17.8,8.7s15.4,0.3,17.8-8.7C49.4,45.5,50.6,36.7,42,32.7z
				"/>
		</g>
		<circle class="st18" cx="21" cy="42.2" r="5.6"/>
		<circle class="st19" cx="21" cy="42.2" r="2.1"/>
		<circle class="st18" cx="40.5" cy="42.2" r="5.6"/>
		<circle class="st19" cx="40.5" cy="42.2" r="2.1"/>
		<path class="st19" d="M31.3,46.9h-0.4c-0.9,0-1.7-0.8-1.7-1.7v-1.4c0-0.9,0.8-1.7,1.7-1.7h0.4c0.9,0,1.7,0.8,1.7,1.7v1.4
			C33,46.2,32.2,46.9,31.3,46.9z"/>
	</g>
</g>
</svg>
