<svg enable-background="new 0 0 64 64" viewBox="0 0 64 64" xmlns="http://www.w3.org/2000/svg" xmlns:xlink="http://www.w3.org/1999/xlink"><linearGradient id="a" gradientTransform="matrix(3.7795 0 0 -3.7795 3260.3857 8342.7666)" gradientUnits="userSpaceOnUse" x1="-857.8403" x2="-853.7695" y1="2116.9482" y2="2125.6619"><stop offset="0" stop-color="#5f5fd3"/><stop offset="1" stop-color="#8d5fd3"/></linearGradient><radialGradient id="b" cx="31.8169" cy="40.2826" gradientTransform="matrix(0 1 -.9375 0 69.5839 8.4657)" gradientUnits="userSpaceOnUse" r="13.662"><stop offset=".3696" stop-color="#ffe923" stop-opacity="0"/><stop offset=".8478" stop-color="#ffea2e"/></radialGradient><radialGradient id="c" cx="31.4103" cy="43.3324" gradientTransform="matrix(0 1 -1.1728 0 82.2321 11.9221)" gradientUnits="userSpaceOnUse" r="16.3003"><stop offset=".3846" stop-color="#ffe923" stop-opacity="0"/><stop offset=".79" stop-color="#d7a112"/></radialGradient><radialGradient id="d" cx="31.207" cy="29.1003" gradientUnits="userSpaceOnUse" r="26.7784"><stop offset=".6681" stop-color="#ffe923" stop-opacity="0"/><stop offset=".8478" stop-color="#ffea2e"/></radialGradient><radialGradient id="e" cx="20.8379" cy="43.8745" gradientUnits="userSpaceOnUse" r="26.7784"><stop offset="0" stop-color="#ffea2e"/><stop offset=".1649" stop-color="#ffea2c" stop-opacity=".2993"/><stop offset=".2243" stop-color="#ffe925" stop-opacity=".04713"/><stop offset=".2354" stop-color="#ffe923" stop-opacity="0"/></radialGradient><radialGradient id="f" cx="31.0431" cy="45.1622" gradientTransform="matrix(0 1 -.7792 0 66.2317 14.1191)" gradientUnits="userSpaceOnUse" r="15.1319"><stop offset=".08749924" stop-color="#ffea2e"/><stop offset=".1666" stop-color="#ffea2b" stop-opacity=".3771"/><stop offset=".214" stop-color="#ffe923" stop-opacity=".003503"/><stop offset=".2144" stop-color="#ffe923" stop-opacity="0"/></radialGradient><radialGradient id="g" cx="31.1787" cy="42.248" gradientTransform="matrix(0 1 -1.2111 0 82.3465 11.0694)" gradientUnits="userSpaceOnUse" r="17.9008"><stop offset="0" stop-color="#f9f9f9" stop-opacity=".8"/><stop offset=".5906" stop-color="#f9f9f9" stop-opacity="0"/></radialGradient><linearGradient id="h"><stop offset=".2517" stop-color="#f9f9f9" stop-opacity=".8"/><stop offset=".2798" stop-color="#f9f9f9" stop-opacity=".7125"/><stop offset=".5092" stop-color="#f9f9f9" stop-opacity="0"/></linearGradient><radialGradient id="i" cx="29.4844" cy="32.4211" gradientTransform="matrix(-.7381 .6746 -.4199 -.4595 64.8634 27.4267)" gradientUnits="userSpaceOnUse" r="10.9299" xlink:href="#h"/><radialGradient id="j" cx="27.0446" cy="50.2451" gradientTransform="matrix(.7567 .6538 -.5096 .5898 32.1861 2.9283)" gradientUnits="userSpaceOnUse" r="6.3617" xlink:href="#h"/><radialGradient id="k" cx="31.1787" cy="42.248" gradientTransform="matrix(0 1 -.9846 0 72.777 11.0694)" gradientUnits="userSpaceOnUse" r="20.196"><stop offset=".8367" stop-color="#f9f9f9" stop-opacity="0"/><stop offset=".9162" stop-color="#f9f9f9" stop-opacity=".8"/></radialGradient><g transform="translate(0 -280.06665)"><path d="m.6 280.1h62.7c.3 0 .6.3.6.6v62.7c0 .3-.3.6-.6.6h-62.7c-.3 0-.6-.3-.6-.6v-62.7c0-.4.3-.6.6-.6z" fill="url(#a)"/><path d="m37.4 280.1-36.6 63.4c0 .3.3.6.6.6h5.9l36.9-64zm12 0-37 64h4.1l36.9-64zm11.5 0-36.9 64h2.3l37-64z" fill="#fff" opacity=".22"/><path d="m13.5 285.5c-1.5 0-2.7 1.2-2.7 2.7v9.4c0 1.5 1.2 2.7 2.7 2.7h25.5v5l4.3-5h12.5c1.5 0 2.7-1.2 2.7-2.7v-9.4c0-1.5-1.2-2.7-2.7-2.7z" style="fill:#f9f9f9;stroke:#b7bec8;stroke-width:.981;stroke-linecap:round;stroke-linejoin:round;stroke-miterlimit:15.1181"/><g fill="#939dac"><path d="m14 288.3h17.6c.3 0 .6.3.6.6 0 .3-.3.6-.6.6h-17.6c-.3 0-.6-.3-.6-.6 0-.3.3-.6.6-.6z"/><path d="m14 291.3h40.3c.3 0 .6.3.6.6 0 .3-.3.6-.6.6h-40.3c-.3 0-.6-.3-.6-.6 0-.4.3-.6.6-.6z"/><path d="m34.2 288.3h9.4c.3 0 .5.2.5.5v.2c0 .3-.2.5-.5.5h-9.4c-.3 0-.5-.2-.5-.5v-.2c0-.3.2-.5.5-.5z"/><path d="m34.2 288.3h9.4c.3 0 .5.2.5.5v.2c0 .3-.2.5-.5.5h-9.4c-.3 0-.5-.2-.5-.5v-.2c0-.3.2-.5.5-.5z"/><path d="m13.9 294h9.4c.3 0 .5.2.5.5v.2c0 .3-.2.5-.5.5h-9.4c-.3 0-.5-.2-.5-.5v-.2c0-.2.2-.5.5-.5z"/><path d="m27.2 294h17.6c.3 0 .6.3.6.6 0 .3-.3.6-.6.6h-17.6c-.3 0-.6-.3-.6-.6 0-.3.3-.6.6-.6z"/></g><path d="m53 329.3c-.2 0-.7-1.4-.9-1.5s-1.7-.2-1.7-.4c-.1-.2 1.1-1.1 1.2-1.3s-.3-1.6-.2-1.8c.2-.1 1.4.7 1.6.7s1.5-.8 1.6-.7c.2.1-.2 1.6-.2 1.8.1.2 1.2 1.1 1.2 1.3-.1.2-1.6.3-1.7.4s-.6 1.5-.9 1.5z" fill="#fff" opacity=".22"/><path d="m7.3 307.8c-.2 0-.5-1-.6-1.1s-1.2-.1-1.2-.3c0-.1.8-.8.8-1 0-.1-.2-1.2-.1-1.3s1 .5 1.2.5 1-.6 1.2-.5c.1.1-.2 1.1-.1 1.3 0 .1.9.8.8 1 0 .1-1.1.2-1.2.3-.2.1-.6 1.1-.8 1.1z" fill="#fff" opacity=".22"/><path d="m9.7 313.6c-.2 0-.5-1-.6-1.1s-1.2-.1-1.2-.3c0-.1.8-.8.8-1 0-.1-.2-1.2-.1-1.3s1 .5 1.2.5 1-.6 1.2-.5c.1.1-.2 1.1-.1 1.3 0 .1.9.8.8 1 0 .1-1.1.2-1.2.3-.3.1-.7 1.1-.8 1.1z" fill="#fff" opacity=".22"/><path d="m47.7 335.8c-.1 0-.1-.7-.2-.7-.1-.1-.7-.3-.7-.4s.6-.3.6-.4 0-.7.1-.8c.1 0 .5.5.6.5s.7-.2.8-.1-.3.6-.3.7.4.6.3.7-.7-.1-.8 0c.1 0-.3.5-.4.5z" fill="#fff" opacity=".22"/><path d="m11.8 307.8c-.1 0-.1-.7-.2-.7-.1-.1-.7-.3-.7-.4s.6-.3.6-.4 0-.7.1-.8c.1 0 .5.5.6.5s.7-.2.8-.1-.3.6-.3.7.4.6.3.7c0 .1-.7-.1-.8 0 0 0-.3.5-.4.5z" fill="#fff" opacity=".22"/><path d="m.6 280.1h62.7c.3 0 .6.3.6.6v62.7c0 .3-.3.6-.6.6h-62.7c-.3 0-.6-.3-.6-.6v-62.7c0-.4.3-.6.6-.6z" style="fill:none;stroke:#8787de;stroke-width:2;stroke-linecap:round;stroke-linejoin:round;stroke-miterlimit:15.1181"/></g><g fill="none" stroke="#58397c" stroke-linecap="round" stroke-linejoin="round" stroke-width="7"><path d="m42 33.7c-7.1-3.2-7.6-3.9-11-8.1-3.2 4.3-3.4 4.5-10.6 8.1-8.5 4.2-7.7 12.8-7.2 15 2.4 9.1 17.8 8.7 17.8 8.7s15.4.3 17.8-8.7c.6-2.2 1.8-11-6.8-15z"/><path d="m42 34.7c-7.1-3.2-7.6-3.9-11-8.1-3.2 4.3-3.4 4.5-10.6 8.1-8.5 4.2-7.7 12.8-7.2 15 2.4 9.1 17.8 8.7 17.8 8.7s15.4.3 17.8-8.7c.6-2.2 1.8-11-6.8-15z"/><path d="m42 33.7c-7.1-3.2-7.6-3.9-11-8.1-3.2 4.3-3.4 4.5-10.6 8.1-8.5 4.2-7.7 12.8-7.2 15 2.4 9.1 17.8 8.7 17.8 8.7s15.4.3 17.8-8.7c.6-2.2 1.8-11-6.8-15z"/><path d="m42 33.7c-7.1-3.2-7.6-3.9-11-8.1-3.2 4.3-3.4 4.5-10.6 8.1-8.5 4.2-7.7 12.8-7.2 15 2.4 9.1 17.8 8.7 17.8 8.7s15.4.3 17.8-8.7c.6-2.2 1.8-11-6.8-15z"/><path d="m42 33.7c-7.1-3.2-7.6-3.9-11-8.1-3.2 4.3-3.4 4.5-10.6 8.1-8.5 4.2-7.7 12.8-7.2 15 2.4 9.1 17.8 8.7 17.8 8.7s15.4.3 17.8-8.7c.6-2.2 1.8-11-6.8-15z"/><path d="m42 33.7c-7.1-3.2-7.6-3.9-11-8.1-3.2 4.3-3.4 4.5-10.6 8.1-8.5 4.2-7.7 12.8-7.2 15 2.4 9.1 17.8 8.7 17.8 8.7s15.4.3 17.8-8.7c.6-2.2 1.8-11-6.8-15z"/><path d="m42 33.7c-7.1-3.2-7.6-3.9-11-8.1-3.2 4.3-3.4 4.5-10.6 8.1-8.5 4.2-7.7 12.8-7.2 15 2.4 9.1 17.8 8.7 17.8 8.7s15.4.3 17.8-8.7c.6-2.2 1.8-11-6.8-15z"/><path d="m42 33.7c-7.1-3.2-7.6-3.9-11-8.1-3.2 4.3-3.4 4.5-10.6 8.1-8.5 4.2-7.7 12.8-7.2 15 2.4 9.1 17.8 8.7 17.8 8.7s15.4.3 17.8-8.7c.6-2.2 1.8-11-6.8-15z"/><path d="m42 33.7c-7.1-3.2-7.6-3.9-11-8.1-3.2 4.3-3.4 4.5-10.6 8.1-8.5 4.2-7.7 12.8-7.2 15 2.4 9.1 17.8 8.7 17.8 8.7s15.4.3 17.8-8.7c.6-2.2 1.8-11-6.8-15z"/><path d="m42 33.7c-7.1-3.2-7.6-3.9-11-8.1-3.2 4.3-3.4 4.5-10.6 8.1-8.5 4.2-7.7 12.8-7.2 15 2.4 9.1 17.8 8.7 17.8 8.7s15.4.3 17.8-8.7c.6-2.2 1.8-11-6.8-15z"/><path d="m42 33.7c-7.1-3.2-7.6-3.9-11-8.1-3.2 4.3-3.4 4.5-10.6 8.1-8.5 4.2-7.7 12.8-7.2 15 2.4 9.1 17.8 8.7 17.8 8.7s15.4.3 17.8-8.7c.6-2.2 1.8-11-6.8-15z"/><path d="m42 33.7c-7.1-3.2-7.6-3.9-11-8.1-3.2 4.3-3.4 4.5-10.6 8.1-8.5 4.2-7.7 12.8-7.2 15 2.4 9.1 17.8 8.7 17.8 8.7s15.4.3 17.8-8.7c.6-2.2 1.8-11-6.8-15z"/><path d="m42 33.7c-7.1-3.2-7.6-3.9-11-8.1-3.2 4.3-3.4 4.5-10.6 8.1-8.5 4.2-7.7 12.8-7.2 15 2.4 9.1 17.8 8.7 17.8 8.7s15.4.3 17.8-8.7c.6-2.2 1.8-11-6.8-15z"/><circle cx="21" cy="43.2" r="5.6"/><circle cx="21" cy="43.2" r="2.1"/><circle cx="40.5" cy="43.2" r="5.6"/><circle cx="40.5" cy="43.2" r="2.1"/><path d="m31.3 47.9h-.4c-.9 0-1.7-.8-1.7-1.7v-1.4c0-.9.8-1.7 1.7-1.7h.4c.9 0 1.7.8 1.7 1.7v1.4c0 1-.8 1.7-1.7 1.7z"/></g><path d="m42 32.7c-7.1-3.2-7.6-3.9-11-8.1-3.2 4.3-3.4 4.5-10.6 8.1-8.5 4.2-7.7 12.8-7.2 15 2.4 9.1 17.8 8.7 17.8 8.7s15.4.3 17.8-8.7c.6-2.2 1.8-11-6.8-15z" fill="#ce7301"/><path d="m42 33.7c-7.1-3.2-7.6-3.9-11-8.1-3.2 4.3-3.4 4.5-10.6 8.1-8.5 4.2-7.7 12.8-7.2 15 2.4 9.1 17.8 8.7 17.8 8.7s15.4.3 17.8-8.7c.6-2.2 1.8-11-6.8-15z" fill="none" stroke="#ce7301" stroke-linecap="round" stroke-linejoin="round" stroke-width="5"/><path d="m42 32.7c-7.1-3.2-7.6-3.9-11-8.1-3.2 4.3-3.4 4.5-10.6 8.1-8.5 4.2-7.7 12.8-7.2 15 2.4 9.1 17.8 8.7 17.8 8.7s15.4.3 17.8-8.7c.6-2.2 1.8-11-6.8-15z" fill="#dcaa29"/><path d="m42 32.7c-7.1-3.2-7.6-3.9-11-8.1-3.2 4.3-3.4 4.5-10.6 8.1-8.5 4.2-7.7 12.8-7.2 15 2.4 9.1 17.8 8.7 17.8 8.7s15.4.3 17.8-8.7c.6-2.2 1.8-11-6.8-15z" fill="url(#b)"/><path d="m42 32.7c-7.1-3.2-7.6-3.9-11-8.1-3.2 4.3-3.4 4.5-10.6 8.1-8.5 4.2-7.7 12.8-7.2 15 2.4 9.1 17.8 8.7 17.8 8.7s15.4.3 17.8-8.7c.6-2.2 1.8-11-6.8-15z" fill="url(#c)"/><path d="m42 32.7c-7.1-3.2-7.6-3.9-11-8.1-3.2 4.3-3.4 4.5-10.6 8.1-8.5 4.2-7.7 12.8-7.2 15 2.4 9.1 17.8 8.7 17.8 8.7s15.4.3 17.8-8.7c.6-2.2 1.8-11-6.8-15z" fill="url(#d)"/><path d="m42 32.7c-7.1-3.2-7.6-3.9-11-8.1-3.2 4.3-3.4 4.5-10.6 8.1-8.5 4.2-7.7 12.8-7.2 15 2.4 9.1 17.8 8.7 17.8 8.7s15.4.3 17.8-8.7c.6-2.2 1.8-11-6.8-15z" fill="url(#e)"/><path d="m42 32.7c-7.1-3.2-7.6-3.9-11-8.1-3.2 4.3-3.4 4.5-10.6 8.1-8.5 4.2-7.7 12.8-7.2 15 2.4 9.1 17.8 8.7 17.8 8.7s15.4.3 17.8-8.7c.6-2.2 1.8-11-6.8-15z" fill="url(#f)"/><path d="m42 32.7c-7.1-3.2-7.6-3.9-11-8.1-3.2 4.3-3.4 4.5-10.6 8.1-8.5 4.2-7.7 12.8-7.2 15 2.4 9.1 17.8 8.7 17.8 8.7s15.4.3 17.8-8.7c.6-2.2 1.8-11-6.8-15z" fill="url(#g)"/><path d="m42 32.7c-7.1-3.2-7.6-3.9-11-8.1-3.2 4.3-3.4 4.5-10.6 8.1-8.5 4.2-7.7 12.8-7.2 15 2.4 9.1 17.8 8.7 17.8 8.7s15.4.3 17.8-8.7c.6-2.2 1.8-11-6.8-15z" fill="url(#i)"/><path d="m42 32.7c-7.1-3.2-7.6-3.9-11-8.1-3.2 4.3-3.4 4.5-10.6 8.1-8.5 4.2-7.7 12.8-7.2 15 2.4 9.1 17.8 8.7 17.8 8.7s15.4.3 17.8-8.7c.6-2.2 1.8-11-6.8-15z" fill="url(#j)"/><path d="m42 32.7c-7.1-3.2-7.6-3.9-11-8.1-3.2 4.3-3.4 4.5-10.6 8.1-8.5 4.2-7.7 12.8-7.2 15 2.4 9.1 17.8 8.7 17.8 8.7s15.4.3 17.8-8.7c.6-2.2 1.8-11-6.8-15z" fill="url(#k)"/><circle cx="21" cy="42.2" fill="#fff1b2" r="5.6" stroke="#4d3616" stroke-width=".75"/><circle cx="21" cy="42.2" fill="#4d3616" r="2.1"/><circle cx="40.5" cy="42.2" fill="#fff1b2" r="5.6" stroke="#4d3616" stroke-width=".75"/><circle cx="40.5" cy="42.2" fill="#4d3616" r="2.1"/><path d="m31.3 46.9h-.4c-.9 0-1.7-.8-1.7-1.7v-1.4c0-.9.8-1.7 1.7-1.7h.4c.9 0 1.7.8 1.7 1.7v1.4c0 1-.8 1.7-1.7 1.7z" fill="#4d3616"/></svg>
