<?xml version="1.0" encoding="UTF-8" standalone="no"?>
<!-- Created with Inkscape (http://www.inkscape.org/) -->

<svg
   xmlns:dc="http://purl.org/dc/elements/1.1/"
   xmlns:cc="http://creativecommons.org/ns#"
   xmlns:rdf="http://www.w3.org/1999/02/22-rdf-syntax-ns#"
   xmlns:svg="http://www.w3.org/2000/svg"
   xmlns="http://www.w3.org/2000/svg"
   xmlns:xlink="http://www.w3.org/1999/xlink"
   xmlns:sodipodi="http://sodipodi.sourceforge.net/DTD/sodipodi-0.dtd"
   xmlns:inkscape="http://www.inkscape.org/namespaces/inkscape"
   width="64"
   height="64"
   viewBox="0 0 16.933333 16.933334"
   version="1.1"
   id="svg839"
   inkscape:version="0.92.2 2405546, 2018-03-11"
   sodipodi:docname="icon.svg"
   inkscape:export-filename="/home/henrique/Documents/GitHub/godot-demo-projects/2d/role_playing_game/icon.png"
   inkscape:export-xdpi="96"
   inkscape:export-ydpi="96">
  <defs
     id="defs833">
    <linearGradient
       inkscape:collect="always"
       id="linearGradient1525">
      <stop
         style="stop-color:#5f5fd3;stop-opacity:1"
         offset="0"
         id="stop1521" />
      <stop
         style="stop-color:#8d5fd3;stop-opacity:1"
         offset="1"
         id="stop1523" />
    </linearGradient>
    <clipPath
       id="_clip1">
      <path
         inkscape:connector-curvature="0"
         d="M 782,389.065 C 782,379.095 772.59,371 761,371 h -42 c -11.59,0 -21,8.095 -21,18.065 v 144.523 c 0,9.971 9.41,18.065 21,18.065 h 42 c 11.59,0 21,-8.094 21,-18.065 z"
         id="path4" />
    </clipPath>
    <clipPath
       id="clipPath1397">
      <path
         id="path1395"
         d="M 782,389.065 C 782,379.095 772.59,371 761,371 h -42 c -11.59,0 -21,8.095 -21,18.065 v 144.523 c 0,9.971 9.41,18.065 21,18.065 h 42 c 11.59,0 21,-8.094 21,-18.065 z"
         inkscape:connector-curvature="0" />
    </clipPath>
    <linearGradient
       inkscape:collect="always"
       xlink:href="#linearGradient1525"
       id="linearGradient1527"
       x1="6.1421132"
       y1="296.99997"
       x2="10.21282"
       y2="288.28638"
       gradientUnits="userSpaceOnUse" />
  </defs>
  <sodipodi:namedview
     id="base"
     pagecolor="#ffffff"
     bordercolor="#666666"
     borderopacity="1.0"
     inkscape:pageopacity="0.0"
     inkscape:pageshadow="2"
     inkscape:zoom="3.959798"
     inkscape:cx="24.889913"
     inkscape:cy="29.585249"
     inkscape:document-units="mm"
     inkscape:current-layer="layer1"
     showgrid="false"
     units="px"
     inkscape:snap-page="true"
     inkscape:window-width="1920"
     inkscape:window-height="1026"
     inkscape:window-x="0"
     inkscape:window-y="26"
     inkscape:window-maximized="1" />
  <metadata
     id="metadata836">
    <rdf:RDF>
      <cc:Work
         rdf:about="">
        <dc:format>image/svg+xml</dc:format>
        <dc:type
           rdf:resource="http://purl.org/dc/dcmitype/StillImage" />
        <dc:title></dc:title>
      </cc:Work>
    </rdf:RDF>
  </metadata>
  <g
     inkscape:label="Layer 1"
     inkscape:groupmode="layer"
     id="layer1"
     transform="translate(0,-280.06665)">
    <rect
       style="opacity:1;fill:url(#linearGradient1527);fill-opacity:1;stroke:none;stroke-width:0.25955623;stroke-linecap:round;stroke-linejoin:round;stroke-miterlimit:4;stroke-dasharray:none;stroke-opacity:1"
       id="rect1519"
       width="16.933332"
       height="16.933332"
       x="0"
       y="280.06665"
       ry="0.16704336" />
    <path
       style="opacity:0.22000002;fill:#ffffff;fill-opacity:1;stroke:none;stroke-width:0.25955623;stroke-linecap:round;stroke-linejoin:round;stroke-miterlimit:4;stroke-dasharray:none;stroke-opacity:1"
       d="m 9.905854,280.06665 -9.68467855,16.77469 c 0.004508,0.0885 0.0762661,0.15864 0.16588052,0.15864 H 1.9528522 L 11.729,280.06665 Z m 3.160014,0 -9.7766636,16.93333 h 1.0945071 l 9.7761475,-16.93333 z m 3.038575,0 -9.7761472,16.93333 h 0.6071976 l 9.7766636,-16.93333 z"
       id="rect1542"
       inkscape:connector-curvature="0" />
    <g
       id="g1497"
       transform="matrix(1.0119908,0,0,1.0119908,3.2611903,-0.01978024)"
       style="stroke-width:1.04486346">
      <g
         transform="translate(-0.48442605)"
         id="g1483"
         style="stroke-width:1.04486346">
        <path
           style="opacity:1;fill:#b7bec8;fill-opacity:1;stroke:#939dac;stroke-width:0.24960057;stroke-miterlimit:4;stroke-dasharray:none;stroke-opacity:1"
           d="m 7.1441754,286.28934 c -0.8987875,0 -1.7760709,1.08611 -1.975802,1.43205 -0.3994608,0.69189 1.1986223,3.45955 1.997544,3.45955 0.7989226,0 2.3965286,-2.76766 1.9970676,-3.45955 -0.19973,-0.34594 -1.120022,-1.43205 -2.0188096,-1.43205 z"
           id="path1434"
           inkscape:connector-curvature="0"
           sodipodi:nodetypes="scscs" />
        <rect
           style="opacity:1;fill:#ac9d93;fill-opacity:1;stroke:#917c6f;stroke-width:0.27120084;stroke-linecap:round;stroke-linejoin:round;stroke-miterlimit:4;stroke-dasharray:none;stroke-opacity:1"
           id="rect1479"
           width="2.5891733"
           height="0.70158249"
           x="5.8710999"
           y="288.28033"
           ry="0.20079997" />
      </g>
      <path
         inkscape:connector-curvature="0"
         d="m 6.6335794,284.84194 c 0,-0.50467 -0.4097646,-0.91444 -0.9144587,-0.91444 H 3.8902034 c -0.504694,0 -0.9144586,0.40977 -0.9144586,0.91444 v 7.31568 c 0,0.50472 0.4097646,0.91444 0.9144586,0.91444 h 1.8289173 c 0.5046941,0 0.9144587,-0.40972 0.9144587,-0.91444 z"
         style="clip-rule:evenodd;fill:#5dc4f8;fill-rule:evenodd;stroke-width:0.04905583;stroke-linecap:round;stroke-linejoin:bevel;stroke-miterlimit:1.5"
         id="path2" />
      <g
         transform="matrix(0.04354565,0,0,0.05061944,-27.419119,265.14769)"
         clip-path="url(#_clip1)"
         id="g11"
         style="clip-rule:evenodd;fill-rule:evenodd;stroke-width:1.04486346;stroke-linecap:round;stroke-linejoin:bevel;stroke-miterlimit:1.5">
        <g
           transform="translate(0,42.5826)"
           id="g9"
           style="stroke-width:1.04486346">
          <path
             inkscape:connector-curvature="0"
             d="M 782,389.065 C 782,379.095 772.59,371 761,371 h -42 c -11.59,0 -21,8.095 -21,18.065 v 144.523 c 0,9.971 9.41,18.065 21,18.065 h 42 c 11.59,0 21,-8.094 21,-18.065 z"
             style="fill:#2c9de6;stroke-width:1.04486346"
             id="path7" />
        </g>
      </g>
      <path
         inkscape:connector-curvature="0"
         d="m 6.6335794,284.84194 c 0,-0.50467 -0.4097646,-0.91444 -0.9144587,-0.91444 H 3.8902034 c -0.504694,0 -0.9144586,0.40977 -0.9144586,0.91444 v 7.31568 c 0,0.50472 0.4097646,0.91444 0.9144586,0.91444 h 1.8289173 c 0.5046941,0 0.9144587,-0.40972 0.9144587,-0.91444 z"
         style="clip-rule:evenodd;fill:none;fill-rule:evenodd;stroke:#2267c2;stroke-width:0.27120087;stroke-linecap:round;stroke-linejoin:bevel;stroke-miterlimit:1.5;stroke-dasharray:none"
         id="path13" />
      <g
         transform="rotate(-15,7.362507,255.90714)"
         id="g1475"
         style="stroke-width:1.04486346">
        <rect
           style="opacity:1;fill:#ac9d93;fill-opacity:1;stroke:#917c6f;stroke-width:0.27120084;stroke-linecap:round;stroke-linejoin:round;stroke-miterlimit:4;stroke-dasharray:none;stroke-opacity:1"
           id="rect1470"
           width="0.67327011"
           height="1.5709635"
           x="-6.0889969"
           y="286.16861"
           ry="0.20079997" />
        <path
           style="opacity:1;fill:#b7bec8;fill-opacity:1;stroke:#939dac;stroke-width:1.02501094;stroke-linecap:round;stroke-linejoin:round;stroke-miterlimit:4;stroke-dasharray:none;stroke-opacity:1"
           d="M -23.125,8.0744882 V 22.169922 c 0,0.420661 0.339319,0.757812 0.759766,0.757812 h 1.25 c 0.420446,0 0.757812,-0.33734 0.757812,-0.757812 V 8.0744882 l -1.382812,-4.8669085 z"
           id="rect1464"
           inkscape:connector-curvature="0"
           sodipodi:nodetypes="cssssccc"
           transform="matrix(0.26458333,0,0,0.26458333,0,280.06665)" />
        <rect
           style="opacity:1;fill:#b7bec8;fill-opacity:1;stroke:#939dac;stroke-width:0.27120084;stroke-linecap:round;stroke-linejoin:round;stroke-miterlimit:4;stroke-dasharray:none;stroke-opacity:1"
           id="rect1468"
           width="1.8190104"
           height="0.69689357"
           x="-6.6618671"
           y="285.73157"
           ry="0.20079997" />
      </g>
    </g>
    <path
       inkscape:connector-curvature="0"
       style="opacity:1;fill:#f9f9f9;fill-opacity:1;stroke:#b7bec8;stroke-width:0.25955626;stroke-linecap:round;stroke-linejoin:round;stroke-miterlimit:4;stroke-dasharray:none;stroke-opacity:1"
       d="m 3.5834747,281.49299 c -0.3924424,0 -0.7085566,0.31542 -0.7085566,0.70699 v 2.48726 c 0,0.39157 0.3161142,0.70651 0.7085566,0.70651 H 7.936716 v 1.33509 l 1.1309286,-1.33509 h 5.6903564 c 0.392442,0 0.70808,-0.31494 0.70808,-0.70651 v -2.48726 c 0,-0.39157 -0.315638,-0.70699 -0.70808,-0.70699 z"
       id="rect1499" />
    <rect
       style="opacity:1;fill:#939dac;fill-opacity:1;stroke:none;stroke-width:0.25955623;stroke-linecap:round;stroke-linejoin:round;stroke-miterlimit:4;stroke-dasharray:none;stroke-opacity:1"
       id="rect1507"
       width="4.9563775"
       height="0.30716547"
       x="3.552417"
       y="282.24554"
       ry="0.15358274" />
    <rect
       ry="0.1535777"
       y="283.02881"
       x="3.552417"
       height="0.3071554"
       width="10.959443"
       id="rect1509"
       style="opacity:1;fill:#939dac;fill-opacity:1;stroke:none;stroke-width:0.25955623;stroke-linecap:round;stroke-linejoin:round;stroke-miterlimit:4;stroke-dasharray:none;stroke-opacity:1" />
    <rect
       ry="0.13071308"
       y="282.24554"
       x="8.9089985"
       height="0.3071554"
       width="2.7552533"
       id="rect1511"
       style="opacity:1;fill:#939dac;fill-opacity:1;stroke:none;stroke-width:0.25955623;stroke-linecap:round;stroke-linejoin:round;stroke-miterlimit:4;stroke-dasharray:none;stroke-opacity:1" />
    <rect
       style="opacity:1;fill:#939dac;fill-opacity:1;stroke:none;stroke-width:0.25955623;stroke-linecap:round;stroke-linejoin:round;stroke-miterlimit:4;stroke-dasharray:none;stroke-opacity:1"
       id="rect1513"
       width="2.7552533"
       height="0.3071554"
       x="8.9089985"
       y="282.24554"
       ry="0.13071308" />
    <rect
       ry="0.13071308"
       y="283.76599"
       x="3.552417"
       height="0.3071554"
       width="2.7552533"
       id="rect1515"
       style="opacity:1;fill:#939dac;fill-opacity:1;stroke:none;stroke-width:0.25955623;stroke-linecap:round;stroke-linejoin:round;stroke-miterlimit:4;stroke-dasharray:none;stroke-opacity:1" />
    <rect
       ry="0.15358274"
       y="283.76599"
       x="7.0465093"
       height="0.30716547"
       width="4.9563775"
       id="rect1517"
       style="opacity:1;fill:#939dac;fill-opacity:1;stroke:none;stroke-width:0.25955623;stroke-linecap:round;stroke-linejoin:round;stroke-miterlimit:4;stroke-dasharray:none;stroke-opacity:1" />
    <path
       sodipodi:type="star"
       style="opacity:0.22000002;fill:#ffffff;fill-opacity:1;stroke:none;stroke-width:0.25955623;stroke-linecap:round;stroke-linejoin:round;stroke-miterlimit:4;stroke-dasharray:none;stroke-opacity:1"
       id="path1550"
       sodipodi:sides="5"
       sodipodi:cx="14.032366"
       sodipodi:cy="292.36978"
       sodipodi:r1="0.73499119"
       sodipodi:r2="0.40645012"
       sodipodi:arg1="0.78539816"
       sodipodi:arg2="1.4137167"
       inkscape:flatsided="false"
       inkscape:rounded="0.12"
       inkscape:randomized="0"
       d="m 14.552083,292.8895 c -0.03998,0.04 -0.400284,-0.12712 -0.456134,-0.11827 -0.05585,0.009 -0.346879,0.2791 -0.397262,0.25343 -0.05038,-0.0257 -0.0028,-0.41997 -0.02847,-0.47035 -0.02567,-0.0504 -0.372638,-0.24366 -0.363792,-0.29951 0.0088,-0.0558 0.398554,-0.13244 0.438538,-0.17242 0.03998,-0.04 0.116576,-0.42969 0.172426,-0.43854 0.05585,-0.009 0.249119,0.33812 0.299502,0.36379 0.05038,0.0257 0.444686,-0.0219 0.470358,0.0285 0.02567,0.0504 -0.24459,0.34141 -0.253436,0.39726 -0.0088,0.0559 0.158255,0.41615 0.118271,0.45614 z"
       inkscape:transform-center-x="-1.426933e-06"
       inkscape:transform-center-y="0.067388288"
       transform="rotate(45,14.033142,292.37056)" />
    <path
       transform="matrix(0.50454017,0.50454017,-0.50454017,0.50454017,142.3716,132.29856)"
       inkscape:transform-center-y="0.048086405"
       inkscape:transform-center-x="1.1465329e-06"
       d="m 14.552083,292.8895 c -0.03998,0.04 -0.400284,-0.12712 -0.456134,-0.11827 -0.05585,0.009 -0.346879,0.2791 -0.397262,0.25343 -0.05038,-0.0257 -0.0028,-0.41997 -0.02847,-0.47035 -0.02567,-0.0504 -0.372638,-0.24366 -0.363792,-0.29951 0.0088,-0.0558 0.398554,-0.13244 0.438538,-0.17242 0.03998,-0.04 0.116576,-0.42969 0.172426,-0.43854 0.05585,-0.009 0.249119,0.33812 0.299502,0.36379 0.05038,0.0257 0.444686,-0.0219 0.470358,0.0285 0.02567,0.0504 -0.24459,0.34141 -0.253436,0.39726 -0.0088,0.0559 0.158255,0.41615 0.118271,0.45614 z"
       inkscape:randomized="0"
       inkscape:rounded="0.12"
       inkscape:flatsided="false"
       sodipodi:arg2="1.4137167"
       sodipodi:arg1="0.78539816"
       sodipodi:r2="0.40645012"
       sodipodi:r1="0.73499119"
       sodipodi:cy="292.36978"
       sodipodi:cx="14.032366"
       sodipodi:sides="5"
       id="path1552"
       style="opacity:0.22000002;fill:#ffffff;fill-opacity:1;stroke:none;stroke-width:0.36376485;stroke-linecap:round;stroke-linejoin:round;stroke-miterlimit:4;stroke-dasharray:none;stroke-opacity:1"
       sodipodi:type="star" />
    <path
       sodipodi:type="star"
       style="opacity:0.22000002;fill:#ffffff;fill-opacity:1;stroke:none;stroke-width:0.36376485;stroke-linecap:round;stroke-linejoin:round;stroke-miterlimit:4;stroke-dasharray:none;stroke-opacity:1"
       id="path1554"
       sodipodi:sides="5"
       sodipodi:cx="14.032366"
       sodipodi:cy="292.36978"
       sodipodi:r1="0.73499119"
       sodipodi:r2="0.40645012"
       sodipodi:arg1="0.78539816"
       sodipodi:arg2="1.4137167"
       inkscape:flatsided="false"
       inkscape:rounded="0.12"
       inkscape:randomized="0"
       d="m 14.552083,292.8895 c -0.03998,0.04 -0.400284,-0.12712 -0.456134,-0.11827 -0.05585,0.009 -0.346879,0.2791 -0.397262,0.25343 -0.05038,-0.0257 -0.0028,-0.41997 -0.02847,-0.47035 -0.02567,-0.0504 -0.372638,-0.24366 -0.363792,-0.29951 0.0088,-0.0558 0.398554,-0.13244 0.438538,-0.17242 0.03998,-0.04 0.116576,-0.42969 0.172426,-0.43854 0.05585,-0.009 0.249119,0.33812 0.299502,0.36379 0.05038,0.0257 0.444686,-0.0219 0.470358,0.0285 0.02567,0.0504 -0.24459,0.34141 -0.253436,0.39726 -0.0088,0.0559 0.158255,0.41615 0.118271,0.45614 z"
       inkscape:transform-center-x="1.1465329e-06"
       inkscape:transform-center-y="0.048086405"
       transform="matrix(0.50454017,0.50454017,-0.50454017,0.50454017,142.98966,133.81866)" />
    <path
       transform="matrix(0.21352693,0.36983949,-0.36983949,0.21352693,117.84722,226.88973)"
       inkscape:transform-center-y="0.0045220952"
       inkscape:transform-center-x="0.024398526"
       d="m 14.552083,292.8895 c -0.03998,0.04 -0.400284,-0.12712 -0.456134,-0.11827 -0.05585,0.009 -0.346879,0.2791 -0.397262,0.25343 -0.05038,-0.0257 -0.0028,-0.41997 -0.02847,-0.47035 -0.02567,-0.0504 -0.372638,-0.24366 -0.363792,-0.29951 0.0088,-0.0558 0.398554,-0.13244 0.438538,-0.17242 0.03998,-0.04 0.116576,-0.42969 0.172426,-0.43854 0.05585,-0.009 0.249119,0.33812 0.299502,0.36379 0.05038,0.0257 0.444686,-0.0219 0.470358,0.0285 0.02567,0.0504 -0.24459,0.34141 -0.253436,0.39726 -0.0088,0.0559 0.158255,0.41615 0.118271,0.45614 z"
       inkscape:randomized="0"
       inkscape:rounded="0.12"
       inkscape:flatsided="false"
       sodipodi:arg2="1.4137167"
       sodipodi:arg1="0.78539816"
       sodipodi:r2="0.40645012"
       sodipodi:r1="0.73499119"
       sodipodi:cy="292.36978"
       sodipodi:cx="14.032366"
       sodipodi:sides="5"
       id="path1556"
       style="opacity:0.22000002;fill:#ffffff;fill-opacity:1;stroke:none;stroke-width:0.60778338;stroke-linecap:round;stroke-linejoin:round;stroke-miterlimit:4;stroke-dasharray:none;stroke-opacity:1"
       sodipodi:type="star" />
    <path
       sodipodi:type="star"
       style="opacity:0.22000002;fill:#ffffff;fill-opacity:1;stroke:none;stroke-width:0.60778338;stroke-linecap:round;stroke-linejoin:round;stroke-miterlimit:4;stroke-dasharray:none;stroke-opacity:1"
       id="path1558"
       sodipodi:sides="5"
       sodipodi:cx="14.032366"
       sodipodi:cy="292.36978"
       sodipodi:r1="0.73499119"
       sodipodi:r2="0.40645012"
       sodipodi:arg1="0.78539816"
       sodipodi:arg2="1.4137167"
       inkscape:flatsided="false"
       inkscape:rounded="0.12"
       inkscape:randomized="0"
       d="m 14.552083,292.8895 c -0.03998,0.04 -0.400284,-0.12712 -0.456134,-0.11827 -0.05585,0.009 -0.346879,0.2791 -0.397262,0.25343 -0.05038,-0.0257 -0.0028,-0.41997 -0.02847,-0.47035 -0.02567,-0.0504 -0.372638,-0.24366 -0.363792,-0.29951 0.0088,-0.0558 0.398554,-0.13244 0.438538,-0.17242 0.03998,-0.04 0.116576,-0.42969 0.172426,-0.43854 0.05585,-0.009 0.249119,0.33812 0.299502,0.36379 0.05038,0.0257 0.444686,-0.0219 0.470358,0.0285 0.02567,0.0504 -0.24459,0.34141 -0.253436,0.39726 -0.0088,0.0559 0.158255,0.41615 0.118271,0.45614 z"
       inkscape:transform-center-x="0.024398526"
       inkscape:transform-center-y="0.0045220952"
       transform="matrix(0.21352693,0.36983949,-0.36983949,0.21352693,108.32694,219.47195)" />
    <rect
       ry="0.16704336"
       y="280.06665"
       x="0"
       height="16.933332"
       width="16.933332"
       id="rect1567"
       style="opacity:1;fill:none;fill-opacity:1;stroke:#8787de;stroke-width:0.52916667;stroke-linecap:round;stroke-linejoin:round;stroke-miterlimit:4;stroke-dasharray:none;stroke-opacity:1;paint-order:normal" />
  </g>
</svg>
