<svg xmlns="http://www.w3.org/2000/svg" width="128" height="128"><path fill="gray" d="M 24,8 A 16,16 0 0 0 8,24 v 80 a 16,16 0 0 0 16,16 h 80 a 16,16 0 0 0 16,-16 V 24 A 16,16 0 0 0 104,8 Z m 0,16 h 80 v 80 H 24 Z m 36,20 h 8 v 8 H 60 Z M 28,28 v 72 h 24 v -8 h 8 v -8 h -8 v -8 h 8 v -8 h -8 v -8 h 8 v -8 h -8 v -8 h 8 v -8 h -8 v -8 z m 32,0 h 8 v 8 h -8 z m 0,48 h 8 v 8 h -8 z m 0,-16 h 8 v 8 h -8 z m 0,32 h 8 v 8 h -8 z m 8,-56 h 8 v 8 h -8 z m 0,16 h 8 v 8 h -8 z m 0,16 h 8 v 8 h -8 z m 0,16 h 8 v 8 h -8 z"/></svg>
