<svg height="128" viewBox="0 0 128 128" width="128" xmlns="http://www.w3.org/2000/svg"><path d="m27.999994 10.00007a7.9999944 7.9999944 0 0 0 -7.999994 7.999994v91.999936a7.9999944 7.9999944 0 0 0 7.999994 7.99999h71.99995a7.9999944 7.9999944 0 0 0 7.999996-7.99999v-65.999954a1.9999986 1.9999986 0 0 0 -.57-1.413999l-31.999979-31.999977a1.9999986 1.9999986 0 0 0 -1.429999-.586zm0 3.999997h43.99997v23.999984a7.9999944 7.9999944 0 0 0 7.999994 7.999994h23.999982v63.999955a3.9999972 3.9999972 0 0 1 -3.999996 4h-71.99995a3.9999972 3.9999972 0 0 1 -3.999997-4v-91.999936a3.9999972 3.9999972 0 0 1 3.999997-3.999997z" fill="#8a0" stroke-width="2"/></svg>
