{
  "asset": {
    "generator": "Khronos glTF Blender I/O v3.3.32",
    "version": "2.0"
  },
  "scene": 0,
  "scenes": [
    {
      "name": "Scene",
      "nodes": [
        0
      ]
    }
  ],
  "nodes": [
    {
      "mesh": 0,
      "name": "plastic_monobloc_chair_01"
    }
  ],
  "materials": [
    {
      "doubleSided": true,
      "name": "plastic_monobloc_chair_01",
      "normalTexture": {
        "index": 0
      },
      "pbrMetallicRoughness": {
        "baseColorTexture": {
          "index": 1
        },
        "metallicRoughnessTexture": {
          "index": 2
        }
      }
    }
  ],
  "meshes": [
    {
      "name": "Plane.002",
      "primitives": [
        {
          "attributes": {
            "POSITION": 0,
            "NORMAL": 1,
            "TEXCOORD_0": 2
          },
          "indices": 3,
          "material": 0
        }
      ]
    }
  ],
  "textures": [
    {
      "sampler": 0,
      "source": 0
    },
    {
      "sampler": 0,
      "source": 1
    },
    {
      "sampler": 0,
      "source": 2
    }
  ],
  "images": [
    {
      "mimeType": "image/jpeg",
      "name": "plastic_monobloc_chair_01_nor_gl",
      "uri": "textures/plastic_monobloc_chair_01_nor_gl_1k.jpg"
    },
    {
      "mimeType": "image/jpeg",
      "name": "plastic_monobloc_chair_01_diff",
      "uri": "textures/plastic_monobloc_chair_01_diff_1k.jpg"
    },
    {
      "mimeType": "image/jpeg",
      "name": "plastic_monobloc_chair_01_metal-plastic_monobloc_chair_01_rough",
      "uri": "textures/plastic_monobloc_chair_01_arm_1k.jpg"
    }
  ],
  "accessors": [
    {
      "bufferView": 0,
      "componentType": 5126,
      "count": 3271,
      "max": [
        0.3209305703639984,
        0.8798216581344604,
        0.2916412651538849
      ],
      "min": [
        -0.3209305703639984,
        -0.00001953914761543274,
        -0.335950642824173
      ],
      "type": "VEC3"
    },
    {
      "bufferView": 1,
      "componentType": 5126,
      "count": 3271,
      "type": "VEC3"
    },
    {
      "bufferView": 2,
      "componentType": 5126,
      "count": 3271,
      "type": "VEC2"
    },
    {
      "bufferView": 3,
      "componentType": 5123,
      "count": 10068,
      "type": "SCALAR"
    }
  ],
  "bufferViews": [
    {
      "buffer": 0,
      "byteLength": 39252,
      "byteOffset": 0,
      "target": 34962
    },
    {
      "buffer": 0,
      "byteLength": 39252,
      "byteOffset": 39252,
      "target": 34962
    },
    {
      "buffer": 0,
      "byteLength": 26168,
      "byteOffset": 78504,
      "target": 34962
    },
    {
      "buffer": 0,
      "byteLength": 20136,
      "byteOffset": 104672,
      "target": 34963
    }
  ],
  "samplers": [
    {
      "magFilter": 9729,
      "minFilter": 9987
    }
  ],
  "buffers": [
    {
      "byteLength": 124808,
      "uri": "plastic_monobloc_chair_01.bin"
    }
  ]
}
