{
	"asset":{
		"generator":"Khronos glTF Blender I/O v4.0.44",
		"version":"2.0"
	},
	"scene":0,
	"scenes":[
		{
			"name":"Scene",
			"nodes":[
				26
			]
		}
	],
	"nodes":[
		{
			"name":"LeftThumbTip",
			"rotation":[
				-0.001300050993449986,
				-0.009501079097390175,
				-0.028294457122683525,
				0.9995536208152771
			],
			"scale":[
				1,
				0.9999999403953552,
				1.0000001192092896
			],
			"translation":[
				-2.7939677238464355e-09,
				0.030749443918466568,
				-2.7939677238464355e-09
			]
		},
		{
			"children":[
				0
			],
			"name":"LeftThumbDistal",
			"rotation":[
				-0.005640584509819746,
				0.011601205915212631,
				0.028976770117878914,
				0.9994968771934509
			],
			"scale":[
				1,
				1.0000001192092896,
				1
			],
			"translation":[
				4.6566128730773926e-09,
				0.04214790090918541,
				1.862645149230957e-09
			]
		},
		{
			"children":[
				1
			],
			"name":"LeftThumbProximal",
			"rotation":[
				0.0857066959142685,
				-0.027135683223605156,
				0.020723098888993263,
				0.9957351684570312
			],
			"scale":[
				1,
				1,
				0.9999998807907104
			],
			"translation":[
				-2.7939677238464355e-09,
				0.04491649195551872,
				4.656612873077393e-10
			]
		},
		{
			"children":[
				2
			],
			"name":"LeftThumbMetacarpal",
			"rotation":[
				-0.09866384416818619,
				0.3619273900985718,
				0.3093259632587433,
				0.8738372325897217
			],
			"scale":[
				0.9999999403953552,
				1,
				0.9999999403953552
			],
			"translation":[
				-0.019999975338578224,
				0.02717285417020321,
				0.009999998845160007
			]
		},
		{
			"name":"LeftIndexTip",
			"rotation":[
				0.10513854771852493,
				0.002554001985117793,
				-0.05383634194731712,
				0.9929959774017334
			],
			"translation":[
				-6.402842700481415e-10,
				0.02712245285511017,
				-1.6589183360338211e-09
			]
		},
		{
			"children":[
				4
			],
			"name":"LeftIndexDistal",
			"rotation":[
				0.006294804625213146,
				-0.014059717766940594,
				0.011407645419239998,
				0.9998162984848022
			],
			"scale":[
				0.9999999403953552,
				0.9999998807907104,
				0.9999999403953552
			],
			"translation":[
				-8.731149137020111e-11,
				0.030106855556368828,
				-1.862645149230957e-09
			]
		},
		{
			"children":[
				5
			],
			"name":"LeftIndexIntermediate",
			"rotation":[
				0.1859731674194336,
				-0.02551458030939102,
				-0.010402532294392586,
				0.982168436050415
			],
			"scale":[
				1,
				0.9999999403953552,
				1.0000001192092896
			],
			"translation":[
				1.1641532182693481e-09,
				0.03811633959412575,
				3.4924596548080444e-10
			]
		},
		{
			"children":[
				6
			],
			"name":"LeftIndexProximal",
			"rotation":[
				-0.07441822439432144,
				0.002075796714052558,
				0.11123824119567871,
				0.9910013675689697
			],
			"translation":[
				4.3306158659106586e-10,
				0.08036758750677109,
				-2.1805135475005955e-10
			]
		},
		{
			"children":[
				7
			],
			"name":"LeftIndexMetacarpal",
			"rotation":[
				-0.0252196304500103,
				2.1154794012545608e-05,
				-0.0005887916195206344,
				0.9996817708015442
			],
			"scale":[
				0.9999999403953552,
				1,
				1
			],
			"translation":[
				-0.022405147552490234,
				0.02717723324894905,
				-0.010000002570450306
			]
		},
		{
			"name":"LeftMiddleTip",
			"rotation":[
				0.1568938046693802,
				0.0025405443739145994,
				0.010807150974869728,
				0.987553060054779
			],
			"scale":[
				1,
				1.0000001192092896,
				1
			],
			"translation":[
				6.366462912410498e-10,
				0.028246993198990822,
				4.3537511373870075e-09
			]
		},
		{
			"children":[
				9
			],
			"name":"LeftMiddleDistal",
			"rotation":[
				-0.03076975606381893,
				-0.001283689751289785,
				-0.011195655912160873,
				0.9994630217552185
			],
			"scale":[
				0.9999998807907104,
				1.0000001192092896,
				0.9999998807907104
			],
			"translation":[
				1.1095835361629725e-10,
				0.03174003213644028,
				1.0500116331968457e-09
			]
		},
		{
			"children":[
				10
			],
			"name":"LeftMiddleIntermediate",
			"rotation":[
				0.07791730761528015,
				0.005997773725539446,
				0.03916316106915474,
				0.996172308921814
			],
			"translation":[
				2.473825588822365e-10,
				0.04500338435173035,
				4.145476850681007e-09
			]
		},
		{
			"children":[
				11
			],
			"name":"LeftMiddleProximal",
			"rotation":[
				0.05410468578338623,
				0.00044474273454397917,
				-0.011977387592196465,
				0.9984633922576904
			],
			"scale":[
				1,
				0.9999999403953552,
				1
			],
			"translation":[
				-1.8189894035458565e-10,
				0.08046326786279678,
				-2.045908331638202e-09
			]
		},
		{
			"children":[
				12
			],
			"name":"LeftMiddleMetacarpal",
			"rotation":[
				-0.049977608025074005,
				4.1883933590725064e-05,
				-0.03585462272167206,
				0.9981065392494202
			],
			"scale":[
				1,
				0.9999998807907104,
				1
			],
			"translation":[
				-0.0035275882109999657,
				0.02714575082063675,
				-0.010000000707805157
			]
		},
		{
			"name":"LeftRingTip",
			"rotation":[
				0.13524393737316132,
				-0.008499672636389732,
				0.026296839118003845,
				0.9904268383979797
			],
			"scale":[
				0.9999999403953552,
				1.0000001192092896,
				1.0000001192092896
			],
			"translation":[
				-3.245077095925808e-09,
				0.0329010896384716,
				-1.7462298274040222e-09
			]
		},
		{
			"children":[
				14
			],
			"name":"LeftRingDistal",
			"rotation":[
				-0.011438504792749882,
				0.013675450347363949,
				-0.0019264306174591184,
				0.9998392462730408
			],
			"scale":[
				1.0000001192092896,
				1.0000001192092896,
				1
			],
			"translation":[
				3.2014213502407074e-10,
				0.027040131390094757,
				-1.7462298274040222e-09
			]
		},
		{
			"children":[
				15
			],
			"name":"LeftRingIntermediate",
			"rotation":[
				0.09900747239589691,
				0.019192615523934364,
				0.014731669798493385,
				0.9947925209999084
			],
			"scale":[
				1,
				0.9999999403953552,
				1
			],
			"translation":[
				-3.798049874603748e-09,
				0.04013120383024216,
				-1.7898855730891228e-09
			]
		},
		{
			"children":[
				16
			],
			"name":"LeftRingProximal",
			"rotation":[
				0.001759529230184853,
				-0.004247802309691906,
				-0.05091992765665054,
				0.9986922144889832
			],
			"scale":[
				0.9999999403953552,
				1,
				1
			],
			"translation":[
				1.7316779121756554e-09,
				0.0739438533782959,
				8.585629984736443e-10
			]
		},
		{
			"children":[
				17
			],
			"name":"LeftRingMetacarpal",
			"rotation":[
				-0.018085606396198273,
				1.561214230605401e-05,
				-0.07119491696357727,
				0.9972984790802002
			],
			"scale":[
				0.9999998807907104,
				0.9999999403953552,
				1
			],
			"translation":[
				0.013099989853799343,
				0.027118019759655,
				-0.010000001639127731
			]
		},
		{
			"name":"LeftLittleTip",
			"rotation":[
				0.03595229610800743,
				-0.020332874730229378,
				0.013369254767894745,
				0.9990572333335876
			],
			"scale":[
				0.9999999403953552,
				0.9999997615814209,
				0.9999999403953552
			],
			"translation":[
				-5.820766091346741e-10,
				0.01958998665213585,
				8.381903171539307e-09
			]
		},
		{
			"children":[
				19
			],
			"name":"LeftLittleDistal",
			"rotation":[
				0.01741550862789154,
				0.014375297352671623,
				-0.012779458425939083,
				0.9996633529663086
			],
			"scale":[
				1,
				1,
				0.9999999403953552
			],
			"translation":[
				-1.04046193882823e-09,
				0.01730157621204853,
				3.14321368932724e-09
			]
		},
		{
			"children":[
				20
			],
			"name":"LeftLittleIntermediate",
			"rotation":[
				0.1067298874258995,
				0.03360109031200409,
				0.04032363370060921,
				0.9929016828536987
			],
			"scale":[
				1,
				0.9999999403953552,
				0.9999999403953552
			],
			"translation":[
				2.0718289306387305e-09,
				0.033123549073934555,
				0
			]
		},
		{
			"children":[
				21
			],
			"name":"LeftLittleProximal",
			"rotation":[
				0.050176676362752914,
				-0.0007295551477000117,
				-0.08933921158313751,
				0.9947363138198853
			],
			"scale":[
				0.9999999403953552,
				1,
				1
			],
			"translation":[
				3.3651303965598345e-10,
				0.06571119278669357,
				-3.637978807091713e-10
			]
		},
		{
			"children":[
				22
			],
			"name":"LeftLittleMetacarpal",
			"rotation":[
				-0.028447696939110756,
				2.468071943440009e-05,
				-0.09176953136920929,
				0.9953738451004028
			],
			"scale":[
				0.9999999403953552,
				0.9999999403953552,
				1
			],
			"translation":[
				0.029999960213899612,
				0.027089649811387062,
				8.651588889740935e-10
			]
		},
		{
			"children":[
				3,
				8,
				13,
				18,
				23
			],
			"name":"LeftHand",
			"rotation":[
				-0.4995875358581543,
				0.5004213452339172,
				-0.4995783269405365,
				0.5004121661186218
			],
			"scale":[
				0.9999999403953552,
				0.9999997615814209,
				0.9999999403953552
			],
			"translation":[
				3.8642522071086205e-08,
				-1.8697472114581615e-05,
				0.027175573632121086
			]
		},
		{
			"mesh":0,
			"name":"LeftHandHumanoidMesh",
			"skin":0
		},
		{
			"children":[
				25,
				24
			],
			"name":"LeftHandHumanoid"
		}
	],
	"materials":[
		{
			"doubleSided":true,
			"name":"Hand",
			"pbrMetallicRoughness":{
				"baseColorTexture":{
					"index":0
				},
				"metallicFactor":0,
				"roughnessFactor":0.5
			}
		}
	],
	"meshes":[
		{
			"name":"LeftHandHumanoid",
			"primitives":[
				{
					"attributes":{
						"POSITION":0,
						"NORMAL":1,
						"TEXCOORD_0":2,
						"JOINTS_0":3,
						"WEIGHTS_0":4
					},
					"indices":5,
					"material":0
				}
			]
		}
	],
	"textures":[
		{
			"sampler":0,
			"source":0
		}
	],
	"images":[
		{
			"mimeType":"image/png",
			"name":"hand",
			"uri":"hand.png"
		}
	],
	"skins":[
		{
			"inverseBindMatrices":6,
			"joints":[
				24,
				3,
				2,
				1,
				0,
				8,
				7,
				6,
				5,
				4,
				13,
				12,
				11,
				10,
				9,
				18,
				17,
				16,
				15,
				14,
				23,
				22,
				21,
				20,
				19
			],
			"name":"LeftHandHumanoid"
		}
	],
	"accessors":[
		{
			"bufferView":0,
			"componentType":5126,
			"count":603,
			"max":[
				0.03515051305294037,
				0.09001174569129944,
				0.02576880156993866
			],
			"min":[
				-0.029946302995085716,
				-0.06838366389274597,
				-0.18542321026325226
			],
			"type":"VEC3"
		},
		{
			"bufferView":1,
			"componentType":5126,
			"count":603,
			"type":"VEC3"
		},
		{
			"bufferView":2,
			"componentType":5126,
			"count":603,
			"type":"VEC2"
		},
		{
			"bufferView":3,
			"componentType":5121,
			"count":603,
			"type":"VEC4"
		},
		{
			"bufferView":4,
			"componentType":5126,
			"count":603,
			"type":"VEC4"
		},
		{
			"bufferView":5,
			"componentType":5123,
			"count":2814,
			"type":"SCALAR"
		},
		{
			"bufferView":6,
			"componentType":5126,
			"count":25,
			"type":"MAT4"
		}
	],
	"bufferViews":[
		{
			"buffer":0,
			"byteLength":7236,
			"byteOffset":0,
			"target":34962
		},
		{
			"buffer":0,
			"byteLength":7236,
			"byteOffset":7236,
			"target":34962
		},
		{
			"buffer":0,
			"byteLength":4824,
			"byteOffset":14472,
			"target":34962
		},
		{
			"buffer":0,
			"byteLength":2412,
			"byteOffset":19296,
			"target":34962
		},
		{
			"buffer":0,
			"byteLength":9648,
			"byteOffset":21708,
			"target":34962
		},
		{
			"buffer":0,
			"byteLength":5628,
			"byteOffset":31356,
			"target":34963
		},
		{
			"buffer":0,
			"byteLength":1600,
			"byteOffset":36984
		}
	],
	"samplers":[
		{
			"magFilter":9729,
			"minFilter":9987
		}
	],
	"buffers":[
		{
			"byteLength":38584,
			"uri":"LeftHandHumanoid.bin"
		}
	]
}
