<svg height="128" width="128" xmlns="http://www.w3.org/2000/svg"><path d="m15.999738 8a7.9997377 7.9997377 0 0 0 -7.999738 7.999738v67.99777c11.999607 3.999869 7.999738-7.999738 15.999475-7.999738v-51.998295h79.997375v17.599423a19.319367 19.319367 0 0 1 15.99948 3.999869v-29.599029a7.9997377 7.9997377 0 0 0 -7.99974-7.999738zm10.879643 81.43733c-2.263926 1.351955-4.127865 3.727878-5.159831 6.919773-3.327891 10.215667-19.3353659-7.519754-7.567752 16.071477 3.719878 7.44775 15.295499 9.61568 22.679257 5.78381a15.375496 15.375496 0 0 0 6.639782-20.439334c-4.623848-9.263696-11.59962-11.287629-16.591456-8.327726zm17.775417-5.599817 10.175666 19.959347 56.550146-28.815056a11.319629 11.319629 0 0 0 -10.07167-20.271336zm27.343104-43.838562v7.999737h-7.999738v7.999738h-15.999476v7.999738h-7.999737v7.999738h-7.999738v7.999737h1.999935l53.998229-27.783089v-4.215862h-7.999738v-7.999737z" fill="#808080" stroke-width=".999999"/></svg>
