<svg height="128" viewBox="0 0 128 128" width="128" xmlns="http://www.w3.org/2000/svg"><g fill="#e0e0e0"><path d="m58.451552 10.275976-8.512104 1.244593 3.104124 7.208414 6.504414-.948276zm-16.017138 2.333631-7.504655 1.096435 3.104124 7.21562 7.504655-1.096434zm-15.016897 2.192869-7.504655 1.096435 3.104124 7.21562 7.504655-1.096434zm-15.00931 2.192869-6.5044139.948276 1.0964345 7.504655 8.5121034-1.244593zm-5.408207 12.246034v22.758621c0 4.189862 3.396459 7.586207 7.586207 7.586207h45.517241v-30.344828z" stroke-width="3.7931"/><path d="m119.1431 70.965745-8.5121 1.244593 3.10412 7.208414 6.50441-.948276zm-16.01714 2.333631-7.50465 1.096434 3.104122 7.215621 7.504658-1.096434zm-15.016891 2.192869-7.504655 1.096434 3.104124 7.215621 7.504655-1.096434zm-15.00931 2.192869-6.504414.948276 1.096434 7.504655 8.512104-1.244593zm-5.408207 12.246034v22.758622c0 4.18987 3.396458 7.58621 7.586207 7.58621h45.517241v-30.344832z" stroke-width="3.7931"/><path d="m63.898448 25.44839v-7.586207c15.172414 0 34.137931 7.586207 34.137931 37.931034h11.379311l-15.172414 15.172414-15.172414-15.172414h11.37931c0-15.172413-7.586207-30.344827-26.551724-30.344827"/></g></svg>
