# Blender v2.79 (sub 0) OBJ File: 'Fish2.blend'
# www.blender.org
mtllib fish2.mtl
o Fish2_Fish
v 0.187537 -1.189665 1.935193
v 0.196340 1.729075 1.682788
v 0.201902 -1.734539 -2.717623
v 0.270322 2.340888 -2.872534
v 0.345303 0.300864 -2.814292
v 0.343925 2.710277 -0.895533
v 0.374979 -1.960650 -0.672135
v 0.403498 0.178782 -0.713915
v -0.015289 1.008354 -4.273820
v 0.013763 0.244025 -4.326381
v -0.037319 -1.113054 -4.208373
v 0.262409 2.498313 0.481384
v 0.236999 -1.768088 0.541984
v 0.359992 0.027666 0.512532
v -0.186333 0.557062 -4.794453
v -0.115965 0.239695 -4.858975
v -0.192739 -0.324053 -4.745182
v -0.695187 0.847127 -5.972295
v -0.764530 -0.108454 -6.236428
v -0.590046 -0.902810 -5.736067
v -0.369160 -0.729876 -5.261720
v -0.445892 0.065678 -5.563745
v -0.438504 0.654539 -5.430417
v -0.723665 -0.624089 -6.048893
v -0.781719 0.437672 -6.182879
v 0.351916 0.018480 0.740142
v 0.283952 1.138454 1.075503
v 0.307795 -0.450744 0.826333
v 0.236728 -1.764927 0.549598
v 0.406011 -0.021746 1.951222
v 0.272117 -1.255831 2.083317
v 0.281122 1.767256 1.825052
v 0.254818 0.979532 2.546645
v 0.305905 -0.190840 2.760791
v 0.235315 -0.267095 3.098172
v 0.228080 0.033128 3.301657
v 0.240362 -0.486171 2.956266
v 0.240403 0.245198 2.954015
v 0.228541 -0.140035 3.288907
v 0.226440 -0.337883 3.348430
v 0.226636 -0.192013 3.342681
v 0.445506 0.024702 0.838002
v 0.373756 1.210761 1.186430
v 0.398814 -0.472370 0.928067
v 0.285004 -1.268466 0.101243
v 0.328245 -1.224925 -0.202429
v 0.327964 -0.589813 -0.048050
v 0.314038 -0.777275 0.186928
v 0.500914 -1.195520 -0.363058
v 0.488350 -1.217523 -0.099608
v 0.518154 -0.661915 0.058528
v 0.522211 -0.279396 -0.406032
v 0.688220 -0.282754 -0.390184
v 0.665208 -1.199275 -0.346468
v 0.737221 -0.148607 -0.822175
v 0.710638 -1.215459 -0.799417
v 0.572199 -0.144902 -0.838792
v 0.546377 -1.211694 -0.816027
v 0.780671 -0.158856 -1.252486
v 0.745236 -1.096896 -1.114691
v 0.616410 -0.155091 -1.269096
v 0.580975 -1.093131 -1.131300
v 0.177806 2.760108 -0.896894
v -0.119396 1.062703 -4.263313
v 0.099880 2.398255 -2.858976
v 0.081099 2.553250 0.475270
v 0.136050 3.183467 -2.644180
v 0.189602 3.145230 -1.293884
v -0.137365 1.555580 -4.642720
v 0.070168 2.732790 -3.234324
v 0.020036 3.053263 -3.786815
v -0.126270 2.182384 -4.866069
v -0.041189 2.761203 -4.232827
v -0.181967 2.407927 -5.385730
v -0.134171 2.890005 -5.041447
v -0.241087 2.549801 -5.958028
v -0.230757 2.793058 -5.900339
v -0.314515 2.458324 -6.631450
v 0.037851 -1.797886 -2.694499
v -0.135769 -1.179975 -4.192826
v 0.216443 -2.018437 -0.661796
v 0.073130 -2.587279 -2.339876
v -0.138054 -1.723477 -4.106491
v -0.011946 -2.131886 -3.048891
v -0.044561 -2.772764 -3.227119
v -0.183797 -2.215703 -4.408358
v -0.096865 -2.456262 -3.684541
v -0.254125 -2.349545 -4.951995
v -0.226008 -2.778880 -4.673009
v -0.328455 -2.409588 -5.536963
v -0.328497 -2.614805 -5.511103
v -0.408358 -2.268267 -6.192067
v 0.295671 -1.821865 0.202961
v 0.151881 -2.481863 0.190244
v 0.154851 -2.155951 0.024383
v 0.177414 -2.810225 -0.253580
v 0.180939 -2.313767 -0.504750
v 0.200160 -2.603990 -0.722323
v 0.201205 -2.903679 -0.947069
v 0.110599 -1.860497 0.539090
v 0.133873 -1.927669 0.191275
v -0.324142 -1.189692 1.917038
v -0.315340 1.729048 1.664634
v -0.305915 -1.726411 -2.653958
v -0.238412 2.347271 -2.826383
v -0.062807 1.756196 1.766887
v -0.073334 -1.236185 2.068009
v -0.404657 0.312872 -2.720230
v -0.166759 2.712456 -0.891550
v -0.129793 -1.956077 -0.644017
v 0.126775 -2.069982 -0.654452
v -0.351959 0.178742 -0.740719
v -0.393038 1.014403 -4.226287
v -0.458677 0.251590 -4.267126
v -0.414221 -1.107015 -4.158535
v -0.249067 2.498739 0.467780
v 0.000843 2.609604 0.470495
v -0.004973 -1.885722 0.536876
v -0.272744 -1.768107 0.523953
v -0.395465 0.027627 0.485728
v -0.273641 0.699470 -4.777119
v -0.364299 0.559939 -4.756111
v -0.460977 0.245312 -4.760652
v -0.373638 -0.321144 -4.715208
v -0.283807 -0.476862 -4.720518
v -0.802871 0.963051 -5.918433
v -0.918390 0.850833 -5.866273
v -1.138846 -0.102228 -6.052459
v -0.822951 -0.898950 -5.629938
v -0.703870 -1.006994 -5.673364
v -0.973815 -0.096993 -6.189748
v -0.535507 0.777722 -5.387201
v -0.472515 -0.849726 -5.210781
v -0.571484 -0.726542 -5.180530
v -0.796261 0.071506 -5.391545
v -0.634585 0.657783 -5.344269
v -1.019701 -0.619168 -5.904981
v -0.916203 -0.655130 -6.060687
v -0.946204 0.424147 -6.151205
v -1.071336 0.442489 -6.040538
v -0.403540 0.018440 0.713338
v -0.359631 1.138420 1.052669
v -0.365589 -0.450779 0.802441
v 0.047429 -2.808855 -0.255915
v -0.273697 -1.764949 0.531523
v -0.543325 -0.021795 1.917540
v -0.419000 -1.255867 2.058796
v -0.078683 -1.305210 2.218860
v -0.409995 1.767220 1.800531
v -0.067911 1.794358 1.910677
v -0.089791 1.133429 2.528345
v -0.434815 0.979495 2.522177
v -0.500827 -0.190882 2.732168
v -0.454318 -0.267131 3.073704
v -0.461553 0.033091 3.277189
v -0.104654 -0.633934 2.949854
v -0.449272 -0.486207 2.931798
v -0.449230 0.245161 2.929547
v -0.104206 0.399096 2.935715
v -0.116712 0.051280 3.288706
v -0.461092 -0.140072 3.264439
v -0.116251 -0.121883 3.275956
v -0.109294 -0.113197 3.079872
v -0.118436 -0.382221 3.337942
v -0.463193 -0.337919 3.323962
v -0.118240 -0.236351 3.332193
v -0.462997 -0.192049 3.318213
v -0.110976 -0.261048 3.127482
v -0.503830 0.024652 0.804320
v -0.457078 1.210718 1.156952
v -0.463587 -0.472415 0.897469
v -0.291383 -1.268496 0.080793
v -0.250653 -1.223871 -0.212182
v -0.323724 -0.589847 -0.071172
v -0.326467 -0.777309 0.164202
v -0.472606 -1.197089 -0.393972
v -0.474789 -1.219666 -0.127975
v -0.517096 -0.663734 0.026704
v -0.494184 -0.280896 -0.438913
v -0.661361 -0.284907 -0.432541
v -0.637771 -1.201541 -0.386535
v -0.686763 -0.151234 -0.866188
v -0.658060 -1.217996 -0.841295
v -0.520744 -0.146866 -0.873483
v -0.493151 -1.213505 -0.848814
v -0.707646 -0.161784 -1.297960
v -0.675727 -1.099636 -1.158044
v -0.542737 -0.157293 -1.305480
v -0.510818 -1.095145 -1.165564
v 0.013065 2.760895 -0.894779
v -0.283057 1.065321 -4.242199
v -0.064268 2.400281 -2.844419
v -0.083954 2.553337 0.470373
v -0.216111 2.891153 -5.032811
v 0.053866 3.184318 -2.638525
v -0.028263 3.185169 -2.632871
v -0.219488 1.556815 -4.633087
v 0.107210 3.145752 -1.291533
v 0.024984 3.146273 -1.289192
v -0.301190 1.558049 -4.623354
v -0.093974 2.734825 -3.219677
v -0.062064 3.054307 -3.779232
v -0.144101 3.055350 -3.771652
v -0.208346 2.183535 -4.857407
v -0.290314 2.184685 -4.848749
v -0.205253 2.763422 -4.216333
v -0.323105 2.550962 -5.949267
v -0.312750 2.794217 -5.891593
v -0.263945 2.409088 -5.376969
v -0.346002 2.410249 -5.368206
v -0.298214 2.892302 -5.024167
v -0.405121 2.552123 -5.940505
v -0.394792 2.795377 -5.882847
v -0.396525 2.459485 -6.622685
v -0.478548 2.460647 -6.613919
v -0.142703 -1.794996 -2.671863
v -0.316592 -1.177077 -4.168823
v 0.036478 -2.016735 -0.651048
v -0.316661 -2.777429 -4.661638
v -0.017536 -2.585876 -2.328994
v -0.108231 -2.584473 -2.318109
v -0.228707 -1.722026 -4.095121
v -0.319361 -1.720574 -4.083751
v -0.193252 -2.128983 -3.026151
v -0.135214 -2.771312 -3.215750
v -0.225868 -2.769861 -3.204380
v -0.274450 -2.214251 -4.396988
v -0.365103 -2.212800 -4.385617
v -0.278171 -2.453359 -3.661801
v -0.419108 -2.408136 -5.525594
v -0.419150 -2.613354 -5.499732
v -0.344778 -2.348093 -4.940625
v -0.435431 -2.346642 -4.929255
v -0.407314 -2.775977 -4.650269
v -0.509761 -2.406685 -5.514223
v -0.509804 -2.611902 -5.488362
v -0.499011 -2.266816 -6.180696
v -0.589664 -2.265364 -6.169327
v -0.213113 -1.820651 0.197314
v 0.049807 -1.941107 0.178794
v 0.047602 -2.149844 -0.002114
v 0.044095 -2.481217 0.187771
v 0.051159 -2.296840 -0.526236
v -0.063164 -2.481294 0.188436
v -0.060263 -2.155373 0.022662
v -0.082567 -2.809532 -0.255730
v -0.079045 -2.313071 -0.506873
v -0.096350 -2.603199 -0.724759
v 0.052120 -2.587015 -0.743965
v 0.052962 -2.902260 -0.949549
v -0.095305 -2.902887 -0.949506
v -0.117033 -1.860357 0.532533
v -0.039515 -1.927194 0.189982
vn 0.0131 0.9652 -0.2613
vn 0.7134 -0.1901 -0.6745
vn -0.0341 -0.9140 -0.4043
vn 0.3174 -0.8026 -0.5051
vn 0.4068 0.7006 -0.5862
vn 0.6805 0.2459 -0.6902
vn 0.3171 -0.6998 0.6401
vn 0.2404 0.6546 0.7167
vn 0.9891 0.0735 0.1276
vn 0.9879 -0.1043 0.1146
vn 0.9896 0.1048 0.0990
vn 0.9832 0.0735 0.1673
vn 0.1666 0.4758 0.8636
vn 0.1636 0.7679 0.6194
vn -0.0413 -0.0735 0.9964
vn -0.2445 -0.9296 0.2758
vn 0.2292 -0.8629 0.4505
vn -0.0354 0.0394 0.9986
vn 0.9852 -0.0792 0.1519
vn -0.0599 0.9740 -0.2185
vn 0.0856 0.3045 0.9487
vn 0.9994 0.0001 0.0355
vn 0.9784 -0.0960 0.1830
vn 0.9941 0.0750 0.0789
vn 0.9939 -0.1037 0.0387
vn 0.9956 -0.0878 0.0317
vn 0.9981 0.0494 0.0375
vn 0.0053 0.9652 -0.2615
vn -0.6638 -0.1901 -0.7234
vn 0.0627 -0.9140 -0.4008
vn -0.2807 -0.8026 -0.5263
vn -0.3643 0.7006 -0.6136
vn -0.6299 0.2458 -0.7367
vn -0.3616 -0.6998 0.6160
vn -0.2906 0.6546 0.6979
vn -0.9957 0.0734 0.0572
vn -0.9935 -0.1044 0.0443
vn -0.9941 0.1047 0.0286
vn -0.9925 0.0734 0.0972
vn -0.2275 0.4758 0.8496
vn -0.2071 0.7678 0.6062
vn -0.0294 -0.0735 0.9969
vn 0.2244 -0.9296 0.2924
vn -0.2605 -0.8629 0.4331
vn -0.9935 -0.0793 0.0817
vn 0.0751 0.9740 -0.2137
vn -0.1527 0.3045 0.9402
vn -0.9994 -0.0001 -0.0355
vn -0.9889 -0.0961 0.1132
vn -0.9972 0.0749 0.0082
vn -0.9941 -0.1038 -0.0319
vn -0.9954 -0.0879 -0.0390
vn -0.9982 0.0493 -0.0334
vn -0.0975 0.5269 -0.8443
vn 0.9947 0.0351 -0.0968
vn -0.0122 -0.9910 0.1332
vn 0.1018 0.5706 -0.8149
vn -0.0227 0.1586 -0.9871
vn -0.0188 -0.8043 0.5939
vn 0.1248 -0.9845 -0.1234
vn -0.0514 0.7822 0.6210
vn -0.0547 0.7711 0.6344
vn -0.0086 0.9552 0.2958
vn -0.8308 0.0511 -0.5543
vn 0.6644 -0.2048 0.7188
vn 0.0411 -0.9958 -0.0812
vn 0.9073 -0.0648 0.4155
vn 0.0140 -0.9364 -0.3506
vn -0.9943 0.0202 -0.1045
vn 0.9944 -0.0214 0.1033
vn -0.0262 -0.9991 0.0331
vn 0.0961 -0.1482 -0.9843
vn 0.9946 -0.0227 0.1008
vn 0.0248 0.9995 -0.0212
vn -0.9945 0.0222 -0.1019
vn 0.9928 -0.0442 -0.1112
vn 0.3101 0.9000 0.3064
vn 0.9998 -0.0157 0.0144
vn 0.9935 -0.0436 -0.1049
vn 0.9942 -0.0245 -0.1044
vn 0.0097 0.9996 0.0281
vn 0.9983 0.0366 -0.0464
vn -0.0546 -0.9181 -0.3927
vn 0.9931 -0.0176 -0.1159
vn -0.1092 -0.3326 -0.9367
vn 0.0023 0.9935 -0.1135
vn 0.9952 -0.0868 -0.0448
vn 0.0021 0.9937 -0.1124
vn 0.0004 -0.9909 0.1346
vn 0.9939 -0.0194 -0.1087
vn 0.9926 -0.0272 -0.1185
vn 0.0005 0.9916 -0.1291
vn -0.0390 -0.9708 -0.2366
vn 0.9942 -0.0171 -0.1061
vn -0.0312 0.9101 -0.4131
vn 0.9951 -0.0348 -0.0923
vn 0.9920 -0.0208 -0.1247
vn 0.9921 -0.0159 -0.1244
vn 0.9918 -0.0152 -0.1269
vn 0.9944 -0.0498 -0.0928
vn -0.0142 0.9713 -0.2373
vn 0.0096 -0.9790 0.2034
vn 0.2832 -0.9193 0.2731
vn -0.0392 -0.9815 -0.1874
vn 0.0415 0.9777 0.2059
vn -0.0152 -0.9999 0.0061
vn 0.0031 0.9947 -0.1025
vn -0.0702 -0.8923 -0.4459
vn 0.9892 -0.0270 -0.1439
vn 0.1722 -0.4190 -0.8915
vn 0.9989 0.0151 0.0454
vn 0.9972 0.0323 0.0672
vn 0.0363 -0.4952 0.8680
vn 0.1937 0.5929 -0.7816
vn 0.1473 0.9512 -0.2711
vn 0.9980 0.0224 0.0583
vn 0.9990 -0.0247 0.0376
vn 0.1336 0.6206 -0.7726
vn -0.9946 -0.0336 0.0978
vn 0.0048 -0.9911 0.1334
vn -0.0853 0.5711 -0.8164
vn -0.2957 0.1592 -0.9419
vn 0.0047 -0.8044 0.5941
vn -0.0789 -0.9838 -0.1608
vn 0.0165 0.7820 0.6230
vn 0.0170 0.7719 0.6355
vn -0.0119 0.9553 0.2953
vn 0.8346 0.0847 -0.5443
vn -0.7114 -0.2054 0.6721
vn -0.0193 -0.9962 -0.0847
vn -0.9303 -0.0682 0.3605
vn 0.0095 -0.9365 -0.3505
vn 0.9985 0.0230 -0.0498
vn -0.9985 -0.0246 0.0481
vn 0.0286 -0.9990 0.0348
vn -0.0410 -0.1488 -0.9880
vn -0.9985 -0.0263 0.0476
vn -0.0278 0.9994 -0.0229
vn 0.9985 0.0256 -0.0492
vn -0.9928 0.0443 0.1112
vn -0.3012 0.9132 0.2744
vn -0.9998 0.0159 -0.0147
vn -0.9935 0.0436 0.1050
vn -0.9942 0.0246 0.1046
vn 0.0097 0.9995 0.0284
vn -0.9983 -0.0366 0.0464
vn -0.0546 -0.9180 -0.3927
vn -0.9931 0.0177 0.1159
vn -0.1101 -0.3340 -0.9361
vn -0.9952 0.0868 0.0448
vn -0.9939 0.0194 0.1087
vn -0.9926 0.0273 0.1186
vn -0.9942 0.0171 0.1061
vn -0.9928 0.0482 0.1095
vn -0.9919 0.0218 0.1253
vn -0.9921 0.0159 0.1244
vn -0.9918 0.0152 0.1269
vn -0.9943 0.0510 0.0938
vn 0.0096 -0.9790 0.2035
vn -0.2509 -0.9142 0.3182
vn -0.9887 0.0281 0.1472
vn -0.4256 -0.4027 -0.8104
vn -0.9994 0.0221 0.0282
vn -0.9899 0.0426 -0.1349
vn -0.0720 -0.4984 0.8639
vn -0.1777 0.5940 -0.7846
vn -0.1377 0.9520 -0.2733
vn -0.9987 0.0282 0.0418
vn -0.9996 -0.0192 0.0209
vn -0.1147 0.6228 -0.7739
vn 0.9957 -0.0672 0.0632
vn 0.2921 0.9382 -0.1854
vn 0.9944 0.0550 0.0899
vn 0.9990 0.0276 -0.0340
vn 0.2817 0.9457 0.1623
vn 0.9973 -0.0430 -0.0592
vn 0.9394 0.1211 -0.3206
vn 0.2189 0.6871 -0.6928
vn 0.9741 0.0357 -0.2234
vn 0.9776 -0.0686 -0.1987
vn 0.2879 0.7994 0.5274
vn 0.9980 0.0336 0.0526
vn 0.9854 0.0489 0.1628
vn 0.9401 -0.1018 -0.3254
vn -0.0689 -0.2879 -0.9552
vn -0.2049 0.0861 -0.9750
vn 0.9086 -0.0773 -0.4104
vn 0.8941 0.0715 -0.4420
vn 0.6941 -0.7150 -0.0831
vn 0.7298 0.6732 -0.1193
vn 0.9037 0.1503 -0.4009
vn 0.9352 -0.1036 -0.3386
vn 0.9070 -0.0609 -0.4167
vn 0.1842 -0.6833 -0.7065
vn -0.1128 0.4431 -0.8893
vn 0.9010 0.0631 -0.4292
vn 0.9958 -0.0705 0.0582
vn 0.9977 0.0415 0.0528
vn 0.9975 -0.0657 0.0251
vn 0.3597 -0.8433 -0.3993
vn 0.3366 -0.9325 -0.1312
vn 0.7725 0.5898 -0.2355
vn 0.2844 0.6762 -0.6796
vn 0.8239 -0.5520 0.1281
vn 0.2218 -0.5183 -0.8260
vn 0.4136 -0.8968 0.1572
vn 0.9962 -0.0237 0.0843
vn 0.5471 -0.8108 0.2081
vn 0.3707 -0.8476 0.3796
vn -0.9976 -0.0681 -0.0080
vn -0.2809 0.9453 -0.1659
vn -0.9969 0.0792 -0.0043
vn -0.9966 0.0782 0.0270
vn -0.2836 0.9503 0.1283
vn -0.9959 -0.0746 0.0503
vn -0.9839 0.1522 -0.0939
vn -0.3326 0.7043 -0.6272
vn -0.9960 0.0833 0.0311
vn -0.9982 -0.0397 0.0458
vn -0.3260 0.8025 0.4997
vn -0.9971 0.0647 -0.0394
vn -0.9739 -0.1698 -0.1505
vn -0.9929 -0.0753 -0.0921
vn -0.7220 -0.2813 -0.6322
vn -0.6444 0.0934 -0.7590
vn -0.8784 -0.0675 0.4731
vn -0.8939 0.1012 0.4367
vn -0.5310 -0.6672 0.5223
vn -0.5138 0.6860 0.5153
vn -0.8777 0.2274 0.4218
vn -0.8702 -0.1087 0.4806
vn -0.8526 -0.1024 0.5124
vn -0.6731 -0.6966 -0.2486
vn -0.6133 0.4659 -0.6378
vn -0.8577 0.1627 0.4877
vn -0.9973 -0.0712 -0.0152
vn -0.9972 0.0572 -0.0491
vn -0.9968 -0.0665 -0.0434
vn -0.4730 -0.8294 -0.2974
vn -0.3689 -0.9267 -0.0713
vn -0.6920 0.6036 0.3960
vn -0.4043 0.6833 -0.6080
vn -0.5978 -0.4860 0.6376
vn -0.4399 -0.5038 -0.7434
vn -0.4061 -0.9101 0.0826
vn -0.9917 -0.1022 -0.0779
vn -0.5164 -0.8551 0.0467
vn -0.3795 -0.8560 0.3512
usemtl Front
s off
f 2//1 106//1 150//1 32//1
f 28//2 26//2 42//2 44//2
f 107//3 1//3 31//3 148//3
f 1//4 28//4 44//4 31//4
f 27//5 2//5 32//5 43//5
f 26//6 27//6 43//6 42//6
f 148//7 31//7 37//7 156//7
f 32//8 150//8 151//8 33//8
f 30//9 32//9 33//9 34//9
f 31//10 30//10 34//10 37//10
f 36//11 34//11 38//11
f 34//12 33//12 38//12
f 151//13 159//13 38//13 33//13
f 159//14 160//14 36//14 38//14
f 160//15 162//15 39//15 36//15
f 162//16 163//16 35//16 39//16
f 37//17 40//17 164//17 156//17
f 40//18 41//18 166//18 164//18
f 35//19 34//19 36//19 39//19
f 41//20 35//20 168//20 166//20
f 35//21 163//21 168//21
f 40//22 37//22 35//22 41//22
f 35//23 37//23 34//23
f 32//24 30//24 43//24
f 30//25 31//25 44//25
f 42//26 30//26 44//26
f 30//27 42//27 43//27
f 103//28 149//28 150//28 106//28
f 143//29 171//29 169//29 141//29
f 107//30 148//30 147//30 102//30
f 102//31 147//31 171//31 143//31
f 142//32 170//32 149//32 103//32
f 141//33 169//33 170//33 142//33
f 148//34 156//34 157//34 147//34
f 149//35 152//35 151//35 150//35
f 146//36 153//36 152//36 149//36
f 147//37 157//37 153//37 146//37
f 155//38 158//38 153//38
f 153//39 158//39 152//39
f 151//40 152//40 158//40 159//40
f 159//41 158//41 155//41 160//41
f 160//42 155//42 161//42 162//42
f 162//43 161//43 154//43 163//43
f 157//44 156//44 164//44 165//44
f 165//18 164//18 166//18 167//18
f 154//45 161//45 155//45 153//45
f 167//46 166//46 168//46 154//46
f 154//47 168//47 163//47
f 165//48 167//48 154//48 157//48
f 154//49 153//49 157//49
f 149//50 170//50 146//50
f 146//51 171//51 147//51
f 169//52 171//52 146//52
f 146//53 170//53 169//53
usemtl Fins
f 86//54 227//54 222//54 83//54
f 82//55 84//55 81//55
f 96//56 144//56 250//56 99//56
f 250//57 249//57 98//57 99//57
f 197//58 69//58 15//58 121//58
f 94//59 242//59 144//59 96//59
f 45//60 46//60 50//60
f 47//61 48//61 51//61
f 47//62 51//62 53//62 52//62
f 52//63 53//63 55//63 57//63
f 46//64 47//64 52//64 49//64
f 50//65 51//65 48//65 45//65
f 50//66 46//66 49//66 54//66
f 51//67 50//67 54//67 53//67
f 56//68 58//68 62//68 60//68
f 49//69 52//69 57//69 58//69
f 53//70 54//70 56//70 55//70
f 54//71 49//71 58//71 56//71
f 62//72 61//72 59//72 60//72
f 55//73 56//73 60//73 59//73
f 57//74 55//74 59//74 61//74
f 58//75 57//75 61//75 62//75
f 65//76 64//76 69//76 70//76
f 117//77 66//77 68//77 198//77
f 66//78 63//78 67//78 68//78
f 70//79 69//79 72//79 73//79
f 67//80 70//80 73//80 71//80
f 68//81 67//81 195//81 198//81
f 63//82 65//82 70//82
f 72//83 204//83 209//83 74//83
f 73//84 72//84 74//84 75//84
f 69//85 197//85 204//85 72//85
f 195//86 67//86 71//86 202//86
f 67//87 63//87 70//87
f 194//88 75//88 77//88 208//88
f 76//89 207//89 214//89 78//89
f 75//90 74//90 76//90 77//90
f 71//91 73//91 75//91
f 202//92 71//92 75//92 194//92
f 74//93 209//93 207//93 76//93
f 77//94 76//94 78//94
f 208//95 77//95 78//95 214//95
f 64//96 15//96 69//96
f 79//97 84//97 83//97 80//97
f 84//98 87//98 86//98 83//98
f 82//99 85//99 87//99 84//99
f 81//100 84//100 79//100
f 86//101 88//101 232//101 227//101
f 87//98 89//98 88//98 86//98
f 220//102 225//102 85//102 82//102
f 82//103 81//103 111//103 220//103
f 219//104 231//104 91//104 89//104
f 90//105 92//105 237//105 230//105
f 89//98 91//98 90//98 88//98
f 85//98 89//98 87//98
f 225//106 219//106 89//106 85//106
f 88//107 90//107 230//107 232//107
f 91//98 92//98 90//98
f 231//108 237//108 92//108 91//108
f 80//109 83//109 17//109
f 222//110 125//110 17//110 83//110
f 95//111 94//111 96//111 97//111
f 101//112 100//112 94//112 95//112
f 94//113 100//113 118//113 242//113
f 243//114 97//114 98//114 249//114
f 241//115 95//115 97//115 243//115
f 97//116 96//116 98//116
f 96//117 99//117 98//117
f 240//118 101//118 95//118 241//118
f 228//54 223//54 222//54 227//54
f 221//119 218//119 224//119
f 246//120 251//120 250//120 144//120
f 250//121 251//121 248//121 249//121
f 197//122 121//122 122//122 200//122
f 244//123 246//123 144//123 242//123
f 172//124 177//124 173//124
f 174//125 178//125 175//125
f 174//126 179//126 180//126 178//126
f 179//127 184//127 182//127 180//127
f 173//128 176//128 179//128 174//128
f 177//129 172//129 175//129 178//129
f 177//130 181//130 176//130 173//130
f 178//131 180//131 181//131 177//131
f 183//132 187//132 189//132 185//132
f 176//133 185//133 184//133 179//133
f 180//134 182//134 183//134 181//134
f 181//135 183//135 185//135 176//135
f 189//136 187//136 186//136 188//136
f 182//137 186//137 187//137 183//137
f 184//138 188//138 186//138 182//138
f 185//139 189//139 188//139 184//139
f 192//140 201//140 200//140 191//140
f 117//141 198//141 199//141 193//141
f 193//142 199//142 196//142 190//142
f 201//143 206//143 205//143 200//143
f 196//144 203//144 206//144 201//144
f 199//145 198//145 195//145 196//145
f 190//146 201//146 192//146
f 205//147 210//147 209//147 204//147
f 206//148 211//148 210//148 205//148
f 200//149 205//149 204//149 197//149
f 195//86 202//86 203//86 196//86
f 196//150 201//150 190//150
f 194//88 208//88 213//88 211//88
f 212//89 215//89 214//89 207//89
f 211//151 213//151 212//151 210//151
f 203//152 211//152 206//152
f 202//92 194//92 211//92 203//92
f 210//93 212//93 207//93 209//93
f 213//153 215//153 212//153
f 208//95 214//95 215//95 213//95
f 191//154 200//154 122//154
f 216//155 217//155 223//155 224//155
f 224//156 223//156 228//156 229//156
f 221//157 224//157 229//157 226//157
f 218//158 216//158 224//158
f 228//101 227//101 232//101 233//101
f 229//156 228//156 233//156 234//156
f 220//159 221//159 226//159 225//159
f 221//160 220//160 111//160 218//160
f 219//104 234//104 236//104 231//104
f 235//105 230//105 237//105 238//105
f 234//156 233//156 235//156 236//156
f 226//156 229//156 234//156
f 225//106 226//106 234//106 219//106
f 233//107 232//107 230//107 235//107
f 236//156 235//156 238//156
f 231//108 236//108 238//108 237//108
f 217//161 124//161 223//161
f 222//162 223//162 124//162 125//162
f 245//163 247//163 246//163 244//163
f 253//164 245//164 244//164 252//164
f 244//165 242//165 118//165 252//165
f 243//166 249//166 248//166 247//166
f 241//167 243//167 247//167 245//167
f 247//168 248//168 246//168
f 246//169 248//169 251//169
f 240//170 241//170 245//170 253//170
usemtl Body
f 29//171 28//171 1//171
f 6//172 4//172 65//172 63//172
f 12//173 2//173 27//173
f 4//174 6//174 8//174 5//174
f 12//175 6//175 63//175 66//175
f 5//176 8//176 7//176 3//176
f 9//177 10//177 16//177 15//177
f 65//178 4//178 9//178 64//178
f 4//179 5//179 10//179 9//179
f 5//180 3//180 11//180 10//180
f 2//181 12//181 66//181 117//181 106//181
f 6//182 12//182 14//182 8//182
f 93//183 45//183 13//183
f 10//184 11//184 17//184 16//184
f 131//185 19//185 24//185 138//185
f 139//186 25//186 19//186 131//186
f 19//187 22//187 24//187
f 22//188 19//188 25//188
f 21//189 133//189 130//189 20//189
f 132//190 23//190 18//190 126//190
f 15//191 16//191 22//191 23//191
f 16//192 17//192 21//192 22//192
f 22//193 21//193 20//193 24//193
f 138//194 24//194 20//194 130//194
f 126//195 18//195 25//195 139//195
f 23//196 22//196 25//196 18//196
f 14//197 26//197 28//197 29//197 13//197
f 14//198 12//198 27//198 26//198
f 14//199 13//199 45//199 48//199 47//199
f 3//200 79//200 80//200 11//200
f 81//201 79//201 3//201 7//201
f 121//202 15//202 23//202 132//202
f 64//203 9//203 15//203
f 17//204 125//204 133//204 21//204
f 11//205 80//205 17//205
f 240//206 111//206 81//206 7//206 93//206 101//206
f 8//207 14//207 47//207 46//207 45//207 93//207 7//207
f 13//208 100//208 101//208 93//208
f 107//209 118//209 100//209 13//209 29//209 1//209
f 145//210 102//210 143//210
f 109//211 190//211 192//211 105//211
f 116//212 142//212 103//212
f 105//213 108//213 112//213 109//213
f 116//214 193//214 190//214 109//214
f 108//215 104//215 110//215 112//215
f 113//216 122//216 123//216 114//216
f 192//217 191//217 113//217 105//217
f 105//218 113//218 114//218 108//218
f 108//219 114//219 115//219 104//219
f 103//220 106//220 117//220 193//220 116//220
f 109//221 112//221 120//221 116//221
f 239//222 119//222 172//222
f 114//223 123//223 124//223 115//223
f 131//224 138//224 137//224 128//224
f 139//225 131//225 128//225 140//225
f 128//226 137//226 135//226
f 135//227 140//227 128//227
f 134//228 129//228 130//228 133//228
f 132//229 126//229 127//229 136//229
f 122//230 136//230 135//230 123//230
f 123//231 135//231 134//231 124//231
f 135//232 137//232 129//232 134//232
f 138//233 130//233 129//233 137//233
f 126//234 139//234 140//234 127//234
f 136//235 127//235 140//235 135//235
f 120//236 119//236 145//236 143//236 141//236
f 120//237 141//237 142//237 116//237
f 120//238 174//238 175//238 172//238 119//238
f 104//239 115//239 217//239 216//239
f 218//240 110//240 104//240 216//240
f 121//241 132//241 136//241 122//241
f 191//242 122//242 113//242
f 124//243 134//243 133//243 125//243
f 115//244 124//244 217//244
f 240//245 253//245 239//245 110//245 218//245 111//245
f 112//246 110//246 239//246 172//246 173//246 174//246 120//246
f 119//247 239//247 253//247 252//247
f 107//248 102//248 145//248 119//248 252//248 118//248
