# Blender v2.79 (sub 0) OBJ File: 'Fish3.blend'
# www.blender.org
mtllib fish3.mtl
o ClownFish_Cube.001
v 0.348992 -0.931087 1.675550
v 0.337153 1.411148 1.332254
v 0.288957 -0.869360 -0.036764
v 0.272899 1.480701 -0.258896
v 0.481135 0.250029 0.274499
v 0.514890 0.258141 1.237160
v 0.269646 0.156054 3.060998
v 0.544765 0.247013 1.829970
v 0.375759 -0.782095 2.179348
v 0.367666 1.189887 1.943786
v 0.446361 0.152330 2.635111
v 0.332195 -0.517506 2.839519
v 0.321202 0.747123 2.522941
v 0.339970 0.153172 2.985542
v 0.261403 -0.218102 3.003021
v 0.259753 0.428181 2.954425
v 0.229422 1.439543 -0.889096
v 0.418983 0.186614 -1.058304
v 0.254586 -0.757424 -0.797747
v 0.133644 0.974354 -1.909123
v 0.260014 0.087722 -1.780454
v 0.130413 -0.502630 -1.766098
v -0.000139 -1.245492 -1.475509
v 0.176747 0.588474 -2.503976
v 0.276141 0.084821 -2.299307
v 0.165261 -0.365192 -2.455685
v 0.232304 0.643027 -2.939960
v 0.364745 0.134998 -2.942771
v 0.286821 -0.467450 -3.216944
v 0.671220 1.048492 -3.787274
v 0.789568 0.105514 -3.697557
v 0.690336 -0.678169 -3.803541
v 1.151285 0.091149 -4.379472
v 1.136348 1.019386 -4.372055
v 1.217501 0.091466 -4.330543
v 1.160607 -0.556934 -4.384561
v 0.057834 1.547517 -0.255176
v 0.120939 1.478659 1.337172
v 0.049126 1.019080 -1.924996
v 0.218108 1.235206 1.947243
v 0.204970 0.792439 2.525229
v 0.181178 0.472851 2.939074
v 0.074995 1.486898 -0.892967
v 0.127025 0.632961 -2.520905
v 0.214243 0.712409 -3.068444
v 0.649911 1.092929 -3.812203
v 0.120469 -1.021424 1.687128
v 0.058777 -0.938248 -0.026543
v 0.226318 -0.827388 2.186375
v 0.216081 -0.562802 2.845378
v 0.183517 -0.263401 3.007540
v 0.105977 -0.805746 -0.791012
v 0.037021 -0.548455 -1.765335
v 0.109242 -0.409943 -2.456291
v 0.252418 -0.512396 -3.217995
v 0.658587 -0.722863 -3.815241
v 0.111239 1.803507 1.243487
v 0.054681 1.718380 -0.242760
v 0.107504 2.170710 1.136099
v 0.065179 2.113778 -0.070860
v 0.084573 2.370326 0.768695
v 0.069166 2.358765 0.329317
v 0.098140 -1.183892 0.870291
v 0.043677 1.320961 -2.090208
v -0.007504 1.829632 -1.118953
v 0.078329 1.020320 -2.561826
v 0.063996 1.793265 -2.291202
v 0.005510 1.988716 -1.481213
v 0.061038 1.420342 -2.525538
v 0.045554 -1.108413 -0.274878
v 0.074119 -1.528933 0.540781
v 0.057392 -1.681319 0.064109
v 0.042655 -1.398103 -0.356860
v 0.007647 -1.041089 -1.016447
v 0.007108 -0.943381 -1.746006
v 0.092422 -0.612998 -2.387076
v 0.010888 -1.279401 -1.862568
v 0.050234 -1.002429 -2.256248
v 0.383539 0.867403 0.073033
v 0.426904 0.845875 1.309847
v 0.454417 0.721546 1.835591
v 0.384681 0.420024 2.604756
v 1.146527 0.556688 -4.374385
v 0.332970 0.837479 -0.811636
v 0.202280 0.529225 -1.844176
v 0.218528 0.360223 -2.333967
v 0.298344 0.401008 -2.924983
v 0.724264 0.577001 -3.748048
v 1.179649 0.555426 -4.349936
v 0.385405 -0.345567 0.129199
v 0.428909 -0.350123 1.369913
v 0.456878 -0.286705 1.908201
v 0.424359 -0.098892 2.677457
v 0.338617 -0.289159 -0.949386
v 0.219634 -0.139036 -2.352639
v 0.196673 -0.207513 -1.767303
v 0.730516 -0.286331 -3.758246
v 0.329683 -0.170670 -3.139148
v 1.189054 -0.232734 -4.357552
v 1.155942 -0.232612 -4.382015
v 0.476242 0.247275 0.125008
v 0.286305 -0.855298 -0.122372
v 0.264710 1.477140 -0.328170
v 0.118812 1.521641 -0.326399
v 0.065417 -0.921872 -0.112377
v 0.380442 0.866170 -0.025219
v 0.381512 -0.335448 0.008188
v 0.433099 0.205530 -0.886684
v 0.082753 1.494021 -0.808125
v 0.101826 -0.820202 -0.690021
v 0.340280 0.845464 -0.694346
v 0.350332 -0.289382 -0.808735
v 0.261490 -0.769041 -0.697589
v 0.233084 1.446326 -0.804701
v 0.287405 0.090959 -2.381109
v 0.187395 0.595284 -2.558736
v 0.172685 -0.378585 -2.556060
v 0.144046 0.642856 -2.589655
v 0.123922 -0.423351 -2.556295
v 0.228979 0.365200 -2.409166
v 0.238008 -0.143424 -2.452528
v 0.352886 0.128246 -2.856649
v 0.204589 0.701746 -2.995609
v 0.226560 -0.498741 -3.121411
v 0.289656 0.395517 -2.845917
v 0.312792 -0.166493 -3.037568
v 0.224593 0.635708 -2.881937
v 0.263078 -0.453821 -3.121355
v 0.370950 -0.752887 2.252225
v 0.362537 1.141010 2.007720
v 0.533902 0.236561 1.918849
v 0.216658 1.186329 2.011047
v 0.225188 -0.798180 2.259123
v 0.446719 0.688261 1.920500
v 0.453288 -0.265972 1.993120
v 0.519188 0.256540 1.322428
v 0.352842 -0.909656 1.748014
v 0.341542 1.379323 1.420214
v 0.195870 1.424641 1.423534
v 0.135694 -0.993515 1.758937
v 0.430862 0.827992 1.385468
v 0.432932 -0.341001 1.447338
v -0.230849 -0.931037 1.695881
v -0.242688 1.411197 1.352586
v -0.290885 -0.869311 -0.016433
v -0.306680 1.480694 -0.241831
v -0.004383 -0.933247 -0.123944
v -0.017068 1.571060 -0.253938
v 0.059189 -1.021674 1.689286
v 0.047115 1.501785 1.338849
v -0.460600 0.250109 0.307520
v -0.426845 0.258220 1.270181
v -0.054475 0.156082 3.072363
v 0.022351 1.420198 -2.529557
v -0.415126 0.247094 1.863627
v -0.222238 -0.782044 2.200315
v 0.076878 -0.872682 2.193402
v -0.230331 1.189938 1.964754
v 0.068550 1.280525 1.950699
v 0.104924 0.434857 2.990087
v -0.260586 0.152390 2.659899
v -0.132497 -0.517466 2.855813
v 0.099966 -0.608099 2.851237
v -0.143490 0.747162 2.539235
v 0.088738 0.837755 2.527517
v 0.107108 -0.220353 3.053963
v -0.129912 0.153212 3.002018
v -0.050376 -0.218075 3.013953
v 0.105631 -0.308701 3.012058
v -0.052025 0.428207 2.965357
v 0.102604 0.517520 2.923723
v 0.108709 0.160258 3.098694
v -0.072175 1.531269 -0.898261
v -0.355020 1.439208 -0.890907
v -0.526997 0.186262 -1.050134
v -0.331009 -0.757493 -0.784062
v -0.040752 -0.851534 -0.784561
v 0.077714 0.677362 -2.537433
v -0.209706 0.973567 -1.944409
v -0.333968 0.085679 -1.881001
v -0.238943 -0.503180 -1.786817
v -0.126769 -1.245608 -1.478451
v 0.179885 0.756640 -3.083852
v -0.013414 0.587805 -2.537003
v -0.157536 0.083211 -2.379553
v -0.029890 -0.365840 -2.487356
v 0.056447 -0.454677 -2.455848
v 0.629285 1.137366 -3.837139
v 0.090417 0.642491 -2.970904
v -0.010389 0.133606 -3.012185
v 0.164585 -0.467949 -3.262806
v 0.218125 -0.557342 -3.219334
v 1.075306 1.109775 -4.414895
v 0.557678 1.047962 -3.864418
v 0.490476 0.104081 -3.918568
v 0.583401 -0.678671 -3.877036
v 0.627316 -0.767558 -3.826671
v 1.036205 0.090598 -4.464509
v 1.017816 1.018819 -4.458882
v 0.969989 0.090280 -4.513439
v 1.042350 -0.557501 -4.471945
v 1.102560 -0.647890 -4.429129
v 1.093745 0.090873 -4.421991
v 1.077713 1.014479 -4.415261
v 1.101273 -0.540016 -4.428087
v -0.089690 1.547517 -0.250728
v -0.026649 1.478671 1.342348
v -0.122517 1.018677 -1.943169
v -0.080890 1.235232 1.957727
v -0.027376 0.792459 2.533376
v 0.025289 0.472864 2.944540
v -0.217010 1.486680 -0.896764
v 0.031903 0.632634 -2.537018
v 0.144612 0.712139 -3.086934
v 0.593250 1.092663 -3.851033
v -0.002092 -1.021414 1.691425
v -0.060566 -0.938238 -0.022358
v -0.072680 -0.827363 2.196859
v -0.016265 -0.562783 2.853524
v 0.027628 -0.263388 3.013006
v -0.186765 -0.805793 -0.784908
v -0.147781 -0.548699 -1.773914
v 0.011299 -0.410254 -2.471369
v 0.191417 -0.512646 -3.241189
v 0.605098 -0.723114 -3.851945
v -0.023479 1.803519 1.248211
v 0.043880 1.803513 1.245849
v -0.012774 1.718771 -0.240644
v -0.080003 1.718385 -0.238437
v -0.027214 2.170722 1.140823
v 0.040145 2.170716 1.138461
v -0.002182 2.113801 -0.068537
v -0.069539 2.113790 -0.066136
v -0.030039 2.370335 0.772714
v 0.027267 2.370330 0.770704
v 0.011860 2.358769 0.331326
v -0.045446 2.358774 0.333336
v 0.040215 1.020156 -2.566359
v -0.037058 -1.183880 0.875032
v -0.092464 1.829555 -1.123676
v -0.082191 1.320660 -2.103831
v -0.177244 1.829389 -1.127921
v 0.001959 1.020125 -2.570799
v -0.000255 1.793018 -2.298200
v -0.079046 1.988556 -1.488015
v -0.064017 1.792965 -2.304748
v -0.163936 1.988403 -1.494257
v -0.016273 1.420165 -2.533435
v 0.030600 -1.229192 0.874447
v -0.010511 -1.101071 -0.298316
v -0.064798 -1.108403 -0.271009
v -0.036234 -1.528924 0.544650
v 0.019003 -1.575554 0.544553
v 0.002252 -1.718186 0.067163
v -0.013930 -1.410607 -0.395082
v -0.052961 -1.681309 0.067978
v -0.067697 -1.398094 -0.352991
v -0.119249 -1.041144 -1.015846
v -0.056373 -1.086440 -1.013166
v -0.119364 -0.943539 -1.751341
v -0.034546 -0.613334 -2.402798
v 0.023647 -0.657187 -2.387644
v -0.063716 -1.290087 -1.474149
v -0.115626 -1.279541 -1.866869
v -0.052655 -1.322986 -1.861525
v -0.076029 -1.002667 -2.266246
v -0.015617 -1.045546 -2.255875
v -0.377250 0.867467 0.099709
v -0.333884 0.845940 1.336523
v -0.324526 0.721612 1.862904
v -0.201139 0.420074 2.625297
v 1.029854 0.556129 -4.460600
v -0.432647 0.837228 -0.803101
v -0.265949 0.527701 -1.918392
v -0.093315 0.359066 -2.391669
v 0.039770 0.400044 -2.974479
v 0.515767 0.576021 -3.892340
v 0.996765 0.554550 -4.485076
v -0.375383 -0.345502 0.155875
v -0.331879 -0.350058 1.396589
v -0.322066 -0.286639 1.935514
v -0.235715 -0.098836 2.700602
v 1.088160 0.558913 -4.417468
v -0.427521 -0.289295 -0.934193
v -0.094563 -0.140161 -2.408412
v -0.284426 -0.208944 -1.835737
v 0.525036 -0.287295 -3.899671
v 0.084987 -0.171620 -3.205986
v 1.006170 -0.233610 -4.492692
v 1.039275 -0.233171 -4.468225
v 1.097602 -0.232396 -4.425115
v -0.466190 0.247355 0.158053
v -0.006976 -0.922909 -0.197915
v -0.294233 -0.855249 -0.102016
v -0.315363 1.477088 -0.313720
v -0.026813 1.567982 -0.324943
v -0.171211 1.521612 -0.319344
v -0.073199 -0.921861 -0.107517
v -0.381043 0.866235 0.001481
v -0.379973 -0.335384 0.034888
v -0.513113 0.205426 -0.864222
v -0.034363 -0.860269 -0.696995
v -0.209049 1.493853 -0.809050
v -0.167872 -0.820221 -0.682976
v -0.424856 0.845294 -0.681169
v -0.415462 -0.289386 -0.785824
v -0.323460 -0.769060 -0.681066
v -0.350722 1.446038 -0.803806
v -0.064485 1.538799 -0.811754
v -0.138829 0.089377 -2.459978
v 0.003172 0.594621 -2.591608
v 0.075873 -0.468113 -2.556253
v -0.012907 -0.379235 -2.591059
v 0.099099 0.687234 -2.605769
v 0.051918 0.642527 -2.605972
v 0.031047 -0.423673 -2.573577
v -0.076202 0.364067 -2.465635
v -0.068369 -0.144552 -2.508660
v -0.030083 0.126824 -2.927513
v 0.190332 -0.543660 -3.121477
v 0.131051 0.701466 -3.012814
v 0.159853 -0.499004 -3.141968
v 0.023200 0.394528 -2.895221
v 0.056980 -0.167470 -3.099043
v 0.076328 0.635150 -2.913583
v 0.129586 -0.454348 -3.162281
v 0.168289 0.745999 -3.010701
v 0.070779 1.231648 2.014374
v 0.079427 -0.843474 2.266021
v -0.212332 -0.752837 2.272677
v -0.220744 1.141060 2.028172
v -0.398066 0.236640 1.951528
v -0.074983 1.186354 2.021273
v -0.066453 -0.798156 2.269349
v -0.310906 0.688325 1.947065
v -0.312534 -0.265907 2.019973
v -0.425159 0.256620 1.355540
v -0.229611 -0.909607 1.768437
v -0.240911 1.379372 1.440637
v 0.050198 1.469960 1.426855
v 0.061733 -1.000244 1.761796
v -0.095356 1.424666 1.433746
v -0.012245 -0.993502 1.764124
v -0.332538 0.828057 1.412236
v -0.330468 -0.340936 1.474106
vn 0.9867 0.1593 -0.0324
vn 0.3253 -0.9442 -0.0515
vn -0.0100 0.0805 -0.9967
vn 0.9883 -0.1488 -0.0344
vn 0.2228 0.3619 0.9052
vn 0.7238 -0.1212 0.6792
vn 0.2019 0.6166 0.7610
vn 0.3047 0.7456 0.5927
vn 0.9071 0.2761 0.3177
vn 0.3203 -0.8746 0.3639
vn 0.9661 0.1817 0.1835
vn 0.2765 0.7634 0.5837
vn 0.9887 -0.1208 0.0894
vn 0.7076 0.2798 0.6488
vn 0.2908 -0.4140 0.8626
vn 0.9563 -0.0348 0.2904
vn 0.2675 -0.1333 0.9543
vn 0.2471 -0.4297 0.8685
vn 0.3304 -0.6958 0.6377
vn 0.9672 0.1603 -0.1969
vn 0.9816 -0.1747 -0.0764
vn 0.9872 0.1595 0.0045
vn 0.3578 0.8419 -0.4040
vn 0.9566 -0.2254 -0.1850
vn 0.5727 0.7132 -0.4042
vn 0.9739 -0.2268 0.0075
vn 0.8598 0.1748 0.4798
vn 0.7895 -0.1990 0.5806
vn 0.6871 -0.5894 0.4249
vn 0.8080 0.1320 0.5742
vn 0.6062 -0.5281 0.5947
vn 0.2482 0.8074 0.5353
vn 0.5942 0.0149 -0.8042
vn 0.7882 -0.1361 0.6001
vn 0.6490 0.5845 0.4871
vn 0.5921 0.0181 -0.8056
vn 0.6342 0.6178 0.4649
vn 0.5178 0.5990 0.6108
vn 0.9947 0.0918 0.0458
vn 0.2001 -0.0699 -0.9773
vn 0.2744 0.7568 0.5933
vn 0.3044 0.7451 0.5935
vn 0.2978 0.9542 0.0296
vn 0.6011 -0.5288 0.5992
vn 0.6714 -0.6156 0.4126
vn 0.5139 -0.8480 -0.1296
vn 0.3417 -0.8998 -0.2712
vn 0.2559 -0.4500 0.8556
vn 0.3214 -0.8797 0.3504
vn 0.5910 0.6166 -0.5201
vn 0.9993 -0.0058 -0.0364
vn 0.9991 0.0195 -0.0389
vn 0.0742 0.2862 0.9553
vn 0.9983 0.0453 -0.0369
vn -0.0290 0.3995 -0.9163
vn 0.0337 0.2808 0.9592
vn -0.0008 0.9997 -0.0263
vn -0.0179 0.8528 -0.5219
vn 0.0168 0.8790 0.4765
vn 0.1098 0.0952 -0.9894
vn 0.9981 0.0016 0.0608
vn 0.0762 0.5822 0.8095
vn 0.9930 0.1104 -0.0413
vn 0.0883 0.5293 -0.8438
vn 0.0189 0.9723 -0.2330
vn -0.0285 0.9161 0.4000
vn 0.9994 -0.0001 -0.0350
vn 0.9987 -0.0193 -0.0471
vn 0.9988 0.0350 -0.0343
vn 0.3354 -0.9210 0.1984
vn 0.4982 -0.6117 0.6145
vn 0.4769 -0.7228 -0.5002
vn 0.4560 0.2500 -0.8541
vn 0.5977 -0.7716 0.2176
vn 0.9998 -0.0164 0.0085
vn 0.2170 -0.3326 -0.9178
vn 0.2481 -0.3380 -0.9079
vn 0.9934 -0.0636 0.0951
vn 0.5689 -0.8178 0.0868
vn 0.4877 -0.7355 -0.4702
vn 0.5518 -0.7657 0.3305
vn 0.9946 -0.0509 0.0900
vn 0.9990 -0.0288 0.0333
vn 0.9981 0.0387 0.0486
vn 0.7869 0.1207 0.6052
vn 0.8467 0.1794 0.5008
vn 0.9879 0.1535 -0.0244
vn 0.9773 0.1389 -0.1602
vn 0.9662 0.2061 0.1551
vn 0.9277 0.2456 0.2811
vn 0.9883 0.1486 -0.0337
vn 0.8028 -0.1682 0.5721
vn 0.8039 -0.2981 0.5146
vn 0.9738 -0.2265 0.0210
vn 0.9603 -0.2083 -0.1853
vn 0.9040 -0.1009 0.4155
vn 0.9847 -0.1442 0.0980
vn 0.9860 -0.1622 -0.0382
vn 0.5942 0.0171 -0.8041
vn 0.5932 0.0173 -0.8049
vn -0.9882 0.1473 0.0422
vn -0.3283 -0.9441 -0.0286
vn -0.0526 0.0822 -0.9952
vn -0.9883 -0.1486 0.0349
vn -0.1588 0.3619 0.9186
vn -0.6745 -0.1211 0.7283
vn -0.1480 0.6166 0.7732
vn -0.2623 0.7457 0.6125
vn -0.8826 0.2762 0.3804
vn -0.2942 -0.8746 0.3855
vn -0.9508 0.1818 0.2507
vn -0.2348 0.7635 0.6017
vn -0.9800 -0.1206 0.1584
vn -0.6604 0.2799 0.6968
vn -0.2298 -0.4139 0.8808
vn -0.9336 -0.0346 0.3567
vn -0.2000 -0.1333 0.9707
vn -0.1858 -0.4297 0.8837
vn -0.3070 -0.6823 0.6635
vn -0.9589 0.1839 -0.2160
vn -0.9897 -0.1342 -0.0499
vn -0.9227 0.1454 -0.3570
vn -0.3535 0.8391 -0.4134
vn -0.9626 -0.2204 -0.1576
vn -0.4554 0.6787 -0.5761
vn -0.9303 -0.1786 -0.3204
vn -0.8784 0.1296 -0.4600
vn -0.8433 -0.1434 -0.5180
vn -0.5638 -0.6029 -0.5645
vn -0.7739 0.0797 -0.6283
vn -0.7547 -0.5782 -0.3101
vn -0.8601 0.4328 -0.2700
vn -0.7664 -0.1393 -0.6270
vn -0.6010 0.6268 -0.4959
vn 0.5895 0.0180 -0.8076
vn -0.6018 0.6263 -0.4955
vn -0.7617 0.6342 -0.1327
vn -0.9801 -0.0401 -0.1945
vn 0.0886 -0.0771 -0.9931
vn -0.2320 0.7568 0.6110
vn -0.2619 0.7451 0.6133
vn -0.2937 0.9544 0.0531
vn -0.7546 -0.5758 -0.3148
vn -0.5554 -0.6178 -0.5567
vn -0.4933 -0.8196 -0.2916
vn -0.3467 -0.9027 -0.2546
vn -0.1954 -0.4500 0.8714
vn -0.2962 -0.8797 0.3720
vn -0.6259 0.6167 -0.4774
vn -0.9993 0.0057 0.0364
vn -0.9987 0.0323 0.0386
vn -0.0071 0.2862 0.9582
vn -0.9984 0.0454 0.0331
vn -0.0325 0.4000 -0.9160
vn -0.0185 0.8528 -0.5219
vn 0.1070 0.0966 -0.9896
vn -0.9949 -0.0354 -0.0946
vn -0.1224 0.5783 0.8066
vn -0.9917 0.0516 -0.1179
vn 0.0855 0.5290 -0.8443
vn 0.0187 0.9724 -0.2325
vn -0.0263 0.9170 0.3981
vn -0.9994 0.0001 0.0350
vn -0.9996 -0.0192 0.0229
vn -0.9987 0.0351 0.0358
vn -0.3208 -0.9209 0.2214
vn -0.4540 -0.6116 0.6479
vn -0.5108 -0.7227 -0.4655
vn -0.5147 0.2501 -0.8201
vn -0.5812 -0.7715 0.2590
vn -0.9998 0.0165 -0.0089
vn -0.0326 -0.3230 -0.9459
vn 0.0071 -0.3208 -0.9471
vn -0.9841 0.0016 -0.1774
vn -0.5741 -0.8170 0.0539
vn -0.4335 -0.7186 -0.5437
vn -0.5578 -0.7558 0.3429
vn -0.9948 0.0492 -0.0894
vn -0.9870 -0.0293 -0.1582
vn -0.9869 -0.0302 -0.1584
vn -0.7787 0.0883 -0.6211
vn -0.8959 0.1347 -0.4233
vn -0.9249 0.0931 -0.3685
vn -0.9783 0.1056 -0.1785
vn -0.9529 0.2063 0.2224
vn -0.9057 0.2458 0.3454
vn -0.9882 0.1488 0.0356
vn -0.7709 -0.1110 -0.6272
vn -0.8629 -0.0343 -0.5043
vn -0.9210 -0.2104 -0.3279
vn -0.9573 -0.2236 -0.1831
vn -0.8727 -0.1008 0.4778
vn -0.9754 -0.1440 0.1668
vn -0.9863 -0.1621 0.0309
vn 0.5940 0.0184 -0.8042
vn 0.5917 0.0179 -0.8059
vn 0.9854 0.1700 0.0014
vn 0.9862 -0.1596 -0.0431
vn 0.2851 0.9049 0.3162
vn 0.3319 -0.9051 0.2657
vn 0.2852 0.9054 0.3144
vn 0.2292 -0.9293 0.2895
vn 0.9850 0.1702 -0.0299
vn 0.9869 -0.1599 -0.0193
vn 0.9861 -0.1610 -0.0405
vn 0.9851 0.1577 -0.0688
vn 0.2858 -0.9463 -0.1514
vn 0.2967 0.9517 -0.0784
vn 0.9821 -0.1797 -0.0566
vn 0.2966 0.9517 -0.0790
vn 0.2524 -0.9569 -0.1439
vn 0.9872 0.1497 -0.0545
vn 0.9668 -0.2231 0.1249
vn 0.9503 0.2739 0.1479
vn 0.7081 -0.6740 0.2107
vn 0.6825 0.6998 0.2107
vn 0.7371 0.6493 0.1872
vn 0.9506 -0.2664 0.1593
vn 0.9637 0.2213 0.1497
vn 0.7099 -0.6672 0.2254
vn -0.9829 0.1701 0.0704
vn -0.9869 -0.1594 0.0261
vn -0.2621 0.9049 0.3354
vn -0.3126 -0.9051 0.2883
vn -0.2623 0.9055 0.3336
vn -0.2085 -0.9293 0.3048
vn -0.9846 0.1704 0.0391
vn -0.9859 -0.1597 0.0499
vn -0.9845 -0.1698 0.0436
vn -0.9888 0.1361 0.0607
vn -0.2984 -0.9466 -0.1220
vn -0.3020 0.9528 -0.0322
vn -0.9840 -0.1759 0.0289
vn -0.3084 0.9506 -0.0340
vn -0.2586 -0.9589 -0.1172
vn -0.9897 0.1353 0.0477
vn -0.9569 -0.1960 -0.2144
vn -0.9574 0.2079 -0.2002
vn -0.7460 -0.6598 -0.0905
vn -0.7256 0.6873 -0.0329
vn -0.7757 0.6265 -0.0766
vn -0.9620 -0.1785 -0.2067
vn -0.9550 0.2142 -0.2054
vn -0.7464 -0.6615 -0.0721
vn 0.9821 0.1661 -0.0883
vn 0.2885 -0.9499 -0.1203
vn 0.2984 0.9494 -0.0981
vn 0.9757 -0.2016 -0.0854
vn 0.7505 -0.5935 0.2905
vn 0.9642 0.2271 0.1368
vn 0.9535 -0.2107 0.2155
vn 0.8101 0.5567 0.1840
vn 0.7303 0.6527 0.2016
vn 0.2911 0.9506 -0.1075
vn 0.7522 -0.5970 0.2789
vn 0.2993 -0.9457 -0.1267
vn 0.9517 0.2735 0.1394
vn 0.9846 0.1623 -0.0654
vn 0.9664 -0.2122 0.1451
vn 0.9814 -0.1785 -0.0705
vn 0.9878 -0.1516 -0.0362
vn 0.9868 0.1458 -0.0706
vn 0.2772 -0.9471 -0.1617
vn 0.3000 0.9501 -0.0853
vn 0.9847 -0.1664 -0.0507
vn 0.2923 0.9521 -0.0897
vn 0.1842 -0.9702 -0.1575
vn 0.9888 0.1450 -0.0342
vn 0.9529 -0.2619 0.1529
vn 0.9384 0.2956 0.1792
vn 0.6392 -0.7498 0.1708
vn 0.6061 0.7455 0.2773
vn 0.6177 0.7490 0.2397
vn 0.9390 -0.3101 0.1485
vn 0.9639 0.2205 0.1489
vn 0.6497 -0.7310 0.2085
vn 0.9892 -0.1163 0.0895
vn 0.9712 0.1850 0.1503
vn 0.2896 -0.8891 0.3545
vn 0.2478 0.7632 0.5968
vn 0.9850 -0.1468 0.0906
vn 0.2495 0.7692 0.5883
vn 0.9755 0.1461 0.1647
vn 0.2887 -0.8845 0.3666
vn 0.9886 -0.1490 -0.0216
vn 0.9876 0.1540 -0.0320
vn 0.0606 -0.9468 0.3162
vn 0.2891 0.9044 0.3138
vn 0.3630 -0.8953 0.2582
vn 0.2890 0.9038 0.3156
vn 0.9877 -0.1504 -0.0436
vn 0.9874 0.1585 -0.0022
vn -0.9910 0.1205 0.0591
vn -0.2960 -0.9521 -0.0769
vn -0.3239 0.9446 -0.0529
vn -0.9819 -0.1769 0.0684
vn -0.7958 -0.5845 -0.1586
vn -0.9576 0.2111 -0.1960
vn -0.9437 -0.1906 -0.2703
vn -0.8532 0.5100 -0.1096
vn -0.7736 0.6324 -0.0406
vn -0.2958 0.9537 -0.0539
vn -0.7875 -0.5887 -0.1821
vn -0.3145 -0.9459 -0.0794
vn -0.9598 0.2002 -0.1966
vn -0.9899 0.1333 0.0478
vn -0.9596 -0.1452 -0.2409
vn -0.9796 -0.1817 0.0864
vn -0.9879 -0.1514 0.0331
vn -0.9869 0.1464 0.0682
vn -0.2880 -0.9471 -0.1419
vn -0.3065 0.9519 0.0028
vn -0.9859 -0.1663 0.0184
vn -0.2950 0.9554 -0.0113
vn -0.1949 -0.9702 -0.1442
vn -0.9888 0.1451 0.0351
vn -0.9428 -0.2350 -0.2366
vn -0.9533 0.1935 -0.2321
vn -0.7146 -0.6985 -0.0365
vn -0.6895 0.7167 -0.1047
vn -0.7063 0.6986 -0.1147
vn -0.9644 -0.1858 -0.1880
vn -0.9550 0.2134 -0.2061
vn -0.6949 -0.7181 -0.0392
vn -0.9805 -0.1161 0.1585
vn -0.9582 0.1851 0.2179
vn -0.2642 -0.8891 0.3739
vn -0.2053 0.7632 0.6127
vn -0.9763 -0.1467 0.1594
vn -0.2075 0.7692 0.6043
vn -0.9615 0.1462 0.2326
vn -0.2625 -0.8844 0.3859
vn -0.9877 -0.1488 0.0477
vn -0.9873 0.1541 0.0372
vn -0.0385 -0.9467 0.3197
vn -0.2663 0.9044 0.3333
vn -0.3442 -0.8953 0.2830
vn -0.2660 0.9038 0.3351
vn -0.9883 -0.1502 0.0257
vn -0.9851 0.1586 0.0669
usemtl Body
s off
f 79//1 4//1 2//1 80//1
f 48//2 3//2 1//2 47//2
f 37//3 148//3 228//3 58//3
f 90//4 5//4 6//4 91//4
f 7//5 16//5 160//5 172//5
f 7//6 15//6 14//6
f 160//7 16//7 42//7 171//7
f 41//8 165//8 171//8 42//8
f 82//9 13//9 16//9 14//9
f 133//10 129//10 12//10 50//10
f 134//11 130//11 13//11 82//11
f 132//12 328//12 165//12 41//12
f 135//13 131//13 11//13 93//13
f 14//14 16//14 7//14
f 15//15 166//15 169//15 51//15
f 93//16 11//16 14//16
f 166//17 15//17 7//17 172//17
f 50//18 12//18 15//18 51//18
f 52//19 177//19 259//19 74//19
f 84//20 18//20 21//20 85//20
f 53//21 52//21 74//21 75//21
f 85//22 21//22 25//22 86//22
f 43//23 17//23 20//23 39//23
f 94//24 19//24 22//24 96//24
f 39//25 20//25 24//25 44//25
f 96//26 22//26 26//26 95//26
f 87//27 28//27 31//27 88//27
f 98//28 29//28 32//28 97//28
f 56//29 197//29 202//29
f 88//30 31//30 35//30 89//30
f 55//31 192//31 197//31 56//31
f 45//32 27//32 30//32 46//32
f 203//33 283//33 83//33 33//33
f 202//33 205//33 36//33
f 97//34 32//34 36//34 99//34
f 46//35 30//35 34//35
f 33//33 83//33 89//33 35//33
f 36//33 100//33 99//33
f 34//36 204//36 193//36
f 36//33 205//33 291//33 100//33
f 188//37 46//37 34//37 193//37
f 183//38 45//38 46//38 188//38
f 39//39 44//39 66//39 64//39
f 44//40 178//40 238//40 66//40
f 130//41 132//41 41//41 13//41
f 13//42 41//42 42//42 16//42
f 4//43 37//43 38//43 2//43
f 29//44 55//44 56//44 32//44
f 32//45 56//45 202//45 36//45
f 22//46 53//46 54//46 26//46
f 19//47 52//47 53//47 22//47
f 163//48 50//48 51//48 169//48
f 329//49 133//49 50//49 163//49
f 147//50 48//50 70//50 250//50
f 57//51 58//51 60//51 59//51
f 38//52 37//52 58//52 57//52
f 150//53 38//53 57//53 227//53
f 59//54 60//54 62//54 61//54
f 58//55 228//55 232//55 60//55
f 227//56 57//56 59//56 231//56
f 62//57 236//57 235//57 61//57
f 60//58 232//58 236//58 62//58
f 231//59 59//59 61//59 235//59
f 66//60 238//60 154//60 69//60
f 68//61 65//61 64//61 67//61
f 173//62 43//62 65//62 240//62
f 43//63 39//63 64//63 65//63
f 244//64 67//64 69//64 154//64
f 245//65 68//65 67//65 244//65
f 240//66 65//66 68//66 245//66
f 70//67 71//67 72//67 73//67
f 48//68 63//68 71//68 70//68
f 48//69 47//69 63//69
f 47//70 149//70 249//70 63//70
f 63//71 249//71 253//71 71//71
f 255//72 73//72 72//72 254//72
f 250//73 70//73 73//73 255//73
f 71//74 253//74 254//74 72//74
f 75//75 74//75 23//75 77//75
f 262//76 76//76 78//76 267//76
f 187//77 54//77 76//77 262//77
f 54//78 53//78 75//78 76//78
f 23//79 263//79 265//79 77//79
f 77//80 265//80 267//80 78//80
f 74//81 259//81 263//81 23//81
f 76//82 75//82 77//82 78//82
f 67//83 64//83 69//83
f 69//84 64//84 66//84
f 30//85 88//85 89//85 34//85
f 27//86 87//86 88//86 30//86
f 20//87 85//87 86//87 24//87
f 17//88 84//88 85//88 20//88
f 131//89 134//89 82//89 11//89
f 11//90 82//90 14//90
f 5//91 79//91 80//91 6//91
f 31//92 97//92 99//92 35//92
f 28//93 98//93 97//93 31//93
f 21//94 96//94 95//94 25//94
f 18//95 94//95 96//95 21//95
f 12//96 93//96 14//96 15//96
f 129//97 135//97 93//97 12//97
f 3//98 90//98 91//98 1//98
f 89//99 83//99 34//99
f 83//100 283//100 204//100 34//100
f 99//33 100//33 33//33 35//33
f 100//33 291//33 203//33 33//33
f 268//101 269//101 144//101 146//101
f 217//102 216//102 143//102 145//102
f 206//103 229//103 228//103 148//103
f 279//104 280//104 152//104 151//104
f 153//105 172//105 160//105 170//105
f 153//106 167//106 168//106
f 160//107 171//107 211//107 170//107
f 210//108 211//108 171//108 165//108
f 271//109 167//109 170//109 164//109
f 334//110 219//110 162//110 330//110
f 335//111 271//111 164//111 331//111
f 333//112 210//112 165//112 328//112
f 336//113 282//113 161//113 332//113
f 167//114 153//114 170//114
f 168//115 220//115 169//115 166//115
f 282//116 167//116 161//116
f 166//117 172//117 153//117 168//117
f 219//118 220//118 168//118 162//118
f 221//119 258//119 259//119 177//119
f 273//120 274//120 180//120 175//120
f 222//121 260//121 258//121 221//121
f 274//122 275//122 185//122 180//122
f 212//123 208//123 179//123 174//123
f 284//124 286//124 181//124 176//124
f 208//125 213//125 184//125 179//125
f 286//126 285//126 186//126 181//126
f 276//127 277//127 195//127 190//127
f 288//128 287//128 196//128 191//128
f 225//129 202//129 197//129
f 277//130 278//130 200//130 195//130
f 224//131 225//131 197//131 192//131
f 214//132 215//132 194//132 189//132
f 203//33 198//33 272//33 283//33
f 202//33 201//33 205//33
f 287//133 289//133 201//133 196//133
f 215//134 199//134 194//134
f 198//33 200//33 278//33 272//33
f 201//33 289//33 290//33
f 199//135 193//135 204//135
f 201//33 290//33 291//33 205//33
f 188//136 193//136 199//136 215//136
f 183//137 188//137 215//137 214//137
f 208//138 241//138 243//138 213//138
f 213//139 243//139 238//139 178//139
f 331//140 164//140 210//140 333//140
f 164//141 170//141 211//141 210//141
f 146//142 144//142 207//142 206//142
f 191//143 196//143 225//143 224//143
f 196//144 201//144 202//144 225//144
f 181//145 186//145 223//145 222//145
f 176//146 181//146 222//146 221//146
f 163//147 169//147 220//147 219//147
f 329//148 163//148 219//148 334//148
f 147//149 250//149 251//149 217//149
f 226//150 230//150 233//150 229//150
f 207//151 226//151 229//151 206//151
f 150//152 227//152 226//152 207//152
f 230//153 234//153 237//153 233//153
f 229//154 233//154 232//154 228//154
f 227//56 231//56 230//56 226//56
f 237//57 234//57 235//57 236//57
f 233//155 237//155 236//155 232//155
f 231//59 235//59 234//59 230//59
f 243//156 248//156 154//156 238//156
f 247//157 246//157 241//157 242//157
f 173//158 240//158 242//158 212//158
f 212//159 242//159 241//159 208//159
f 244//160 154//160 248//160 246//160
f 245//161 244//161 246//161 247//161
f 240//162 245//162 247//162 242//162
f 251//163 257//163 256//163 252//163
f 217//164 251//164 252//164 239//164
f 217//165 239//165 216//165
f 216//166 239//166 249//166 149//166
f 239//167 252//167 253//167 249//167
f 255//168 254//168 256//168 257//168
f 250//169 255//169 257//169 251//169
f 252//170 256//170 254//170 253//170
f 260//171 264//171 182//171 258//171
f 262//172 267//172 266//172 261//172
f 187//173 262//173 261//173 223//173
f 223//174 261//174 260//174 222//174
f 182//175 264//175 265//175 263//175
f 264//176 266//176 267//176 265//176
f 258//177 182//177 263//177 259//177
f 261//178 266//178 264//178 260//178
f 246//179 248//179 241//179
f 248//180 243//180 241//180
f 194//181 199//181 278//181 277//181
f 189//182 194//182 277//182 276//182
f 179//183 184//183 275//183 274//183
f 174//184 179//184 274//184 273//184
f 332//185 161//185 271//185 335//185
f 161//186 167//186 271//186
f 151//187 152//187 269//187 268//187
f 195//188 200//188 289//188 287//188
f 190//189 195//189 287//189 288//189
f 180//190 185//190 285//190 286//190
f 175//191 180//191 286//191 284//191
f 162//192 168//192 167//192 282//192
f 330//193 162//193 282//193 336//193
f 145//194 143//194 280//194 279//194
f 278//195 199//195 272//195
f 272//196 199//196 204//196 283//196
f 289//33 200//33 198//33 290//33
f 290//33 198//33 203//33 291//33
usemtl Stripes
f 141//197 138//197 10//197 81//197
f 142//198 136//198 8//198 92//198
f 139//199 340//199 159//199 40//199
f 140//200 137//200 9//200 49//200
f 138//201 139//201 40//201 10//201
f 341//202 140//202 49//202 157//202
f 136//203 141//203 81//203 8//203
f 137//204 142//204 92//204 9//204
f 101//205 107//205 112//205 108//205
f 103//206 106//206 111//206 114//206
f 102//207 105//207 110//207 113//207
f 296//208 104//208 109//208 309//208
f 107//209 102//209 113//209 112//209
f 104//210 103//210 114//210 109//210
f 105//211 293//211 302//211 110//211
f 106//212 101//212 108//212 111//212
f 115//213 121//213 126//213 122//213
f 116//214 120//214 125//214 127//214
f 117//215 119//215 124//215 128//215
f 314//216 118//216 123//216 327//216
f 118//217 116//217 127//217 123//217
f 121//218 117//218 128//218 126//218
f 120//219 115//219 122//219 125//219
f 119//220 312//220 320//220 124//220
f 344//221 270//221 158//221 339//221
f 345//222 281//222 155//222 337//222
f 342//223 209//223 159//223 340//223
f 343//224 218//224 156//224 338//224
f 339//225 158//225 209//225 342//225
f 341//226 157//226 218//226 343//226
f 337//227 155//227 270//227 344//227
f 338//228 156//228 281//228 345//228
f 292//229 301//229 306//229 300//229
f 295//230 308//230 305//230 299//230
f 294//231 307//231 304//231 298//231
f 296//232 309//232 303//232 297//232
f 300//233 306//233 307//233 294//233
f 297//234 303//234 308//234 295//234
f 298//235 304//235 302//235 293//235
f 299//236 305//236 301//236 292//236
f 310//237 319//237 324//237 318//237
f 311//238 325//238 323//238 317//238
f 313//239 326//239 322//239 316//239
f 314//240 327//240 321//240 315//240
f 315//241 321//241 325//241 311//241
f 318//242 324//242 326//242 313//242
f 317//243 323//243 319//243 310//243
f 316//244 322//244 320//244 312//244
usemtl Outline
f 111//245 108//245 18//245 84//245
f 110//246 302//246 177//246 52//246
f 109//247 114//247 17//247 43//247
f 112//248 113//248 19//248 94//248
f 124//249 320//249 192//249 55//249
f 125//250 122//250 28//250 87//250
f 126//251 128//251 29//251 98//251
f 123//252 127//252 27//252 45//252
f 327//253 123//253 45//253 183//253
f 309//254 109//254 43//254 173//254
f 128//255 124//255 55//255 29//255
f 113//256 110//256 52//256 19//256
f 127//257 125//257 87//257 27//257
f 114//258 111//258 84//258 17//258
f 122//259 126//259 98//259 28//259
f 108//260 112//260 94//260 18//260
f 5//261 90//261 107//261 101//261
f 4//262 79//262 106//262 103//262
f 3//263 48//263 105//263 102//263
f 148//264 37//264 104//264 296//264
f 90//265 3//265 102//265 107//265
f 37//266 4//266 103//266 104//266
f 48//267 147//267 293//267 105//267
f 79//268 5//268 101//268 106//268
f 25//269 95//269 121//269 115//269
f 24//270 86//270 120//270 116//270
f 26//271 54//271 119//271 117//271
f 178//272 44//272 118//272 314//272
f 44//273 24//273 116//273 118//273
f 95//274 26//274 117//274 121//274
f 86//275 25//275 115//275 120//275
f 54//276 187//276 312//276 119//276
f 9//277 92//277 135//277 129//277
f 8//278 81//278 134//278 131//278
f 157//279 49//279 133//279 329//279
f 10//280 40//280 132//280 130//280
f 92//281 8//281 131//281 135//281
f 40//282 159//282 328//282 132//282
f 81//283 10//283 130//283 134//283
f 49//284 9//284 129//284 133//284
f 1//285 91//285 142//285 137//285
f 6//286 80//286 141//286 136//286
f 149//287 47//287 140//287 341//287
f 2//288 38//288 139//288 138//288
f 47//289 1//289 137//289 140//289
f 38//290 150//290 340//290 139//290
f 91//291 6//291 136//291 142//291
f 80//292 2//292 138//292 141//292
f 305//293 273//293 175//293 301//293
f 304//294 221//294 177//294 302//294
f 303//295 212//295 174//295 308//295
f 306//296 284//296 176//296 307//296
f 322//297 224//297 192//297 320//297
f 323//298 276//298 190//298 319//298
f 324//299 288//299 191//299 326//299
f 321//300 214//300 189//300 325//300
f 327//301 183//301 214//301 321//301
f 309//302 173//302 212//302 303//302
f 326//303 191//303 224//303 322//303
f 307//304 176//304 221//304 304//304
f 325//305 189//305 276//305 323//305
f 308//306 174//306 273//306 305//306
f 319//307 190//307 288//307 324//307
f 301//308 175//308 284//308 306//308
f 151//309 292//309 300//309 279//309
f 146//310 295//310 299//310 268//310
f 145//311 294//311 298//311 217//311
f 148//312 296//312 297//312 206//312
f 279//313 300//313 294//313 145//313
f 206//314 297//314 295//314 146//314
f 217//315 298//315 293//315 147//315
f 268//316 299//316 292//316 151//316
f 185//317 310//317 318//317 285//317
f 184//318 311//318 317//318 275//318
f 186//319 313//319 316//319 223//319
f 178//320 314//320 315//320 213//320
f 213//321 315//321 311//321 184//321
f 285//322 318//322 313//322 186//322
f 275//323 317//323 310//323 185//323
f 223//324 316//324 312//324 187//324
f 156//325 330//325 336//325 281//325
f 155//326 332//326 335//326 270//326
f 157//327 329//327 334//327 218//327
f 158//328 331//328 333//328 209//328
f 281//329 336//329 332//329 155//329
f 209//330 333//330 328//330 159//330
f 270//331 335//331 331//331 158//331
f 218//332 334//332 330//332 156//332
f 143//333 338//333 345//333 280//333
f 152//334 337//334 344//334 269//334
f 149//335 341//335 343//335 216//335
f 144//336 339//336 342//336 207//336
f 216//337 343//337 338//337 143//337
f 207//338 342//338 340//338 150//338
f 280//339 345//339 337//339 152//339
f 269//340 344//340 339//340 144//340
