# Blender v2.79 (sub 0) OBJ File: 'Fish1.blend'
# www.blender.org
mtllib fish1.mtl
o Fish_Cube
v 0.264454 -0.710118 0.513648
v 0.264454 1.031624 0.444969
v 0.264454 -0.523571 -1.495262
v 0.264454 0.860529 -1.549838
v 0.351307 0.191553 -1.523460
v 0.351307 0.052939 0.483560
v 0.264454 1.026834 -0.555619
v 0.264454 -0.703371 -0.487395
v 0.351307 0.121353 -0.519915
v 0.198592 0.565928 -2.607039
v 0.242404 0.253305 -2.594712
v 0.198592 -0.161860 -2.578342
v 0.106628 0.393201 -3.345512
v 0.130006 0.276111 -3.340895
v 0.106628 0.177363 -3.337001
v 0.028028 0.267033 -4.089412
v 0.042352 0.226238 -4.087804
v 0.028028 0.196516 -4.086632
v 0.065554 0.168253 -3.694185
v 0.056121 0.332544 -3.700663
v 0.084328 0.252211 -3.697496
v 0.050044 0.844357 -5.011132
v 0.041263 0.858281 -4.658009
v 0.028030 0.225898 -4.087790
v 0.025082 -0.589304 -4.237759
v 0.026683 -0.307510 -4.491611
v 0.028030 0.218329 -4.234366
v 0.034498 -0.238705 -3.894265
v 0.025082 -0.798847 -4.611381
v 0.049895 0.608041 -4.054783
v 0.028030 0.224089 -4.117885
v 0.039465 0.525423 -4.672675
v 0.034583 0.538153 -4.385365
v 0.040733 0.465169 -4.069292
v 0.026364 -0.235640 -4.185637
v 0.032222 -0.085593 -3.961940
v 0.319771 0.042421 1.446289
v 0.232918 0.851235 1.414397
v 0.198075 0.694283 2.016238
v 0.310159 0.047835 1.626888
v 0.301523 -0.090807 1.451542
v 0.241801 -0.625052 1.201548
v 0.229989 0.593790 1.776833
v 0.202048 -0.727028 1.481771
v 0.394060 -0.089165 1.456619
v 0.262924 -0.473334 1.188679
v 0.242816 -0.762788 1.213519
v 0.220055 0.691912 2.308414
v 0.344788 0.086792 2.429763
v 0.173428 0.107686 2.943602
v 0.126686 0.199323 2.989125
v 0.158331 -0.119179 2.756764
v 0.191495 -0.378356 2.421858
v 0.145649 -0.257053 2.617711
v 0.259244 0.693508 2.014892
v 0.406531 0.063695 1.630471
v 0.305329 0.597493 1.775218
v 0.338322 -0.471482 1.197105
v 0.366205 0.204579 0.897530
v 0.364082 0.582853 0.883604
v 0.410342 0.200874 0.989168
v 0.409474 0.577262 0.975026
v 0.318506 0.194314 1.032910
v 0.322133 0.201067 0.914690
v 0.280713 0.570966 1.031496
v 0.284618 0.579634 0.921551
v 0.562687 0.503431 0.443852
v 0.562678 0.294870 0.524228
v 0.477724 0.511787 0.422574
v 0.478266 0.301306 0.501860
v 0.576770 0.323407 0.180057
v 0.485674 0.330188 0.185207
v 0.452612 0.576931 0.722746
v 0.453945 0.254288 0.733833
v 0.525126 0.569958 0.779096
v 0.525555 0.249218 0.790836
v 0.061028 1.016946 -1.556006
v 0.061028 -0.866535 0.519816
v 0.061028 -0.679988 -1.489094
v 0.061028 1.188041 0.438802
v 0.061028 1.183251 -0.561786
v 0.061028 -0.859788 -0.481227
v 0.045829 0.707886 -2.612637
v 0.052043 -0.788582 -1.854751
v 0.024607 0.461206 -3.348194
v 0.024606 0.119697 -3.334728
v 0.005788 -0.589304 -4.237759
v 0.007961 -0.238705 -3.894265
v 0.012951 0.362984 -3.715950
v 0.009579 0.162453 -3.693956
v 0.011549 0.844357 -5.011132
v 0.009522 0.858281 -4.658009
v 0.005788 -0.798847 -4.611380
v 0.006158 -0.302561 -4.489561
v 0.006469 0.217373 -4.234328
v 0.011514 0.617562 -4.047922
v 0.009107 0.519291 -4.665632
v 0.053750 1.003170 1.408406
v 0.045710 0.749335 2.133265
v 0.055800 -0.773238 1.246209
v 0.068075 -0.812746 1.485150
v 0.050782 0.751721 2.356924
v 0.040022 0.090805 2.959365
v 0.029235 0.271708 2.993687
v 0.029235 0.181812 3.004690
v 0.036538 -0.139101 2.772129
v 0.033611 -0.272290 2.622110
v 0.033047 -0.412281 2.417945
v 0.059826 0.791552 2.192364
v 0.071035 -0.844524 1.255360
v 0.264454 1.029675 0.037783
v 0.064044 1.413429 -0.622047
v 0.264454 -0.707372 0.106277
v 0.351307 0.080780 0.075199
v 0.061028 -0.863789 0.112444
v 0.061028 1.186092 0.031616
v 0.026303 -1.089911 0.117022
v 0.064044 1.465762 -0.335387
v 0.025166 -1.117747 -0.071495
v 0.025166 -1.019680 -0.073192
v 0.023987 -1.074250 -0.298544
v 0.064044 1.334273 -0.560164
v 0.064044 1.345819 0.029964
v 0.064044 1.512229 -0.812681
v 0.064044 1.529951 -0.586201
v 0.040029 1.192238 -1.723464
v 0.042945 1.012719 -2.168750
v 0.040029 1.353381 -1.963900
v 0.042945 1.244566 -2.104913
v 0.040029 1.431671 -2.157124
v 0.042945 1.407650 -2.193361
v 0.049309 -0.411243 -2.340456
v 0.044726 -0.547637 -2.425672
v 0.027139 -0.870152 -2.284795
v 0.045943 -0.856591 -2.061637
v 0.041664 -0.785440 -2.212105
v 0.044930 -0.642334 -2.201286
v -0.264454 -0.710118 0.513648
v -0.264454 1.031624 0.444969
v -0.264454 -0.523571 -1.495262
v -0.264454 0.860529 -1.549838
v -0.351307 0.191553 -1.523460
v -0.351307 0.052939 0.483560
v -0.264454 1.026834 -0.555619
v -0.264454 -0.703371 -0.487395
v -0.351307 0.121353 -0.519915
v -0.198592 0.565928 -2.607039
v -0.242404 0.253305 -2.594712
v -0.198592 -0.161860 -2.578342
v -0.106628 0.393201 -3.345512
v -0.130006 0.276111 -3.340895
v -0.106628 0.177363 -3.337001
v -0.028028 0.267033 -4.089412
v -0.042352 0.226238 -4.087804
v -0.028028 0.196516 -4.086632
v -0.065554 0.168253 -3.694185
v -0.056121 0.332544 -3.700663
v -0.084328 0.252211 -3.697496
v -0.050044 0.844357 -5.011132
v -0.041263 0.858281 -4.658009
v -0.028030 0.225898 -4.087790
v -0.025082 -0.589304 -4.237759
v -0.026683 -0.307510 -4.491611
v -0.028030 0.218329 -4.234366
v -0.034498 -0.238705 -3.894265
v -0.025082 -0.798847 -4.611380
v -0.049895 0.608041 -4.054783
v -0.028030 0.224089 -4.117885
v -0.039465 0.525423 -4.672675
v -0.034583 0.538153 -4.385365
v -0.040733 0.465169 -4.069292
v -0.026364 -0.235640 -4.185637
v -0.032222 -0.085593 -3.961940
v -0.319771 0.042421 1.446289
v -0.232918 0.851235 1.414397
v -0.198075 0.694283 2.016238
v -0.310159 0.047835 1.626888
v -0.301523 -0.090807 1.451542
v -0.241801 -0.625052 1.201548
v -0.229989 0.593790 1.776833
v -0.202048 -0.727028 1.481771
v -0.394060 -0.089165 1.456619
v -0.262924 -0.473334 1.188679
v -0.242816 -0.762788 1.213519
v -0.220055 0.691912 2.308414
v -0.344788 0.086792 2.429763
v -0.173428 0.107686 2.943602
v -0.126686 0.199323 2.989125
v -0.158331 -0.119179 2.756764
v -0.191495 -0.378356 2.421858
v -0.145649 -0.257053 2.617711
v -0.259244 0.693508 2.014892
v -0.406531 0.063695 1.630471
v -0.305329 0.597493 1.775218
v -0.338322 -0.471482 1.197105
v -0.366205 0.204579 0.897530
v -0.364082 0.582853 0.883604
v -0.410342 0.200874 0.989168
v -0.409474 0.577262 0.975026
v -0.318506 0.194314 1.032910
v -0.322133 0.201067 0.914690
v -0.280713 0.570966 1.031496
v -0.284618 0.579634 0.921551
v -0.562687 0.503431 0.443852
v -0.562678 0.294870 0.524228
v -0.477724 0.511787 0.422574
v -0.478266 0.301306 0.501860
v -0.576770 0.323407 0.180056
v -0.485674 0.330188 0.185207
v -0.452612 0.576931 0.722746
v -0.453945 0.254288 0.733833
v -0.525126 0.569958 0.779096
v -0.525555 0.249218 0.790836
v -0.061028 1.016946 -1.556006
v -0.061028 -0.866535 0.519816
v -0.061028 -0.679988 -1.489094
v -0.061028 1.188041 0.438802
v -0.061028 1.183251 -0.561786
v -0.061028 -0.859788 -0.481227
v -0.045829 0.707886 -2.612637
v -0.052043 -0.788582 -1.854751
v -0.024607 0.461206 -3.348194
v -0.024606 0.119697 -3.334728
v -0.005788 -0.589304 -4.237759
v -0.007961 -0.238705 -3.894265
v -0.012951 0.362984 -3.715950
v -0.009579 0.162453 -3.693956
v -0.011549 0.844357 -5.011132
v -0.009522 0.858281 -4.658009
v -0.005788 -0.798847 -4.611380
v -0.006158 -0.302561 -4.489561
v -0.006469 0.217373 -4.234328
v -0.011514 0.617562 -4.047922
v -0.009107 0.519291 -4.665632
v -0.053750 1.003170 1.408406
v -0.045710 0.749335 2.133265
v -0.055800 -0.773238 1.246209
v -0.068075 -0.812746 1.485150
v -0.050782 0.751721 2.356924
v -0.040022 0.090805 2.959365
v -0.029235 0.271708 2.993687
v -0.029235 0.181812 3.004691
v -0.036538 -0.139101 2.772129
v -0.033611 -0.272290 2.622110
v -0.033047 -0.412281 2.417945
v -0.059826 0.791552 2.192364
v -0.071035 -0.844524 1.255360
v -0.264454 1.029675 0.037783
v -0.064044 1.413429 -0.622047
v -0.264454 -0.707372 0.106277
v -0.351307 0.080780 0.075199
v -0.061028 -0.863789 0.112444
v -0.061028 1.186092 0.031616
v -0.026303 -1.089911 0.117022
v -0.064044 1.465762 -0.335387
v -0.025166 -1.117747 -0.071495
v -0.025166 -1.019680 -0.073192
v -0.023987 -1.074250 -0.298544
v -0.064044 1.334273 -0.560164
v -0.064044 1.345819 0.029964
v -0.064044 1.512229 -0.812681
v -0.064044 1.529951 -0.586201
v -0.040029 1.192238 -1.723464
v -0.042945 1.012719 -2.168750
v -0.040029 1.353381 -1.963900
v -0.042945 1.244566 -2.104913
v -0.040029 1.431671 -2.157124
v -0.042945 1.407650 -2.193361
v -0.049309 -0.411243 -2.340456
v -0.044726 -0.547637 -2.425672
v -0.027139 -0.870152 -2.284795
v -0.045943 -0.856591 -2.061637
v -0.041664 -0.785440 -2.212105
v -0.044930 -0.642334 -2.201286
vn 0.9876 -0.1182 -0.1034
vn 0.9938 -0.1114 -0.0042
vn 0.6008 -0.7869 -0.1404
vn 0.0000 -0.9845 -0.1756
vn 0.6094 -0.7928 -0.0053
vn 0.9935 -0.1126 -0.0140
vn 0.9771 -0.1343 -0.1650
vn 0.5545 -0.7301 -0.3993
vn 0.9545 -0.2818 -0.0978
vn 0.0000 -0.0394 -0.9992
vn 0.9679 -0.2275 -0.1071
vn 0.1008 -0.0920 -0.9906
vn -0.1650 -0.1119 -0.9799
vn 0.0549 0.5585 -0.8277
vn -0.0186 0.2603 -0.9653
vn -0.0281 0.9232 -0.3833
vn 0.0000 -0.9189 0.3945
vn -0.0419 0.7682 -0.6388
vn 0.6212 -0.7759 0.1101
vn 0.9895 -0.1333 0.0567
vn 0.9916 -0.1255 0.0324
vn 0.0000 0.9719 0.2353
vn 0.9924 -0.1151 0.0426
vn 0.0000 0.7985 0.6020
vn 0.4922 -0.8558 0.1593
vn 0.9373 -0.2971 0.1821
vn 0.9164 0.2588 0.3053
vn 0.9693 0.2165 0.1167
vn 0.0000 -0.6315 0.7754
vn 0.8960 -0.3163 0.3117
vn 0.0000 -0.4458 0.8951
vn 0.0000 0.1215 0.9926
vn 0.1828 -0.6274 0.7570
vn 0.1655 -0.7239 0.6698
vn 0.9461 -0.3132 0.0821
vn 0.3535 -0.8655 0.3548
vn 0.8825 -0.3256 0.3394
vn 0.0000 -0.9906 0.1370
vn 0.9834 0.1671 0.0711
vn 0.1500 -0.8199 0.5525
vn 0.0000 0.8137 -0.5813
vn -0.0000 -0.8247 0.5655
vn 0.0000 -0.7478 0.6639
vn 0.1808 -0.3918 0.9021
vn 0.4556 0.6967 0.5541
vn 0.1355 0.1204 0.9834
vn 0.0000 -1.0000 -0.0067
vn 0.3834 0.8926 0.2371
vn -0.0673 0.8501 -0.5223
vn 0.0000 -0.1273 -0.9919
vn 0.0000 -0.9919 0.1274
vn 0.4155 -0.9065 -0.0751
vn 0.0000 -0.9930 -0.1182
vn 0.6460 -0.7178 -0.2598
vn 0.0000 -0.8821 -0.4710
vn 0.9942 -0.1072 -0.0040
vn 0.9555 -0.2696 0.1197
vn 0.9398 -0.2749 0.2031
vn 0.4897 0.8691 0.0701
vn -0.9876 -0.1182 -0.1034
vn -0.9938 -0.1114 -0.0042
vn -0.6008 -0.7869 -0.1404
vn -0.6094 -0.7928 -0.0053
vn -0.9935 -0.1126 -0.0140
vn -0.9771 -0.1343 -0.1650
vn -0.5545 -0.7301 -0.3993
vn -0.9545 -0.2818 -0.0978
vn -0.9679 -0.2275 -0.1071
vn -0.1008 -0.0920 -0.9906
vn 0.1650 -0.1119 -0.9799
vn -0.0549 0.5585 -0.8277
vn 0.0186 0.2603 -0.9653
vn 0.0281 0.9232 -0.3833
vn 0.0419 0.7682 -0.6388
vn -0.6212 -0.7759 0.1101
vn -0.9895 -0.1333 0.0567
vn -0.9916 -0.1255 0.0324
vn -0.9924 -0.1151 0.0426
vn -0.4922 -0.8558 0.1593
vn -0.9373 -0.2971 0.1821
vn -0.9164 0.2588 0.3053
vn -0.9693 0.2165 0.1167
vn -0.8960 -0.3163 0.3117
vn -0.1828 -0.6274 0.7570
vn -0.1655 -0.7239 0.6698
vn -0.9461 -0.3132 0.0821
vn -0.3535 -0.8655 0.3548
vn -0.8825 -0.3256 0.3394
vn -0.9834 0.1671 0.0711
vn -0.1500 -0.8199 0.5525
vn -0.1808 -0.3918 0.9021
vn -0.4556 0.6967 0.5541
vn -0.1355 0.1204 0.9834
vn -0.3834 0.8926 0.2371
vn 0.0673 0.8501 -0.5223
vn -0.4155 -0.9065 -0.0751
vn -0.6460 -0.7178 -0.2598
vn -0.9942 -0.1072 -0.0040
vn -0.9555 -0.2696 0.1197
vn -0.9398 -0.2749 0.2031
vn -0.4897 0.8691 0.0701
vn 0.9959 0.0899 0.0029
vn 0.6286 0.7411 -0.2358
vn 0.9940 0.1095 -0.0053
vn 0.9873 0.1277 -0.0950
vn 0.9778 0.1470 -0.1494
vn 0.6497 0.7165 -0.2538
vn 0.9379 0.3245 -0.1225
vn 0.6224 0.7515 -0.2187
vn 0.9568 0.2438 -0.1583
vn 0.0000 0.9661 -0.2580
vn 0.9902 0.1097 0.0859
vn 0.9904 0.1154 0.0764
vn 0.9945 0.0989 0.0339
vn 0.9939 0.0986 0.0499
vn 0.9936 0.1056 0.0410
vn 0.9949 0.0921 0.0407
vn 0.5725 0.7778 0.2593
vn 0.0000 0.9438 0.3305
vn 0.6096 0.7927 -0.0038
vn 0.6166 0.7713 0.1576
vn 0.6068 0.7840 -0.1311
vn 0.9956 0.0934 0.0030
vn 0.0000 0.9863 -0.1650
vn 0.0000 0.9481 -0.3180
vn -0.9959 0.0899 0.0029
vn -0.6286 0.7411 -0.2358
vn -0.9940 0.1095 -0.0053
vn -0.9873 0.1277 -0.0950
vn -0.9778 0.1470 -0.1494
vn -0.6497 0.7165 -0.2538
vn -0.9379 0.3245 -0.1225
vn -0.6224 0.7515 -0.2187
vn -0.9568 0.2438 -0.1583
vn -0.9902 0.1097 0.0859
vn -0.9904 0.1154 0.0764
vn -0.9945 0.0989 0.0339
vn -0.9939 0.0986 0.0499
vn -0.9936 0.1056 0.0410
vn -0.9949 0.0921 0.0407
vn -0.5725 0.7778 0.2593
vn -0.6096 0.7927 -0.0038
vn -0.6166 0.7713 0.1576
vn -0.6068 0.7840 -0.1311
vn -0.9956 0.0934 0.0030
vn 0.0000 0.9823 0.1873
vn 0.0000 0.0107 -0.9999
vn 0.9998 -0.0194 0.0002
vn 0.9994 -0.0234 -0.0238
vn 0.9998 -0.0145 0.0128
vn 0.0000 0.7935 0.6085
vn 0.0000 0.9992 -0.0394
vn 0.9964 -0.0576 -0.0623
vn 0.1604 0.9155 0.3690
vn 0.9986 -0.0475 -0.0217
vn 0.0336 -0.8189 -0.5730
vn 0.9949 -0.0282 -0.0972
vn 0.9997 -0.0064 0.0216
vn 0.9980 -0.0536 -0.0349
vn -0.0028 0.4401 -0.8980
vn 0.0000 0.4407 -0.8977
vn -0.0205 0.2376 -0.9711
vn 0.3097 0.7541 0.5792
vn 0.9996 0.0011 -0.0279
vn -0.0053 -0.7280 -0.6856
vn 1.0000 -0.0038 0.0021
vn 0.9997 0.0016 -0.0235
vn 1.0000 -0.0035 0.0014
vn 0.0475 -0.9971 -0.0589
vn -0.4059 -0.0298 -0.9135
vn -0.9956 -0.0191 -0.0918
vn 0.4113 0.0399 0.9106
vn -0.0124 0.9972 0.0732
vn 0.1838 0.9660 -0.1820
vn 0.9922 0.0221 0.1224
vn 0.0193 -0.9834 -0.1804
vn -0.0662 -0.9939 -0.0885
vn 0.1223 0.8074 -0.5772
vn -0.9996 -0.0118 -0.0245
vn 0.9990 0.0162 0.0423
vn 0.1537 -0.9721 -0.1771
vn 0.8618 0.0204 0.5068
vn 0.0887 0.9960 0.0139
vn -0.8773 -0.0214 -0.4794
vn 0.0000 0.2384 -0.9712
vn 0.0000 -0.8192 -0.5735
vn 0.0000 -0.8722 0.4892
vn 0.0000 0.9302 0.3670
vn 0.0337 -0.4448 0.8950
vn 0.0000 -0.7283 -0.6852
vn 0.0000 -0.6998 0.7143
vn 0.0000 -0.4467 0.8947
vn 0.0000 0.5299 -0.8481
vn 0.0000 -0.9893 0.1461
vn 0.0000 0.6908 0.7231
vn 1.0000 -0.0000 0.0000
vn 0.9998 -0.0189 0.0001
vn 0.0000 -0.6159 -0.7878
vn 0.0000 -0.8878 -0.4601
vn 0.0000 0.9970 -0.0780
vn 0.0000 -0.8745 0.4850
vn 0.0000 0.9719 -0.2354
vn -0.0000 0.9329 0.3600
vn 0.0000 0.7658 -0.6431
vn 1.0000 -0.0001 -0.0052
vn 0.9932 -0.1073 -0.0455
vn 0.0000 0.9501 0.3119
vn 0.9884 -0.1518 -0.0010
vn 0.0000 0.9688 0.2479
vn 0.0000 -0.9821 -0.1882
vn 0.0000 0.8243 -0.5661
vn 0.0000 0.8307 0.5567
vn 0.0000 0.2655 -0.9641
vn 0.9973 0.0668 -0.0299
vn 0.9996 0.0205 0.0175
vn 1.0000 0.0037 0.0081
vn 0.0000 0.8335 -0.5525
vn 0.0000 0.9268 0.3755
vn 0.0000 -0.4767 -0.8790
vn 0.0000 -0.9586 0.2847
vn 0.0000 -0.9213 -0.3888
vn 0.9995 -0.0143 -0.0292
vn 0.0000 0.6512 -0.7589
vn 0.0000 0.0754 -0.9972
vn 0.9996 -0.0261 -0.0119
vn 0.0000 -0.9500 0.3123
vn 0.0000 -0.9982 0.0607
vn 0.9916 -0.1037 -0.0772
vn -0.9998 -0.0194 0.0002
vn -0.9994 -0.0234 -0.0238
vn -0.9998 -0.0145 0.0128
vn -0.9964 -0.0576 -0.0623
vn -0.1604 0.9155 0.3690
vn -0.9986 -0.0475 -0.0217
vn -0.0337 -0.8189 -0.5730
vn -0.9949 -0.0282 -0.0972
vn -0.9997 -0.0064 0.0216
vn -0.9980 -0.0536 -0.0349
vn 0.0028 0.4401 -0.8980
vn 0.0205 0.2376 -0.9711
vn -0.3097 0.7541 0.5792
vn -0.9996 0.0011 -0.0279
vn 0.0053 -0.7280 -0.6856
vn -1.0000 -0.0038 0.0021
vn -0.9997 0.0016 -0.0235
vn -1.0000 -0.0035 0.0014
vn -0.0475 -0.9971 -0.0589
vn 0.4059 -0.0298 -0.9135
vn 0.9956 -0.0191 -0.0918
vn -0.4113 0.0399 0.9106
vn 0.0124 0.9972 0.0732
vn -0.1838 0.9660 -0.1820
vn -0.9922 0.0221 0.1224
vn -0.0193 -0.9834 -0.1804
vn 0.0662 -0.9939 -0.0885
vn -0.1223 0.8074 -0.5772
vn 0.9996 -0.0118 -0.0245
vn -0.9990 0.0162 0.0423
vn -0.1537 -0.9721 -0.1771
vn -0.8618 0.0204 0.5068
vn -0.0887 0.9960 0.0139
vn 0.8773 -0.0214 -0.4794
vn -0.0337 -0.4448 0.8950
vn -1.0000 -0.0000 0.0000
vn -0.9998 -0.0189 0.0001
vn -1.0000 -0.0001 -0.0052
vn -0.9932 -0.1073 -0.0455
vn -0.9884 -0.1518 -0.0010
vn -0.9973 0.0668 -0.0299
vn -0.9996 0.0205 0.0175
vn -1.0000 0.0037 0.0081
vn -0.9995 -0.0143 -0.0292
vn -0.9996 -0.0261 -0.0119
vn -0.9916 -0.1037 -0.0772
usemtl Bottom
s off
f 5//1 3//1 12//1 11//1
f 114//2 6//2 1//2 113//2
f 82//3 79//3 3//3 8//3
f 82//4 219//4 216//4 79//4
f 115//5 82//5 8//5 113//5
f 5//6 9//6 8//6 3//6
f 11//7 12//7 15//7 14//7
f 132//8 86//8 15//8 12//8
f 21//9 19//9 18//9 17//9
f 24//10 17//10 18//10
f 14//11 15//11 19//11 21//11
f 42//12 46//12 58//12 47//12
f 100//13 42//13 47//13 110//13
f 46//14 41//14 45//14 58//14
f 40//15 43//15 57//15 56//15
f 43//16 39//16 55//16 57//16
f 108//17 245//17 238//17 101//17
f 41//18 40//18 56//18 45//18
f 78//19 1//19 42//19 100//19
f 41//20 37//20 40//20
f 6//21 37//21 41//21 46//21
f 246//22 239//22 102//22 109//22
f 1//23 6//23 46//23 42//23
f 239//24 241//24 104//24 102//24
f 110//25 47//25 44//25 101//25
f 47//26 58//26 44//26
f 49//27 48//27 51//27 50//27
f 57//28 55//28 48//28 49//28
f 103//29 240//29 243//29 106//29
f 49//30 50//30 52//30
f 240//31 103//31 105//31 242//31
f 241//32 242//32 105//32 104//32
f 103//33 106//33 52//33 50//33
f 106//34 107//34 54//34 52//34
f 53//35 56//35 49//35
f 101//36 44//36 53//36 108//36
f 54//37 53//37 49//37 52//37
f 101//38 238//38 247//38 110//38
f 56//39 57//39 49//39
f 53//40 54//40 107//40 108//40
f 236//41 246//41 109//41 99//41
f 245//42 108//42 107//42 244//42
f 106//43 243//43 244//43 107//43
f 50//44 51//44 105//44 103//44
f 48//45 102//45 104//45 51//45
f 51//46 104//46 105//46
f 115//47 252//47 219//47 82//47
f 109//48 102//48 48//48
f 39//49 99//49 109//49 55//49
f 110//50 247//50 237//50 100//50
f 100//51 237//51 215//51 78//51
f 15//52 86//52 90//52 19//52
f 223//53 227//53 90//53 86//53
f 3//54 79//54 132//54 12//54
f 269//55 223//55 86//55 132//55
f 78//5 115//5 113//5 1//5
f 9//56 114//56 113//56 8//56
f 44//57 45//57 56//57 53//57
f 58//58 45//58 44//58
f 55//59 109//59 48//59
f 142//60 148//60 149//60 140//60
f 251//61 250//61 138//61 143//61
f 219//62 145//62 140//62 216//62
f 252//63 250//63 145//63 219//63
f 142//64 140//64 145//64 146//64
f 148//65 151//65 152//65 149//65
f 269//66 149//66 152//66 223//66
f 158//67 154//67 155//67 156//67
f 161//10 155//10 154//10
f 151//68 158//68 156//68 152//68
f 179//69 184//69 195//69 183//69
f 237//70 247//70 184//70 179//70
f 183//71 195//71 182//71 178//71
f 177//72 193//72 194//72 180//72
f 180//73 194//73 192//73 176//73
f 178//74 182//74 193//74 177//74
f 215//75 237//75 179//75 138//75
f 178//76 177//76 174//76
f 143//77 183//77 178//77 174//77
f 138//78 179//78 183//78 143//78
f 247//79 238//79 181//79 184//79
f 184//80 181//80 195//80
f 186//81 187//81 188//81 185//81
f 194//82 186//82 185//82 192//82
f 186//83 189//83 187//83
f 240//84 187//84 189//84 243//84
f 243//85 189//85 191//85 244//85
f 190//86 186//86 193//86
f 238//87 245//87 190//87 181//87
f 191//88 189//88 186//88 190//88
f 193//89 186//89 194//89
f 190//90 245//90 244//90 191//90
f 187//91 240//91 242//91 188//91
f 185//92 188//92 241//92 239//92
f 188//93 242//93 241//93
f 246//94 185//94 239//94
f 176//95 192//95 246//95 236//95
f 152//96 156//96 227//96 223//96
f 140//97 149//97 269//97 216//97
f 215//63 138//63 250//63 252//63
f 146//98 145//98 250//98 251//98
f 181//99 190//99 193//99 182//99
f 195//100 181//100 182//100
f 192//101 185//101 246//101
usemtl Top
f 111//102 2//102 6//102 114//102
f 77//103 4//103 10//103 83//103
f 4//104 7//104 9//104 5//104
f 4//105 5//105 11//105 10//105
f 10//106 11//106 14//106 13//106
f 83//107 10//107 13//107 85//107
f 16//10 17//10 24//10
f 20//108 21//108 17//108 16//108
f 85//109 13//109 20//109 89//109
f 13//110 14//110 21//110 20//110
f 89//111 226//111 222//111 85//111
f 38//112 39//112 43//112
f 37//113 38//113 43//113 40//113
f 63//114 37//114 6//114 64//114
f 2//115 38//115 65//115 66//115
f 63//116 65//116 38//116 37//116
f 6//117 2//117 66//117 64//117
f 38//118 98//118 99//118 39//118
f 235//119 236//119 99//119 98//119
f 111//120 7//120 81//120 116//120
f 2//121 80//121 98//121 38//121
f 7//122 4//122 77//122 81//122
f 2//120 111//120 116//120 80//120
f 7//123 111//123 114//123 9//123
f 218//124 81//124 77//124 214//124
f 85//125 222//125 220//125 83//125
f 248//126 251//126 143//126 139//126
f 214//127 220//127 147//127 141//127
f 141//128 142//128 146//128 144//128
f 141//129 147//129 148//129 142//129
f 147//130 150//130 151//130 148//130
f 220//131 222//131 150//131 147//131
f 153//10 161//10 154//10
f 157//132 153//132 154//132 158//132
f 222//133 226//133 157//133 150//133
f 150//134 157//134 158//134 151//134
f 175//135 180//135 176//135
f 174//136 177//136 180//136 175//136
f 200//137 201//137 143//137 174//137
f 139//138 203//138 202//138 175//138
f 200//139 174//139 175//139 202//139
f 143//140 201//140 203//140 139//140
f 175//141 176//141 236//141 235//141
f 248//142 253//142 218//142 144//142
f 139//143 175//143 235//143 217//143
f 144//144 218//144 214//144 141//144
f 139//142 217//142 253//142 248//142
f 144//145 146//145 251//145 248//145
f 217//146 235//146 98//146 80//146
usemtl Fins
f 218//147 259//147 122//147 81//147
f 116//148 81//148 122//148 123//148
f 132//149 79//149 84//149 137//149
f 31//150 27//150 32//150 33//150
f 96//151 233//151 226//151 89//151
f 91//152 228//152 229//152 92//152
f 92//152 23//152 22//152 91//152
f 30//153 20//153 34//153
f 96//154 30//154 23//154 92//154
f 16//155 24//155 31//155 33//155 34//155
f 97//156 32//156 27//156 95//156
f 19//157 28//157 36//157
f 33//158 32//158 22//158 23//158
f 34//159 33//159 23//159 30//159
f 95//160 27//160 26//160 94//160
f 94//161 231//161 232//161 95//161
f 94//162 26//162 29//162 93//162
f 20//153 16//153 34//153
f 89//163 20//163 30//163 96//163
f 36//164 28//164 25//164 35//164
f 91//165 22//165 32//165 97//165
f 26//166 35//166 25//166 29//166
f 18//167 36//167 35//167 31//167 24//167
f 27//168 31//168 35//168 26//168
f 18//157 19//157 36//157
f 63//169 64//169 59//169 61//169
f 64//170 66//170 60//170 59//170
f 74//171 73//171 69//171 70//171
f 65//172 63//172 61//172 62//172
f 66//173 65//173 62//173 60//173
f 73//174 75//174 67//174 69//174
f 75//175 76//175 68//175 67//175
f 76//176 74//176 70//176 68//176
f 68//177 70//177 72//177 71//177
f 69//178 67//178 71//178 72//178
f 70//179 69//179 72//179
f 67//180 68//180 71//180
f 61//181 59//181 74//181 76//181
f 62//182 61//182 76//182 75//182
f 60//183 62//183 75//183 73//183
f 59//184 60//184 73//184 74//184
f 93//185 230//185 231//185 94//185
f 95//186 232//186 234//186 97//186
f 25//187 87//187 93//187 29//187
f 92//188 229//188 233//188 96//188
f 224//187 230//187 93//187 87//187
f 19//189 90//189 88//189 28//189
f 97//190 234//190 228//190 91//190
f 225//191 224//191 87//191 88//191
f 28//191 88//191 87//191 25//191
f 227//192 225//192 88//192 90//192
f 133//193 270//193 269//193 132//193
f 254//194 256//194 119//194 117//194
f 126//195 263//195 214//195 77//195
f 112//196 124//196 125//196
f 80//197 116//197 123//197
f 259//198 249//198 112//198 122//198
f 249//199 261//199 124//199 112//199
f 262//200 125//200 124//200 261//200
f 78//201 215//201 254//201 117//201
f 121//202 258//202 257//202 120//202
f 217//203 80//203 123//203 260//203
f 120//204 257//204 252//204 115//204
f 120//205 119//205 121//205
f 115//206 117//206 119//206 120//206
f 118//207 255//207 260//207 123//207
f 115//208 78//208 117//208
f 123//196 122//196 118//196
f 125//209 262//209 255//209 118//209
f 256//210 258//210 121//210 119//210
f 220//211 264//211 127//211 83//211
f 122//196 112//196 125//196 118//196
f 128//212 265//212 263//212 126//212
f 264//213 266//213 129//213 127//213
f 77//214 83//214 127//214 126//214
f 128//215 129//215 131//215 130//215
f 126//216 127//216 129//216 128//216
f 131//217 268//217 267//217 130//217
f 130//218 267//218 265//218 128//218
f 266//219 268//219 131//219 129//219
f 216//220 221//220 84//220 79//220
f 270//221 133//221 137//221 274//221
f 137//222 84//222 135//222 136//222
f 134//223 271//223 273//223 136//223
f 136//224 273//224 274//224 137//224
f 133//225 132//225 137//225
f 221//226 272//226 135//226 84//226
f 272//227 271//227 134//227 135//227
f 136//228 135//228 134//228
f 253//229 260//229 259//229 218//229
f 269//230 274//230 221//230 216//230
f 168//231 170//231 169//231 164//231
f 229//152 228//152 159//152 160//152
f 167//232 171//232 157//232
f 233//233 229//233 160//233 167//233
f 153//234 171//234 170//234 168//234 161//234
f 234//235 232//235 164//235 169//235
f 156//236 173//236 165//236
f 170//237 160//237 159//237 169//237
f 171//238 167//238 160//238 170//238
f 232//239 231//239 163//239 164//239
f 231//240 230//240 166//240 163//240
f 157//232 171//232 153//232
f 226//241 233//241 167//241 157//241
f 173//242 172//242 162//242 165//242
f 228//243 234//243 169//243 159//243
f 163//244 166//244 162//244 172//244
f 155//245 161//245 168//245 172//245 173//245
f 164//246 163//246 172//246 168//246
f 155//236 173//236 156//236
f 200//247 198//247 196//247 201//247
f 201//248 196//248 197//248 203//248
f 211//249 207//249 206//249 210//249
f 202//250 199//250 198//250 200//250
f 203//251 197//251 199//251 202//251
f 210//252 206//252 204//252 212//252
f 212//253 204//253 205//253 213//253
f 213//254 205//254 207//254 211//254
f 205//255 208//255 209//255 207//255
f 206//256 209//256 208//256 204//256
f 207//257 209//257 206//257
f 204//258 208//258 205//258
f 198//259 213//259 211//259 196//259
f 199//260 212//260 213//260 198//260
f 197//261 210//261 212//261 199//261
f 196//262 211//262 210//262 197//262
f 162//187 166//187 230//187 224//187
f 156//263 165//263 225//263 227//263
f 165//191 162//191 224//191 225//191
f 249//264 262//264 261//264
f 217//265 260//265 253//265
f 257//266 258//266 256//266
f 252//267 257//267 256//267 254//267
f 252//268 254//268 215//268
f 260//264 255//264 259//264
f 259//264 255//264 262//264 249//264
f 214//269 263//269 264//269 220//269
f 265//270 267//270 268//270 266//270
f 263//271 265//271 266//271 264//271
f 274//272 273//272 272//272 221//272
f 270//273 274//273 269//273
f 273//274 271//274 272//274
