# Blender v2.79 (sub 0) OBJ File: 'Manta ray.blend'
# www.blender.org
mtllib manta ray.mtl
o MantaRay
v -3.744215 -1.554733 -0.947930
v -3.671203 -1.496218 -1.017210
v -3.790849 -1.499138 -0.950119
v -3.717838 -1.440622 -1.019398
v -1.742714 -0.649261 0.026272
v -1.756045 -0.571039 -0.397239
v -1.787623 -0.168419 0.017614
v -1.846395 -0.186908 -0.386821
v -0.946329 -0.139461 2.507496
v -3.286697 -0.762894 0.032078
v -0.873938 0.342701 2.467955
v -1.603563 -0.069082 0.646485
v -3.185048 -0.974404 0.054961
v -1.519525 -0.559574 0.723497
v -1.838059 -0.474400 -0.887275
v -2.969142 -0.897862 -0.793762
v -3.083027 -0.803130 -0.682468
v -1.878348 -0.286543 -0.783216
v -0.826341 -0.408299 -1.871382
v -0.809364 -0.211592 -1.789425
v -3.201565 -0.747456 -0.467120
v -3.247214 -0.770025 -0.244699
v -0.185339 -0.216034 -2.662554
v -3.058225 -1.009151 -0.246691
v -3.001428 -0.977012 -0.487407
v -1.511604 0.026481 1.309986
v -1.094864 0.122616 1.394009
v -1.532558 -0.238728 1.428625
v -1.056951 -0.377827 1.539677
v -1.495907 -0.188260 -1.070784
v -1.548464 -0.393305 -1.131832
v -1.111525 -0.360883 -1.394486
v -1.117552 -0.163078 -1.307635
v -0.242031 -0.129218 -2.633533
v -0.207446 -0.312400 -2.659299
v -0.274167 0.176501 1.964314
v -0.961201 -0.001423 2.518987
v -3.147095 -0.854746 0.139063
v -3.014427 -0.841499 -0.796003
v -0.827219 -0.307570 -1.876611
v -1.869450 -0.378665 -0.891763
v -1.545247 -0.147852 1.425731
v -1.563125 -0.295722 -1.138180
v -1.134004 -0.263202 -1.401383
v -0.112723 -0.276498 -2.636839
v -0.104265 -0.057189 -2.620421
v -0.640914 -0.130518 2.610299
v -0.634608 0.015596 2.601031
v -0.644740 0.365257 2.393495
v -0.911301 -0.020518 2.956667
v -0.867052 0.265540 2.969671
v -0.898980 -0.144601 2.925209
v -0.640474 -0.141743 2.925267
v -0.633516 -0.010037 2.948033
v -0.638645 0.286961 2.970953
v -0.888885 -0.026831 3.315639
v -0.865068 0.149700 3.328221
v -0.875366 -0.110338 3.297632
v -0.640290 -0.108749 3.297662
v -0.632833 -0.020572 3.313024
v -0.636666 0.163796 3.329157
v -0.875416 -0.024157 3.393362
v -0.864857 0.057586 3.405060
v -0.875375 -0.066609 3.389289
v -0.640325 -0.065256 3.389298
v -0.632734 -0.020691 3.397072
v -0.636312 0.065277 3.405539
v -0.119366 -0.099849 -3.684828
v -0.074476 -0.178456 -3.690132
v -0.067680 -0.002152 -3.678235
v -0.088741 0.124887 -6.657954
v -0.063279 0.080358 -6.661722
v -0.059424 0.180232 -6.653269
v -0.514722 -0.516793 1.609047
v -0.742738 -0.495476 -0.288387
v -0.630226 -0.558351 0.849700
v -0.340551 -0.218820 2.443045
v -0.821363 -0.496739 -0.749040
v -0.824031 -0.457843 -1.172985
v -0.681362 -0.510153 0.252023
v -0.657652 -0.415823 -1.483818
v -0.331883 0.390902 2.227010
v -0.657193 0.117123 -0.663593
v -0.663054 0.176345 -0.274796
v -0.756165 0.240961 0.762596
v -0.678976 -0.063311 -1.400590
v -0.765043 0.230169 0.195405
v -0.573802 0.188300 1.229243
v -0.672407 0.053749 -1.045899
v -0.340669 0.335746 2.254371
v -0.346380 -0.161157 2.431071
v -0.573015 0.019542 2.568207
v -0.577842 -0.099828 2.575776
v -0.581068 0.314102 2.398628
v -0.279898 -0.051618 1.976069
v -0.533426 0.004441 1.973300
v -0.537364 -0.050183 1.976082
v -0.539029 0.164068 1.965130
v -1.074968 0.223459 1.456598
v -0.544985 0.281922 1.294360
v -1.459134 0.150194 1.416348
v -0.058470 0.018839 -1.863338
v -0.055506 0.034244 -1.474812
v -0.067647 0.100378 -1.898428
v -0.064682 0.127212 -1.547903
v -0.073389 0.220332 -1.905572
v -0.070424 0.365003 -1.746583
v -0.080037 0.400250 -1.946533
v -0.086697 -0.029734 -3.128199
v -0.094357 -0.228347 -3.143068
v -0.144953 -0.139794 -3.136439
v -0.108129 -0.020609 -4.839042
v -0.064888 0.061127 -4.833526
v -0.070574 -0.086374 -4.843480
v -0.113747 -0.060229 -4.261934
v -0.066284 0.029488 -4.255880
v -0.072525 -0.132415 -4.266806
v -0.063492 0.092766 -5.411171
v -0.068622 -0.040332 -5.420153
v -0.102511 0.019011 -5.416148
v -0.061458 0.136065 -6.031627
v -0.065950 0.019665 -6.041478
v -0.095626 0.071563 -6.037086
v -2.426754 -0.806825 -0.081670
v -2.405252 -0.739968 -0.411757
v -2.557186 -0.437747 -0.096276
v -2.531857 -0.421563 -0.400145
v -2.607749 -0.446616 0.321590
v -2.480284 -0.827811 0.372231
v -2.386126 -0.653654 -0.803616
v -2.461607 -0.503073 -0.698712
v -2.571678 -0.697515 0.717830
v -2.417816 -0.573676 -0.807197
v -2.644983 -0.459936 0.643715
v -2.605369 -0.614582 0.752734
v -0.197629 0.063484 1.377335
v -0.203029 -0.124110 1.389892
v -0.202548 -0.066250 1.386004
v -0.457512 -0.065561 1.386601
v -0.460638 -0.120422 1.389928
v -0.464144 0.054610 1.379133
v -0.631579 -0.162031 -2.482613
v -0.623561 -0.350107 -2.495159
v -0.612765 -0.253457 -2.494662
v -0.557974 -0.141876 -2.739127
v -0.344963 -0.117566 -2.898444
v -0.549956 -0.328501 -2.753284
v -0.310378 -0.299332 -2.923535
v -0.288271 -0.208160 -2.926356
v -0.539160 -0.232789 -2.751831
v -1.157463 -0.080414 2.738431
v -1.114317 0.000938 2.602551
v 3.498948 -1.775857 -0.996130
v 3.431636 -1.709729 -1.064327
v 0.000811 -0.565730 -0.275443
v 0.001077 -0.624652 0.306411
v 3.551538 -1.725932 -0.999628
v 3.484226 -1.659804 -1.067823
v 0.001065 0.217940 -0.291067
v -0.000309 0.268758 0.247696
v 1.700387 -0.554942 -0.013266
v 1.706400 -0.497291 -0.439524
v 1.738177 -0.113526 -0.031656
v 1.823761 -0.130335 -0.436607
v 0.000249 0.255974 0.791846
v -0.000001 -0.223779 2.395200
v 0.946957 -0.139176 2.507226
v 3.168566 -0.978562 -0.013192
v -0.000001 0.409473 2.188357
v 0.870742 0.342745 2.467491
v 1.588339 -0.029055 0.633896
v 3.008365 -1.147490 0.012605
v 1.538648 -0.513008 0.719014
v 0.000632 -0.693034 0.927803
v 1.785194 -0.437959 -0.933563
v 0.000312 -0.623541 -0.709426
v 2.814432 -1.026645 -0.830036
v 2.937418 -0.947852 -0.722054
v 0.000000 0.156129 -0.726064
v 1.834850 -0.251572 -0.833202
v 0.825922 -0.410726 -1.871520
v 0.000001 -0.323704 -2.640373
v 0.000001 -0.006252 -2.616607
v 0.807823 -0.210663 -1.789383
v 3.062130 -0.911459 -0.510014
v 3.114377 -0.938982 -0.288122
v 0.185341 -0.216389 -2.662499
v 2.893456 -1.150049 -0.284807
v 2.835883 -1.115381 -0.524736
v -0.000000 0.269457 0.975247
v 1.508726 0.039303 1.301710
v 1.085028 0.130664 1.391276
v 1.540544 -0.220375 1.422138
v 1.069458 -0.366024 1.540039
v -0.000000 -0.648037 1.654384
v 1.488056 -0.162851 -1.076888
v 0.000001 0.107945 -1.068635
v 1.535153 -0.368584 -1.136915
v 0.000001 -0.569377 -0.997416
v 0.000001 -0.371416 -2.294784
v 1.105327 -0.346172 -1.395134
v 1.112965 -0.147479 -1.309264
v 0.000001 -0.420075 -1.581520
v 0.000001 0.029727 -1.883479
v 0.000001 0.040614 -1.490283
v 0.242033 -0.129985 -2.633487
v 0.207448 -0.312784 -2.659205
v 0.273028 0.173996 1.964402
v 0.960670 -0.000990 2.518627
v 3.013601 -1.018058 0.098221
v 2.865438 -0.975782 -0.833608
v 0.826458 -0.309579 -1.876723
v 1.821490 -0.343665 -0.939955
v 1.550222 -0.129306 1.418579
v 1.551311 -0.271735 -1.144359
v 1.128401 -0.248855 -1.402559
v 0.112725 -0.276498 -2.636839
v 0.104267 -0.057189 -2.620421
v 0.640698 -0.132105 2.610214
v 0.633678 0.014159 2.600923
v 0.641247 0.363683 2.393184
v 0.910682 -0.020535 2.956594
v 0.865334 0.265478 2.969617
v 0.898928 -0.144732 2.925122
v 0.640244 -0.142874 2.925199
v 0.632793 -0.011135 2.947966
v 0.636729 0.286020 2.970887
v 0.888628 -0.027059 3.315632
v 0.864504 0.149467 3.328234
v 0.875182 -0.110600 3.297611
v 0.639944 -0.109564 3.297618
v 0.632256 -0.021406 3.312988
v 0.635645 0.163028 3.329146
v 0.875182 -0.024413 3.393357
v 0.864504 0.057328 3.405064
v 0.875182 -0.066871 3.389278
v 0.639944 -0.065982 3.389266
v 0.632256 -0.021431 3.397044
v 0.635644 0.064553 3.405522
v 0.000001 -0.216405 -3.692693
v 0.000001 0.038797 -3.675472
v 0.119369 -0.099849 -3.684828
v 0.074479 -0.178456 -3.690132
v 0.067683 -0.002152 -3.678235
v 0.000002 0.058860 -6.663542
v 0.000002 0.203429 -6.651306
v 0.088746 0.124887 -6.657954
v 0.063283 0.080358 -6.661722
v 0.059428 0.180232 -6.653269
v 0.000003 0.268023 -8.306490
v 0.519074 -0.524066 1.609734
v 0.747633 -0.516336 -0.284056
v 0.637129 -0.575949 0.851724
v 0.340518 -0.219279 2.443015
v 0.818040 -0.494436 -0.747055
v 0.818420 -0.453757 -1.172143
v 0.696511 -0.543411 0.257125
v 0.655675 -0.422708 -1.483671
v 0.000171 0.181848 1.962808
v 0.330387 0.389511 2.227004
v 0.655238 0.125100 -0.662225
v 0.659772 0.178483 -0.271620
v 0.728049 0.215885 0.759428
v 0.676499 -0.060414 -1.400390
v 0.731080 0.197712 0.192925
v 0.564792 0.178136 1.228510
v 0.668403 0.056384 -1.045573
v 0.339046 0.334025 2.254334
v -0.000001 0.350702 2.230709
v 0.346176 -0.162417 2.431019
v -0.000001 -0.166296 2.400515
v 0.572028 0.017741 2.568107
v 0.577465 -0.101512 2.575704
v 0.577899 0.312106 2.398378
v 0.279243 -0.054868 1.976187
v -0.000000 -0.056070 1.975677
v 0.532201 0.000566 1.973233
v 0.536603 -0.054005 1.976059
v 0.536713 0.160698 1.964942
v 1.066151 0.228073 1.454127
v 0.537557 0.275305 1.293728
v 1.454907 0.164757 1.409857
v -0.000000 0.368061 1.034437
v 0.058472 0.018356 -1.863706
v 0.055507 0.034678 -1.475160
v 0.000001 0.123497 -1.561829
v 0.000001 0.100823 -1.919327
v 0.067648 0.100084 -1.898730
v 0.064683 0.127289 -1.548079
v 0.000001 0.361793 -1.760792
v 0.000001 0.220172 -1.927073
v 0.073391 0.220207 -1.905760
v 0.070426 0.364994 -1.746635
v 0.000001 0.400703 -1.966985
v 0.080039 0.400214 -1.946600
v 0.086699 -0.029734 -3.128199
v 0.000001 0.016396 -3.124745
v 0.094359 -0.228347 -3.143068
v 0.144955 -0.139794 -3.136439
v 0.000001 -0.271094 -3.146265
v 0.108133 -0.020609 -4.839042
v 0.064891 0.061127 -4.833526
v 0.000002 -0.118123 -4.845622
v 0.070577 -0.086374 -4.843480
v 0.000002 0.095385 -4.831214
v 0.113751 -0.060229 -4.261934
v 0.000002 -0.167264 -4.269157
v 0.066287 0.029488 -4.255880
v 0.072528 -0.132415 -4.266806
v 0.000002 0.067091 -4.253343
v 0.063496 0.092766 -5.411171
v 0.068626 -0.040332 -5.420153
v 0.000002 0.123680 -5.409085
v 0.102515 0.019011 -5.416148
v 0.000002 -0.068981 -5.422086
v 0.061462 0.136065 -6.031627
v 0.065955 0.019665 -6.041478
v 0.000002 0.163100 -6.029339
v 0.095630 0.071563 -6.037086
v 0.000002 -0.005390 -6.043599
v 2.406904 -0.774838 -0.098741
v 2.371776 -0.731256 -0.430867
v 2.554217 -0.415308 -0.121941
v 2.514421 -0.416276 -0.426625
v 2.619604 -0.405750 0.296432
v 2.465476 -0.783123 0.354413
v 2.344528 -0.657564 -0.824255
v 2.430615 -0.507605 -0.722972
v 2.574410 -0.645657 0.697022
v 2.380724 -0.579275 -0.829615
v 2.659359 -0.416158 0.617848
v 2.613172 -0.562129 0.730213
v 0.196950 0.060753 1.377991
v 0.000497 0.068725 1.376785
v -0.000000 -0.072292 1.385417
v 0.202175 -0.128397 1.390182
v 0.000143 -0.133502 1.389725
v 0.201618 -0.069992 1.386301
v 0.455524 -0.073325 1.386809
v 0.459274 -0.128117 1.390168
v 0.461151 0.047601 1.379281
v 0.000001 -0.337404 -2.571712
v 0.631581 -0.162468 -2.482578
v 0.623563 -0.350436 -2.495057
v 0.612767 -0.253856 -2.494586
v 0.000001 -0.012258 -2.445783
v 0.557976 -0.142323 -2.739099
v 0.344965 -0.117993 -2.898423
v 0.549958 -0.328891 -2.753191
v 0.310380 -0.299722 -2.923459
v 0.288273 -0.208564 -2.926306
v 0.539162 -0.233210 -2.751768
v 1.157462 -0.080414 2.738433
v 1.114315 0.000938 2.602553
vn -0.3140 0.9448 -0.0936
vn -0.4529 0.7251 -0.5187
vn -0.0353 0.9994 0.0021
vn -0.4141 0.9088 -0.0514
vn -0.4941 0.7363 -0.4623
vn -0.7428 0.6588 -0.1190
vn -0.5942 -0.3981 0.6989
vn -0.0720 0.9871 0.1431
vn -0.0590 0.9953 0.0765
vn -0.4416 -0.2751 0.8540
vn -0.7035 -0.3463 0.6207
vn -0.2830 0.9419 -0.1812
vn 0.7668 0.5790 -0.2772
vn -0.2922 0.9499 -0.1107
vn -0.1213 -0.0890 -0.9886
vn -0.6687 0.5640 -0.4845
vn -0.3367 0.9065 -0.2548
vn -0.7355 0.6665 -0.1221
vn -0.3282 0.9445 0.0124
vn -0.4171 0.5368 -0.7334
vn -0.3214 0.9444 -0.0695
vn -0.8679 -0.1226 0.4814
vn -0.2641 0.9140 -0.3080
vn -0.5940 -0.1854 -0.7828
vn -0.5044 -0.1536 -0.8497
vn -0.2638 0.9639 -0.0366
vn -0.2668 0.9269 -0.2640
vn -0.4310 0.6553 -0.6204
vn 0.2629 -0.0927 -0.9604
vn -0.0568 0.2830 -0.9574
vn -0.5726 0.6299 -0.5248
vn -0.9495 0.2789 0.1440
vn -0.8475 -0.1312 -0.5143
vn -0.3490 0.7071 -0.6149
vn -0.7287 -0.3193 0.6059
vn -0.9748 0.2083 0.0803
vn -0.7316 0.0629 0.6788
vn 0.2010 0.1266 -0.9714
vn -0.4406 -0.4012 -0.8031
vn -0.9516 0.1400 -0.2736
vn 0.9998 0.0186 -0.0002
vn 0.0533 0.5182 0.8536
vn -0.1268 0.9877 -0.0912
vn -0.9880 -0.1391 0.0675
vn -0.9868 -0.1202 0.1088
vn 0.9997 0.0221 -0.0053
vn 0.9989 -0.0474 -0.0050
vn 0.9927 -0.1175 0.0287
vn -0.9812 0.1161 0.1540
vn -0.0751 0.9458 0.3158
vn -0.9881 0.1422 0.0578
vn 0.9978 -0.0656 0.0008
vn -0.0064 -0.1344 0.9909
vn -0.0060 -0.1191 0.9929
vn -0.9856 -0.1259 0.1128
vn 0.9996 0.0262 0.0133
vn -0.0323 0.6261 0.7791
vn 0.0056 -0.9030 0.4297
vn 0.1033 0.3172 -0.9427
vn 0.3738 -0.8004 0.4686
vn -0.4920 0.8700 0.0310
vn -0.8681 -0.4904 -0.0763
vn -0.8836 0.4681 -0.0071
vn -0.4319 -0.8970 -0.0936
vn -0.8843 0.4659 0.0302
vn -0.3399 -0.9356 -0.0950
vn -0.3848 0.9209 0.0619
vn -0.8688 -0.4924 -0.0519
vn -0.8834 0.4685 -0.0069
vn -0.3224 -0.9390 -0.1195
vn -0.3644 0.9305 0.0363
vn -0.8679 -0.4887 -0.0892
vn 0.4671 0.0364 0.8834
vn 0.3578 0.4792 0.8014
vn -0.0530 0.9927 -0.1084
vn -0.1324 0.9874 -0.0869
vn -0.0787 0.9855 -0.1500
vn -0.2633 0.9639 0.0395
vn -0.1313 0.9648 -0.2278
vn -0.2454 0.9563 -0.1593
vn -0.0689 0.9870 -0.1454
vn -0.3501 0.9362 -0.0297
vn 0.4070 0.4526 0.7934
vn -0.1376 0.9888 -0.0572
vn -0.1786 0.9806 -0.0801
vn -0.3042 0.5750 -0.7595
vn -0.8621 0.2729 0.4269
vn -0.9996 -0.0213 0.0188
vn -0.9953 -0.0963 0.0135
vn 0.1711 0.6312 0.7565
vn -0.2463 -0.4206 -0.8732
vn -0.2871 -0.0664 -0.9556
vn 0.1890 0.6308 0.7525
vn -0.9987 -0.0271 0.0432
vn -0.2571 -0.2161 -0.9419
vn 0.0590 0.9823 0.1780
vn -0.3992 -0.9116 -0.0980
vn -0.8876 0.4606 -0.0037
vn -0.7564 -0.6417 -0.1268
vn -0.4539 0.8903 0.0361
vn -0.8688 -0.4933 -0.0423
vn -0.4813 0.8754 0.0448
vn -0.4227 -0.9031 -0.0753
vn -0.8843 0.4663 0.0234
vn -0.4445 -0.8927 -0.0744
vn -0.5066 0.8610 0.0440
vn -0.4534 0.8901 0.0456
vn -0.3988 -0.9139 -0.0761
vn -0.8688 -0.4925 -0.0513
vn -0.4217 0.9048 0.0596
vn -0.3714 -0.9238 -0.0927
vn -0.8843 0.4659 0.0296
vn -0.3625 0.7509 -0.5521
vn -0.4366 0.8996 0.0074
vn -0.3936 0.8418 -0.3693
vn 0.0006 -0.0423 -0.9991
vn -0.3339 0.9418 -0.0388
vn -0.0034 0.6019 -0.7986
vn -0.5995 0.4441 0.6659
vn -0.4184 0.9082 -0.0108
vn -0.9580 0.1102 -0.2646
vn -0.9483 0.0401 -0.3150
vn -0.2779 0.9342 -0.2237
vn -0.5795 0.0961 -0.8093
vn -0.5790 -0.0589 -0.8132
vn -0.9461 -0.1567 -0.2836
vn -0.0614 0.9960 0.0642
vn 0.9047 -0.2250 -0.3617
vn 0.2686 0.9626 -0.0355
vn 0.5404 0.6652 -0.5152
vn 0.0757 0.9971 -0.0047
vn 0.6815 0.7267 -0.0861
vn 0.5834 0.6706 -0.4582
vn 0.8062 0.5730 -0.1473
vn 0.5248 -0.4948 0.6926
vn 0.0667 0.9876 0.1423
vn 0.0909 0.9941 0.0597
vn 0.4593 -0.2710 0.8459
vn 0.5812 -0.5240 0.6226
vn 0.2470 0.9464 -0.2079
vn -0.7663 0.5799 -0.2766
vn 0.2731 0.9551 -0.1148
vn 0.1414 -0.1263 -0.9819
vn 0.6644 0.5597 -0.4953
vn 0.3937 0.8664 -0.3071
vn 0.8356 0.5425 -0.0866
vn 0.3634 0.9316 0.0001
vn 0.4292 0.5262 -0.7341
vn 0.3107 0.9493 -0.0486
vn 0.8702 -0.1052 0.4813
vn 0.2392 0.9207 -0.3085
vn 0.5662 -0.2130 -0.7962
vn 0.5043 -0.1668 -0.8473
vn 0.2637 0.9639 -0.0369
vn 0.2433 0.9296 -0.2769
vn 0.4224 0.6450 -0.6368
vn -0.2624 -0.0930 -0.9605
vn 0.0587 0.2829 -0.9573
vn 0.5612 0.6173 -0.5514
vn 0.9444 0.3094 0.1111
vn 0.8532 -0.1336 -0.5042
vn 0.4030 0.6644 -0.6294
vn 0.6268 -0.4823 0.6120
vn 0.9736 0.2139 0.0794
vn 0.7749 -0.0847 0.6264
vn -0.2068 0.1447 -0.9676
vn 0.3755 -0.4522 -0.8091
vn 0.9519 0.1411 -0.2719
vn -0.9999 0.0152 0.0006
vn -0.0512 0.5172 0.8544
vn 0.1190 0.9889 -0.0890
vn 0.9885 -0.1359 0.0670
vn 0.9874 -0.1138 0.1097
vn -0.9999 0.0166 -0.0040
vn -0.9986 -0.0517 -0.0048
vn -0.9923 -0.1202 0.0298
vn 0.9811 0.1178 0.1535
vn 0.0720 0.9461 0.3156
vn 0.9878 0.1452 0.0563
vn -0.9976 -0.0689 0.0010
vn 0.0065 -0.1345 0.9909
vn 0.0061 -0.1192 0.9928
vn 0.9858 -0.1249 0.1124
vn -0.9996 0.0237 0.0146
vn 0.0308 0.6262 0.7791
vn -0.0037 -0.9028 0.4300
vn -0.1022 0.3148 -0.9436
vn -0.3573 -0.7708 0.5275
vn 0.4920 0.8700 0.0310
vn 0.8681 -0.4904 -0.0763
vn 0.8836 0.4681 -0.0071
vn 0.4319 -0.8970 -0.0936
vn 0.8843 0.4659 0.0302
vn 0.3399 -0.9356 -0.0950
vn 0.3848 0.9209 0.0619
vn 0.8688 -0.4924 -0.0519
vn 0.8834 0.4685 -0.0069
vn 0.3224 -0.9390 -0.1195
vn 0.3644 0.9305 0.0363
vn 0.8679 -0.4887 -0.0892
vn -0.4670 0.0343 0.8836
vn -0.3604 0.4773 0.8014
vn 0.0771 0.9942 -0.0748
vn 0.1214 0.9884 -0.0909
vn 0.0718 0.9849 -0.1573
vn 0.2068 0.9783 0.0151
vn 0.1281 0.9654 -0.2269
vn 0.2438 0.9561 -0.1627
vn 0.0618 0.9885 -0.1383
vn 0.2773 0.9597 -0.0455
vn -0.4089 0.4501 0.7939
vn 0.1484 0.9872 -0.0589
vn 0.1511 0.9851 -0.0823
vn 0.2881 0.5732 -0.7671
vn 0.8576 0.2890 0.4255
vn 0.9996 -0.0213 0.0188
vn 0.9953 -0.0963 0.0137
vn -0.1704 0.6316 0.7564
vn 0.2398 -0.4203 -0.8752
vn 0.2839 -0.0658 -0.9566
vn -0.1881 0.6309 0.7527
vn 0.9987 -0.0271 0.0432
vn 0.2555 -0.2158 -0.9424
vn -0.0586 0.9823 0.1779
vn 0.3992 -0.9116 -0.0980
vn 0.8879 0.4601 -0.0036
vn 0.7556 -0.6425 -0.1271
vn 0.4539 0.8903 0.0361
vn 0.8688 -0.4933 -0.0423
vn 0.4813 0.8754 0.0448
vn 0.4227 -0.9031 -0.0753
vn 0.8843 0.4663 0.0234
vn 0.4445 -0.8927 -0.0744
vn 0.5066 0.8610 0.0440
vn 0.4534 0.8901 0.0456
vn 0.3988 -0.9139 -0.0761
vn 0.8688 -0.4925 -0.0513
vn 0.4217 0.9048 0.0596
vn 0.3714 -0.9238 -0.0927
vn 0.8843 0.4659 0.0296
vn 0.5251 0.6244 -0.5783
vn 0.6651 0.7426 -0.0788
vn 0.5854 0.6965 -0.4151
vn -0.0426 -0.0403 -0.9983
vn 0.3328 0.9413 -0.0557
vn -0.0158 0.6054 -0.7958
vn 0.5936 0.4681 0.6546
vn 0.7030 0.7083 -0.0640
vn 0.9580 0.1102 -0.2647
vn 0.9485 0.0417 -0.3140
vn 0.2788 0.9334 -0.2259
vn 0.5795 0.0959 -0.8093
vn 0.5790 -0.0592 -0.8132
vn 0.9460 -0.1569 -0.2836
vn 0.0606 0.9961 0.0648
vn -0.9047 -0.2251 -0.3616
vn 0.1190 -0.9874 -0.1044
vn 0.6057 -0.7954 0.0210
vn 0.2276 -0.9711 0.0720
vn 0.0686 -0.9975 0.0174
vn -0.1188 -0.9761 0.1819
vn -0.1257 -0.9838 -0.1281
vn -0.1271 -0.9889 0.0765
vn 0.3801 -0.9059 -0.1867
vn 0.2496 -0.9514 -0.1805
vn 0.4119 -0.8693 0.2733
vn 0.6658 -0.7364 -0.1201
vn -0.2102 -0.9207 0.3287
vn -0.3266 -0.9084 0.2611
vn -0.0645 -0.9733 -0.2201
vn -0.0151 -0.9703 -0.2413
vn 0.0039 -0.9987 -0.0516
vn 0.5249 0.1045 0.8447
vn -0.0540 -0.9681 0.2446
vn 0.0253 -0.9994 -0.0240
vn 0.0090 -0.9959 0.0896
vn -0.0382 -0.9806 -0.1924
vn -0.1256 -0.9583 -0.2565
vn -0.1773 -0.9804 -0.0864
vn 0.0390 -0.9936 -0.1063
vn -0.2331 -0.9696 0.0745
vn -0.1411 -0.8939 0.4255
vn -0.1256 -0.9904 -0.0581
vn -0.1142 -0.9930 0.0304
vn 0.1779 -0.8949 0.4092
vn 0.0492 -0.8584 0.5106
vn 0.0269 0.9694 0.2442
vn 0.9959 0.0573 0.0699
vn 0.1141 0.0631 0.9915
vn 0.9892 -0.0563 0.1355
vn 0.0228 -0.9814 0.1907
vn 0.0099 0.9928 -0.1196
vn 0.0403 -0.9807 0.1912
vn 0.1732 0.9711 0.1641
vn 0.9968 -0.0463 0.0655
vn 0.3543 -0.9284 -0.1124
vn 0.2614 -0.9412 -0.2139
vn 0.0055 -0.9141 0.4054
vn 0.0319 -0.9324 0.3600
vn 0.2449 -0.9693 0.0218
vn 0.0018 0.0638 0.9980
vn 0.0036 0.0645 0.9979
vn 0.0045 0.0687 0.9976
vn 0.0030 0.0637 0.9980
vn 0.9915 0.0501 0.1198
vn 0.0283 0.9918 -0.1250
vn -0.0012 -0.9948 -0.1021
vn 0.0659 -0.9954 -0.0698
vn -0.0153 -0.9960 -0.0881
vn -0.6896 -0.7229 0.0430
vn -0.5387 -0.8342 0.1181
vn 0.0295 -0.9995 0.0120
vn 0.1732 -0.9671 0.1862
vn 0.1300 -0.9829 -0.1307
vn 0.1146 -0.9922 0.0487
vn -0.6307 -0.7644 -0.1337
vn -0.3178 -0.9414 -0.1135
vn -0.5610 -0.7970 0.2236
vn -0.7576 -0.6391 -0.1325
vn 0.2261 -0.9160 0.3314
vn 0.3434 -0.9038 0.2555
vn 0.0640 -0.9760 -0.2082
vn 0.0142 -0.9708 -0.2395
vn -0.0085 -0.9984 -0.0563
vn -0.5247 0.1038 0.8449
vn 0.0565 -0.9704 0.2348
vn -0.0201 -0.9995 -0.0236
vn -0.0058 -0.9959 0.0900
vn 0.0646 -0.9783 -0.1970
vn 0.1593 -0.9537 -0.2552
vn 0.1399 -0.9873 -0.0751
vn 0.0247 -0.9964 -0.0807
vn 0.2116 -0.9740 0.0805
vn 0.1320 -0.8937 0.4289
vn 0.0871 -0.9936 -0.0721
vn 0.1600 -0.9863 0.0398
vn -0.1810 -0.8933 0.4114
vn -0.0555 -0.8572 0.5119
vn -0.0199 0.9702 0.2417
vn -0.9963 0.0503 0.0702
vn -0.1139 0.0636 0.9915
vn -0.9882 -0.0659 0.1381
vn -0.0342 -0.9809 0.1916
vn -0.0022 0.9922 -0.1247
vn -0.0498 -0.9794 0.1956
vn -0.1703 0.9722 0.1604
vn -0.9964 -0.0524 0.0660
vn -0.6251 -0.7805 -0.0055
vn -0.3294 -0.9308 -0.1587
vn 0.0050 -0.9214 0.3887
vn -0.2964 -0.8501 0.4353
vn -0.2868 -0.9580 0.0022
vn -0.0006 0.0638 0.9980
vn -0.0015 0.0628 0.9980
vn -0.0046 0.0683 0.9977
vn -0.0044 0.0622 0.9981
vn -0.9916 0.0426 0.1220
vn -0.0127 0.9918 -0.1269
vn 0.0000 -0.9946 -0.1042
vn -0.0659 -0.9954 -0.0696
usemtl Top
s off
f 7//1 87//1 84//1 8//1
f 4//2 17//2 39//2
f 160//3 87//3 85//3 165//3
f 126//4 22//4 10//4 128//4
f 4//5 21//5 17//5
f 3//6 22//6 21//6 4//6
f 38//7 13//7 132//7 135//7
f 49//8 11//8 51//8 55//8
f 165//9 85//9 88//9 190//9
f 135//10 132//10 28//10 42//10
f 3//11 38//11 10//11
f 8//12 84//12 83//12 18//12
f 34//13 23//13 149//13 146//13
f 18//14 83//14 89//14 30//14
f 133//15 41//15 15//15 130//15
f 40//16 44//16 33//16 20//16
f 131//17 127//17 8//17 18//17
f 10//18 22//18 3//18
f 127//19 126//19 7//19 8//19
f 190//20 88//20 100//20 283//20
f 128//21 134//21 26//21 27//21 12//21
f 42//22 28//22 9//22 37//22
f 30//23 89//23 86//23 33//23
f 43//24 31//24 15//24 41//24
f 44//25 32//25 31//25 43//25
f 20//26 102//26 204//26 346//26 142//26
f 33//27 86//27 20//27
f 33//28 44//28 43//28 30//28
f 35//29 23//29 45//29
f 23//30 34//30 46//30
f 30//31 43//31 41//31 18//31
f 26//32 42//32 101//32
f 19//33 32//33 44//33 40//33
f 131//34 18//34 41//34 133//34
f 1//35 13//35 38//35 3//35
f 11//36 37//36 50//36 51//36
f 10//37 38//37 135//37 134//37
f 2//38 4//38 39//38 16//38
f 1//39 3//39 4//39 2//39
f 144//40 40//40 20//40 142//40
f 54//41 55//41 61//41 60//41
f 169//42 82//42 90//42 269//42
f 49//43 99//43 11//43
f 50//44 52//44 58//44 56//44
f 37//45 9//45 52//45 50//45
f 48//46 49//46 55//46 54//46
f 47//47 48//47 54//47 53//47
f 59//48 60//48 66//48 65//48
f 57//49 56//49 62//49 63//49
f 55//50 51//50 57//50 61//50
f 51//51 50//51 56//51 57//51
f 53//52 54//52 60//52 59//52
f 62//53 64//53 65//53 66//53
f 63//54 62//54 66//54 67//54
f 56//55 58//55 64//55 62//55
f 60//56 61//56 67//56 66//56
f 61//57 57//57 63//57 67//57
f 58//58 59//58 65//58 64//58
f 45//59 182//59 35//59
f 46//60 34//60 183//60
f 109//61 297//61 241//61 70//61
f 110//62 111//62 68//62 69//62
f 111//63 109//63 70//63 68//63
f 300//64 110//64 69//64 240//64
f 123//65 121//65 73//65 71//65
f 320//66 122//66 72//66 245//66
f 121//67 318//67 246//67 73//67
f 122//68 123//68 71//68 72//68
f 71//69 73//69 250//69
f 245//70 72//70 250//70
f 73//71 246//71 250//71
f 72//72 71//72 250//72
f 48//73 47//73 93//73 92//73
f 49//74 48//74 92//74 94//74
f 84//75 87//75 160//75 159//75
f 82//76 100//76 99//76 49//76
f 89//77 83//77 179//77 197//77
f 88//78 85//78 12//78 27//78
f 86//79 89//79 197//79 205//79 103//79
f 20//80 86//80 103//80 102//80
f 83//81 84//81 159//81 179//81
f 85//82 87//82 7//82 12//82
f 82//83 49//83 94//83 90//83
f 283//84 100//84 82//84 169//84
f 99//85 101//85 11//85
f 99//86 100//86 88//86 27//86
f 101//87 42//87 37//87 11//87
f 104//88 105//88 107//88 106//88
f 102//89 103//89 105//89 104//89
f 103//90 205//90 286//90 105//90
f 204//91 102//91 104//91 287//91
f 287//92 104//92 106//92 291//92
f 105//93 286//93 290//93 107//93
f 106//94 107//94 108//94
f 291//95 106//95 108//95 294//95
f 107//96 290//96 294//96 108//96
f 182//97 45//97 110//97 300//97
f 23//98 46//98 109//98 111//98
f 45//99 23//99 111//99 110//99
f 46//100 183//100 297//100 109//100
f 117//101 115//101 112//101 114//101
f 116//102 310//102 305//102 113//102
f 307//103 117//103 114//103 303//103
f 115//104 116//104 113//104 112//104
f 68//104 70//104 116//104 115//104
f 240//105 69//105 117//105 307//105
f 70//106 241//106 310//106 116//106
f 69//101 68//101 115//101 117//101
f 114//101 112//101 120//101 119//101
f 113//107 305//107 313//107 118//107
f 303//108 114//108 119//108 315//108
f 112//104 113//104 118//104 120//104
f 119//109 120//109 123//109 122//109
f 118//110 313//110 318//110 121//110
f 315//111 119//111 122//111 320//111
f 120//112 118//112 121//112 123//112
f 17//113 131//113 133//113 39//113
f 21//114 22//114 126//114 127//114
f 17//115 21//115 127//115 131//115
f 39//116 133//116 130//116 16//116
f 7//117 126//117 128//117 12//117
f 27//118 26//118 101//118 99//118
f 134//119 135//119 42//119 26//119
f 134//120 128//120 10//120
f 143//121 144//121 150//121 147//121
f 19//122 40//122 144//122 143//122
f 142//123 346//123 183//123 34//123
f 147//124 150//124 149//124 148//124
f 149//125 150//125 145//125 146//125
f 144//126 142//126 145//126 150//126
f 142//127 34//127 146//127 145//127
f 23//128 35//128 148//128 149//128
f 163//129 164//129 262//129 265//129
f 158//130 211//130 178//130
f 160//131 165//131 263//131 265//131
f 323//132 325//132 168//132 186//132
f 158//133 178//133 185//133
f 157//134 158//134 185//134 186//134
f 210//135 332//135 329//135 172//135
f 221//136 227//136 223//136 170//136
f 165//137 190//137 266//137 263//137
f 332//138 214//138 193//138 329//138
f 157//139 168//139 210//139
f 164//140 180//140 261//140 262//140
f 206//141 348//141 351//141 187//141
f 180//142 196//142 267//142 261//142
f 330//143 327//143 175//143 213//143
f 212//144 184//144 202//144 216//144
f 328//145 180//145 164//145 324//145
f 168//146 157//146 186//146
f 324//147 164//147 163//147 323//147
f 190//148 283//148 281//148 266//148
f 325//149 171//149 192//149 191//149 331//149
f 214//150 209//150 167//150 193//150
f 196//151 202//151 264//151 267//151
f 215//152 213//152 175//152 198//152
f 216//153 215//153 198//153 201//153
f 184//154 343//154 346//154 204//154 284//154
f 202//155 184//155 264//155
f 202//156 196//156 215//156 216//156
f 207//157 217//157 187//157
f 187//158 218//158 206//158
f 196//159 180//159 213//159 215//159
f 191//160 282//160 214//160
f 181//161 212//161 216//161 201//161
f 328//162 330//162 213//162 180//162
f 153//163 157//163 210//163 172//163
f 170//164 223//164 222//164 209//164
f 168//165 331//165 332//165 210//165
f 154//166 177//166 211//166 158//166
f 153//167 154//167 158//167 157//167
f 345//168 343//168 184//168 212//168
f 226//169 232//169 233//169 227//169
f 169//170 269//170 268//170 260//170
f 221//171 170//171 280//171
f 222//172 228//172 230//172 224//172
f 209//173 222//173 224//173 167//173
f 220//174 226//174 227//174 221//174
f 219//175 225//175 226//175 220//175
f 231//176 237//176 238//176 232//176
f 229//177 235//177 234//177 228//177
f 227//178 233//178 229//178 223//178
f 223//179 229//179 228//179 222//179
f 225//180 231//180 232//180 226//180
f 234//181 238//181 237//181 236//181
f 235//182 239//182 238//182 234//182
f 228//183 234//183 236//183 230//183
f 232//184 238//184 239//184 233//184
f 233//185 239//185 235//185 229//185
f 230//186 236//186 237//186 231//186
f 217//187 207//187 182//187
f 218//188 183//188 206//188
f 296//189 244//189 241//189 297//189
f 298//190 243//190 242//190 299//190
f 299//191 242//191 244//191 296//191
f 300//192 240//192 243//192 298//192
f 319//193 247//193 249//193 316//193
f 320//194 245//194 248//194 317//194
f 316//195 249//195 246//195 318//195
f 317//196 248//196 247//196 319//196
f 247//197 250//197 249//197
f 245//198 250//198 248//198
f 249//199 250//199 246//199
f 248//200 250//200 247//200
f 220//201 272//201 273//201 219//201
f 221//202 274//202 272//202 220//202
f 262//203 159//203 160//203 265//203
f 260//204 221//204 280//204 281//204
f 267//205 197//205 179//205 261//205
f 266//206 192//206 171//206 263//206
f 264//207 285//207 205//207 197//207 267//207
f 184//208 284//208 285//208 264//208
f 261//209 179//209 159//209 262//209
f 263//210 171//210 163//210 265//210
f 260//211 268//211 274//211 221//211
f 283//212 169//212 260//212 281//212
f 280//213 170//213 282//213
f 280//214 192//214 266//214 281//214
f 282//215 170//215 209//215 214//215
f 288//216 292//216 293//216 289//216
f 284//217 288//217 289//217 285//217
f 285//218 289//218 286//218 205//218
f 204//219 287//219 288//219 284//219
f 287//220 291//220 292//220 288//220
f 289//221 293//221 290//221 286//221
f 292//222 295//222 293//222
f 291//223 294//223 295//223 292//223
f 293//224 295//224 294//224 290//224
f 182//225 300//225 298//225 217//225
f 187//226 299//226 296//226 218//226
f 217//227 298//227 299//227 187//227
f 218//228 296//228 297//228 183//228
f 309//229 304//229 301//229 306//229
f 308//230 302//230 305//230 310//230
f 307//231 303//231 304//231 309//231
f 306//232 301//232 302//232 308//232
f 242//232 306//232 308//232 244//232
f 240//233 307//233 309//233 243//233
f 244//234 308//234 310//234 241//234
f 243//229 309//229 306//229 242//229
f 304//229 312//229 314//229 301//229
f 302//235 311//235 313//235 305//235
f 303//236 315//236 312//236 304//236
f 301//232 314//232 311//232 302//232
f 312//237 317//237 319//237 314//237
f 311//238 316//238 318//238 313//238
f 315//239 320//239 317//239 312//239
f 314//240 319//240 316//240 311//240
f 178//241 211//241 330//241 328//241
f 185//242 324//242 323//242 186//242
f 178//243 328//243 324//243 185//243
f 211//244 177//244 327//244 330//244
f 163//245 171//245 325//245 323//245
f 192//246 280//246 282//246 191//246
f 331//247 191//247 214//247 332//247
f 331//248 168//248 325//248
f 344//249 349//249 352//249 345//249
f 181//250 344//250 345//250 212//250
f 343//251 206//251 183//251 346//251
f 349//252 350//252 351//252 352//252
f 351//253 348//253 347//253 352//253
f 345//254 352//254 347//254 343//254
f 343//255 347//255 348//255 206//255
f 187//256 351//256 350//256 207//256
usemtl Bottom
f 5//257 6//257 75//257 80//257
f 1//258 2//258 25//258 24//258
f 124//259 129//259 13//259 24//259
f 5//260 80//260 76//260 14//260
f 14//261 76//261 74//261 29//261
f 176//262 78//262 79//262 199//262
f 155//263 75//263 78//263 176//263
f 125//264 25//264 16//264 130//264
f 124//265 125//265 6//265 5//265
f 24//266 13//266 1//266
f 25//267 2//267 16//267
f 29//268 74//268 77//268 47//268
f 28//269 29//269 9//269
f 199//270 79//270 81//270 203//270
f 342//271 143//271 35//271 182//271
f 203//272 81//272 19//272 200//272
f 47//273 77//273 91//273 93//273
f 47//274 9//274 29//274
f 9//275 47//275 53//275 52//275
f 52//276 53//276 59//276 58//276
f 79//277 78//277 15//277 31//277
f 81//278 79//278 31//278 32//278
f 76//279 80//279 156//279 174//279
f 78//280 75//280 6//280 15//280
f 74//281 76//281 174//281 195//281
f 77//282 74//282 195//282 166//282
f 80//283 75//283 155//283 156//283
f 19//284 81//284 32//284
f 90//285 94//285 98//285 36//285
f 269//286 90//286 36//286 259//286
f 91//287 271//287 276//287 95//287
f 94//288 92//288 96//288 98//288
f 77//289 166//289 271//289 91//289
f 96//290 97//290 140//290 139//290
f 259//291 36//291 136//291 334//291
f 97//292 95//292 137//292 140//292
f 36//293 98//293 141//293 136//293
f 93//294 91//294 95//294 97//294
f 92//295 93//295 97//295 96//295
f 24//296 25//296 125//296 124//296
f 6//297 125//297 130//297 15//297
f 132//298 129//298 14//298 29//298 28//298
f 13//299 129//299 132//299
f 5//300 14//300 129//300 124//300
f 139//301 140//301 137//301 138//301
f 141//302 139//302 138//302 136//302
f 138//303 137//303 337//303 335//303
f 136//304 138//304 335//304 334//304
f 98//305 96//305 139//305 141//305
f 95//306 276//306 337//306 137//306
f 200//307 19//307 143//307 342//307
f 35//308 143//308 147//308 148//308
f 161//309 257//309 252//309 162//309
f 153//310 188//310 189//310 154//310
f 321//311 188//311 172//311 326//311
f 161//312 173//312 253//312 257//312
f 173//313 194//313 251//313 253//313
f 176//314 199//314 256//314 255//314
f 155//315 176//315 255//315 252//315
f 322//316 327//316 177//316 189//316
f 321//317 161//317 162//317 322//317
f 188//318 153//318 172//318
f 189//319 177//319 154//319
f 194//320 219//320 254//320 251//320
f 193//321 167//321 194//321
f 199//322 203//322 258//322 256//322
f 342//323 182//323 207//323 344//323
f 203//324 200//324 181//324 258//324
f 219//325 273//325 270//325 254//325
f 219//326 194//326 167//326
f 167//327 224//327 225//327 219//327
f 224//328 230//328 231//328 225//328
f 256//329 198//329 175//329 255//329
f 258//330 201//330 198//330 256//330
f 253//331 174//331 156//331 257//331
f 255//332 175//332 162//332 252//332
f 251//333 195//333 174//333 253//333
f 254//334 166//334 195//334 251//334
f 257//335 156//335 155//335 252//335
f 181//336 201//336 258//336
f 268//337 208//337 279//337 274//337
f 269//338 259//338 208//338 268//338
f 270//339 275//339 276//339 271//339
f 274//340 279//340 277//340 272//340
f 254//341 270//341 271//341 166//341
f 277//342 339//342 340//342 278//342
f 259//343 334//343 333//343 208//343
f 278//344 340//344 336//344 275//344
f 208//345 333//345 341//345 279//345
f 273//346 278//346 275//346 270//346
f 272//347 277//347 278//347 273//347
f 188//348 321//348 322//348 189//348
f 162//349 175//349 327//349 322//349
f 329//350 193//350 194//350 173//350 326//350
f 172//351 329//351 326//351
f 161//352 321//352 326//352 173//352
f 339//353 338//353 336//353 340//353
f 341//354 333//354 338//354 339//354
f 338//355 335//355 337//355 336//355
f 333//356 334//356 335//356 338//356
f 279//357 341//357 339//357 277//357
f 275//358 336//358 337//358 276//358
f 200//359 342//359 344//359 181//359
f 207//360 350//360 349//360 344//360
l 152 151
l 354 353
