# Blender v2.79 (sub 0) OBJ File: 'Shark.blend'
# www.blender.org
mtllib shark.mtl
o Shark_Cylinder
v 1.164538 -0.594051 1.797952
v 0.856614 -0.442347 -1.281517
v 1.434057 0.333250 1.798384
v 1.126944 0.335265 -1.298012
v 1.164844 1.454156 1.799360
v 0.857582 1.057525 -1.280872
v 0.147622 -0.088760 -4.056776
v 0.159289 0.207189 -4.059624
v 0.142944 0.537450 -4.054962
v 0.527350 -0.333549 -2.651906
v 0.660143 0.271634 -2.661576
v 0.526516 0.774235 -2.650993
v -0.632529 0.036446 -5.605961
v 0.569492 -0.141488 -2.654991
v -0.654840 0.408280 -5.600757
v -0.917127 0.036965 -6.809802
v 0.396165 -0.034560 -3.377108
v -0.927468 0.408810 -6.807302
v -0.749375 1.296180 -6.178620
v -0.943892 1.330478 -7.071883
v -0.897112 2.073754 -6.852217
v -1.021892 1.895867 -7.431094
v -1.050853 2.590415 -7.552133
v -1.126298 2.573593 -7.898783
v 1.200235 -0.406360 4.040752
v 1.361838 0.335458 4.040150
v 1.202418 1.288257 4.041761
v -0.782997 -0.701305 -6.247755
v -0.922448 -0.616414 -6.869252
v -0.905946 -1.157491 -6.803938
v -0.989987 -0.964033 -7.183487
v -1.026917 -1.429930 -7.347958
v -1.079728 -1.376149 -7.585698
v 0.767260 0.082911 5.515044
v 1.107743 1.129618 5.601514
v 0.925267 0.434392 5.552978
v 0.670786 0.870975 6.923702
v 0.355816 0.838879 7.576628
v 0.667596 0.326711 6.938675
v 0.837813 0.221361 6.296666
v 0.089556 1.421965 -1.232721
v 0.210275 1.752784 1.802444
v 0.113417 2.026021 1.337655
v 0.066864 1.842505 -0.497640
v 0.108857 2.517277 0.850940
v 0.083240 2.124206 -0.341116
v 0.103122 3.192768 0.462859
v 0.092983 2.533572 -0.311532
v 0.093935 3.640735 -0.171348
v 0.100527 3.632392 -0.286415
v 0.434706 0.238394 -3.397207
v 0.369608 -0.207374 -3.371756
v 0.365333 0.651913 -3.374505
v -0.274917 0.681169 -3.980590
v -0.153183 0.880820 -3.320669
v -0.238219 1.054457 -3.475311
v -0.294116 1.005908 -3.824401
v -0.276941 1.224810 -3.716411
v -0.290918 1.155711 -3.805048
v 1.276644 -0.212569 1.793828
v 1.133584 -0.564090 1.162832
v 1.173176 -0.506043 2.848158
v 1.774367 -0.749689 1.304943
v 1.765799 -0.772642 1.810481
v 1.748896 -0.726068 2.662817
v 1.764029 -0.613524 1.808967
v 1.749795 -0.619086 2.565995
v 1.773224 -0.648163 1.293237
v 1.229064 -0.260536 2.731373
v 1.214212 -0.313628 1.150313
v 2.361277 -1.085643 1.623167
v 2.449856 -0.987832 1.596369
v 2.343832 -1.066214 1.318805
v 2.390929 -1.118685 2.142228
v 2.476966 -1.018031 2.069952
v 2.432594 -0.968596 1.294032
v 2.857748 -1.548901 1.149821
v 2.946328 -1.451091 1.123023
v 2.611215 -1.315900 1.083321
v 2.692714 -1.399734 1.798769
v 2.778751 -1.299080 1.726493
v 2.699977 -1.218282 1.058548
v 2.714522 -1.234792 1.344032
v 2.679480 -1.382559 1.319786
v 0.587517 -0.231769 -3.337932
v 0.720963 -0.349673 -3.016924
v 0.721333 -0.193519 -3.020249
v 0.587083 -0.091294 -3.339671
v 0.762431 -0.218669 -3.414534
v 0.840167 -0.301754 -3.259659
v 0.840087 -0.203328 -3.259915
v 0.762344 -0.130121 -3.414669
v 0.909860 -0.178060 -3.494458
v 0.908004 -0.270645 -3.498762
v 0.842333 -0.202510 -3.267645
v 1.331091 0.349947 4.148234
v 1.170144 -0.356320 4.141909
v 1.195681 1.299539 4.158504
v 1.315229 0.360295 4.213692
v 1.152201 -0.335608 4.205015
v 1.191661 1.294828 4.225064
v 1.267353 0.363150 4.379483
v 1.105622 -0.283774 4.366808
v 1.181359 1.279339 4.394803
v 1.247515 0.391401 4.446279
v 1.086000 -0.260330 4.433060
v 1.177090 1.276736 4.466261
v 1.188243 0.399088 4.650813
v 1.027374 -0.194973 4.632292
v 1.164335 1.260930 4.677700
v 1.169081 0.432907 4.714284
v 1.008421 -0.172440 4.696173
v 1.160211 1.259856 4.747312
v 0.874957 -0.067298 4.657719
v 0.891544 -0.083259 4.600472
v 1.007796 1.181184 4.702197
v 1.011405 1.190354 4.643772
v 1.032328 0.443919 4.618107
v 1.015559 0.449173 4.675736
v 0.830441 -0.143768 4.365104
v 0.847334 -0.158784 4.306396
v 0.908860 1.177272 4.389935
v 0.912535 1.187424 4.330696
v 0.986568 0.404831 4.317088
v 0.969489 0.406974 4.376162
v 0.950577 -0.197782 4.148239
v 0.965822 -0.211481 4.095052
v 0.983362 1.151393 4.162382
v 0.986690 1.160304 4.108696
v 1.100159 0.375981 4.100642
v 1.085044 0.376798 4.154439
v 0.061859 1.863763 -0.658853
v 0.000178 -1.060452 1.799743
v -0.137290 -0.909519 -1.220109
v -1.165116 -0.597413 1.798532
v -1.135518 -0.442833 -1.157587
v -1.432341 0.333293 1.801766
v -1.405209 0.334648 -1.141031
v -1.160868 1.454012 1.804826
v -1.133217 1.057044 -1.158766
v 0.000418 1.818586 1.802492
v -0.126392 1.524204 -1.220330
v -0.972304 -0.090155 -3.855084
v -0.418105 -0.335296 -3.955446
v -0.985092 0.205758 -3.852017
v -0.966398 0.536084 -3.856803
v -0.411751 0.728507 -3.955826
v -0.227258 -0.690123 -2.593938
v -0.983666 -0.334089 -2.535969
v -1.117629 0.271009 -2.526275
v -0.985140 0.773713 -2.536919
v -0.227604 1.108849 -2.593752
v -0.831180 0.036266 -5.561075
v -0.731813 -0.017851 -5.583551
v -1.026161 -0.142054 -2.532853
v -0.809442 0.408140 -5.565823
v -0.732156 0.427851 -5.583278
v -1.091839 0.036806 -6.770324
v -1.004441 -0.017321 -6.790096
v -0.969269 -0.035448 -3.225979
v -1.082070 0.408669 -6.772368
v -1.004784 0.428380 -6.789824
v -0.859897 1.296076 -6.153993
v -0.970371 1.295972 -6.129377
v -1.165032 1.330262 -7.023262
v -1.054345 1.330369 -7.047596
v -1.007712 2.073647 -6.827835
v -1.118214 2.073540 -6.803472
v -1.243062 1.895648 -7.382645
v -1.132427 1.895757 -7.406880
v -1.161453 2.590307 -7.527809
v -1.271980 2.590199 -7.503500
v -1.347439 2.573376 -7.850220
v -1.236780 2.573484 -7.874518
v 0.000000 -0.873686 4.041761
v -1.200715 -0.405859 4.041094
v -1.363651 0.335532 4.040956
v -1.202418 1.288257 4.041761
v -0.876501 -0.701390 -6.226627
v -0.970005 -0.701474 -6.205499
v -1.109482 -0.616585 -6.827137
v -1.015506 -0.616501 -6.848284
v -0.999542 -1.157578 -6.782956
v -1.093019 -1.157665 -6.761999
v -1.177092 -0.964208 -7.141678
v -1.083481 -0.964121 -7.162594
v -1.120482 -1.430017 -7.327021
v -1.214005 -1.430104 -7.306091
v -1.266824 -1.376324 -7.543868
v -1.173173 -1.376237 -7.564803
v 0.000000 1.608400 4.041761
v -0.000000 -0.469582 5.242359
v -0.767260 0.082851 5.515068
v 0.000000 1.484881 5.627563
v -1.107743 1.129526 5.601482
v -0.925267 0.434295 5.552993
v 0.000000 1.225293 6.927849
v -0.670786 0.870975 6.923702
v 0.000000 1.011769 7.776400
v -0.355815 0.838879 7.576628
v 0.000000 0.107412 7.104385
v -0.667596 0.326711 6.938675
v -0.837813 0.221315 6.296694
v 0.000000 -0.275257 6.322405
v 0.000000 0.797360 7.867485
v -0.346506 1.421866 -1.207804
v -0.209741 1.752783 1.802585
v -0.108687 2.026014 1.339359
v 0.002325 2.026017 1.338506
v -0.052067 1.842488 -0.493546
v -0.171743 1.842472 -0.489425
v -0.113226 2.517266 0.853637
v -0.002165 2.517271 0.852287
v -0.035758 2.124192 -0.337982
v -0.155420 2.124181 -0.334823
v -0.118948 3.192756 0.465940
v -0.007879 3.192762 0.464398
v -0.026395 2.533563 -0.309185
v -0.145724 2.533553 -0.306840
v -0.128132 3.640722 -0.168201
v -0.017065 3.640729 -0.169776
v -0.018853 3.632385 -0.284712
v -0.138221 3.632379 -0.283009
v -0.291561 -0.507065 -3.301287
v -1.013296 0.237181 -3.205321
v -0.941652 -0.208185 -3.231450
v -0.939484 0.651067 -3.230451
v -0.291244 0.942487 -3.300756
v -0.549237 0.680828 -3.931120
v -0.427232 0.880577 -3.283545
v -0.371891 1.005826 -3.812317
v -0.315860 1.054379 -3.463707
v -0.393230 1.054304 -3.452448
v -0.449588 1.005746 -3.800309
v -0.368480 1.155630 -3.793031
v -0.354846 1.224730 -3.704403
v -0.432692 1.224649 -3.692448
v -0.446679 1.155550 -3.780977
v -1.273918 -0.211977 1.800496
v -1.130644 -0.567026 1.185411
v -1.178546 -0.504106 2.854630
v -1.769449 -0.749580 1.309893
v -1.764574 -0.771634 1.815640
v -1.754420 -0.723459 2.667939
v -1.762765 -0.612394 1.813740
v -1.754442 -0.616648 2.570859
v -1.768196 -0.648152 1.299653
v -1.232244 -0.259196 2.735535
v -1.210829 -0.315218 1.173903
v -2.357011 -1.084656 1.623399
v -2.445436 -0.986987 1.595595
v -2.336517 -1.065554 1.319207
v -2.391864 -1.117139 2.142173
v -2.477290 -1.016676 2.068914
v -2.425145 -0.968075 1.293426
v -2.848104 -1.549075 1.145602
v -2.936529 -1.451406 1.117797
v -2.601199 -1.315843 1.081324
v -2.689817 -1.398957 1.796010
v -2.775244 -1.298494 1.722752
v -2.689828 -1.218365 1.055543
v -2.707234 -1.234565 1.340884
v -2.671767 -1.382316 1.317165
v -1.147685 -0.232781 -3.159362
v -1.219296 -0.350652 -2.834859
v -1.218035 -0.194555 -2.831591
v -1.147669 -0.092337 -3.157527
v -1.334583 -0.219920 -3.195449
v -1.378966 -0.303050 -3.030924
v -1.378950 -0.204630 -3.030476
v -1.334631 -0.131375 -3.195248
v -1.495373 -0.179491 -3.243628
v -1.494331 -0.272073 -3.248373
v -1.382689 -0.203819 -3.037259
v -1.332664 0.335403 4.149775
v -1.170037 -0.378142 4.148797
v -0.000000 1.614789 4.159092
v -1.195681 1.270149 4.150404
v -0.000000 -0.830965 4.122022
v -1.315229 0.360801 4.213661
v -0.000000 1.608586 4.225291
v -1.152082 -0.334294 4.204709
v -1.191661 1.295008 4.225114
v -0.000000 -0.815413 4.174418
v -1.267353 0.363618 4.379452
v -0.000000 1.593050 4.395288
v -1.105395 -0.282912 4.366484
v -1.181359 1.279483 4.394844
v -0.000000 -0.775225 4.308399
v -1.247515 0.391777 4.446252
v -0.000000 1.586881 4.465930
v -1.086000 -0.259482 4.432791
v -1.177090 1.276847 4.466293
v -0.000000 -0.758345 4.363732
v -1.188243 0.399379 4.650790
v -0.000000 1.569086 4.677660
v -1.027374 -0.194448 4.632122
v -1.164335 1.260962 4.677710
v -0.000000 -0.707083 4.528311
v -1.169082 0.432991 4.714277
v -0.000000 1.563557 4.746359
v -1.008421 -0.172020 4.696034
v -1.160211 1.259839 4.747307
v -0.000000 -0.690163 4.581217
v -0.874957 -0.066896 4.657606
v -0.891544 -0.082825 4.600351
v -1.007796 1.181213 4.702204
v -1.011405 1.190395 4.643783
v -1.032328 0.444136 4.618093
v -1.015559 0.449340 4.675725
v -0.830441 -0.143004 4.364904
v -0.847334 -0.157988 4.306188
v -0.908860 1.177465 4.389982
v -0.912535 1.187623 4.330743
v -0.986568 0.405292 4.317064
v -0.969489 0.407416 4.376138
v -0.950560 -0.196585 4.148014
v -0.965823 -0.210233 4.094832
v -0.983362 1.151634 4.162435
v -0.986690 1.160548 4.108751
v -1.100796 0.376636 4.100965
v -1.085492 0.377408 4.154656
v -0.056788 1.863746 -0.654809
v -0.176742 1.863731 -0.650717
vn 0.4648 0.4029 0.7884
vn 0.9534 0.2797 -0.1127
vn 0.3525 0.9261 -0.1348
vn 0.2771 0.9577 0.0780
vn 0.9266 0.1199 -0.3565
vn 0.3186 0.9015 -0.2930
vn 0.3855 0.8779 -0.2842
vn 0.9034 0.3041 -0.3023
vn 0.2711 0.9365 -0.2223
vn 0.9733 0.0451 -0.2250
vn -0.2358 -0.2755 -0.9319
vn 0.9773 0.0012 -0.2121
vn 0.9751 -0.0415 -0.2176
vn 0.2364 0.5526 0.7992
vn 0.9772 0.0038 -0.2122
vn -0.1792 -0.5451 -0.8190
vn 0.1613 0.6636 0.7305
vn -0.0111 0.9989 -0.0461
vn -0.1744 -0.5773 -0.7977
vn 0.1250 0.8112 0.5713
vn 0.9762 0.0036 -0.2169
vn 0.3382 -0.6688 0.6621
vn 0.9741 0.0049 -0.2261
vn 0.9762 -0.0009 -0.2168
vn -0.1614 0.6790 -0.7162
vn 0.1379 -0.7806 0.6097
vn -0.0462 -0.9765 -0.2106
vn -0.1549 0.7071 -0.6900
vn 0.0968 -0.8984 0.4284
vn 0.5830 0.8035 -0.1208
vn -0.2458 0.0938 -0.9648
vn 0.9792 0.2024 0.0150
vn -0.2204 0.0004 -0.9754
vn 0.2781 0.9526 0.1231
vn 0.9794 -0.1204 0.1622
vn 0.3634 0.9006 0.2385
vn 0.4807 0.8437 0.2389
vn 0.5771 0.3193 0.7516
vn 0.9005 0.0067 0.4347
vn 0.4448 -0.6284 0.6382
vn 0.9658 -0.2563 0.0402
vn 0.9556 -0.0367 0.2925
vn 0.9803 0.1899 -0.0537
vn -0.0043 -0.9914 -0.1306
vn 0.1818 0.8808 0.4372
vn 0.2414 0.8626 -0.4445
vn 0.9999 -0.0082 -0.0138
vn 0.0070 0.7037 0.7105
vn 0.9995 -0.0235 -0.0193
vn 1.0000 -0.0004 -0.0037
vn -0.0229 0.0716 -0.9972
vn 0.0112 0.4981 0.8670
vn -0.0011 0.9974 -0.0724
vn -0.0170 0.0227 -0.9996
vn 0.0080 0.8168 0.5768
vn 0.3747 0.8957 -0.2393
vn 0.9375 0.2176 -0.2716
vn 0.9553 0.2005 -0.2175
vn 0.9875 0.0003 -0.1577
vn -0.0550 0.4465 -0.8931
vn 0.3010 0.7585 0.5780
vn -0.0940 0.7922 -0.6030
vn 0.0851 0.8199 0.5661
vn -0.1522 0.1297 -0.9798
vn -0.4797 -0.8765 -0.0406
vn 0.6711 0.2785 0.6870
vn 0.1848 -0.1090 -0.9767
vn -0.3114 -0.9480 0.0657
vn 0.6055 0.7944 0.0472
vn -0.2767 -0.9602 -0.0391
vn -0.5015 0.2454 -0.8296
vn -0.6858 -0.7277 -0.0071
vn 0.4561 0.8897 -0.0212
vn -0.4896 -0.8718 0.0132
vn -0.0667 -0.1513 -0.9862
vn 0.4878 0.8727 0.0203
vn 0.0085 -0.2623 -0.9649
vn 0.7841 -0.5231 0.3340
vn 0.6858 0.7277 0.0071
vn 0.7057 -0.0995 0.7015
vn 0.8858 0.0552 -0.4607
vn 0.9778 0.1506 0.1458
vn 0.2556 0.9646 -0.0655
vn 0.2556 0.0446 -0.9657
vn 0.2538 0.9633 0.0869
vn -0.2062 -0.0399 0.9777
vn 0.9788 0.1083 0.1738
vn 0.2545 0.9623 0.0956
vn 0.2409 -0.0406 -0.9697
vn 0.2552 0.9646 0.0672
vn -0.2120 0.0339 0.9767
vn 0.9840 0.0485 0.1713
vn 0.2544 0.9634 0.0842
vn 0.2542 0.9657 0.0537
vn 0.2453 -0.0347 -0.9688
vn 0.9848 0.0130 0.1734
vn 0.9143 -0.2572 0.3130
vn -0.2040 0.0233 0.9787
vn 0.6353 0.7700 -0.0583
vn -0.2077 -0.0377 0.9775
vn 0.2561 0.0396 -0.9659
vn 0.9807 0.0819 0.1776
vn 0.9238 -0.2366 0.3009
vn 0.4497 0.8821 -0.1401
vn -0.2209 -0.0374 0.9746
vn 0.2530 0.0397 -0.9666
vn 0.3510 -0.9338 -0.0698
vn 0.9752 0.1328 0.1773
vn 0.9306 -0.2183 0.2937
vn 0.5705 -0.8192 -0.0579
vn 0.5824 0.8096 -0.0733
vn -0.1983 0.0362 0.9795
vn 0.2439 -0.0458 -0.9687
vn 0.9986 -0.0380 -0.0360
vn -0.0192 0.7734 -0.6336
vn 0.4480 -0.8930 -0.0444
vn -0.4663 0.4104 0.7836
vn -0.9589 0.2825 -0.0278
vn -0.3574 0.9278 -0.1065
vn -0.2773 0.9576 0.0779
vn -0.9923 0.1227 -0.0151
vn -0.3885 0.9041 -0.1780
vn -0.4156 0.8799 -0.2305
vn -0.9344 0.3042 -0.1855
vn -0.3337 0.9369 -0.1040
vn -0.9756 0.0433 0.2154
vn -0.1807 -0.2764 -0.9439
vn -0.9773 -0.0012 0.2121
vn -0.9757 -0.0341 0.2165
vn 0.1262 0.5528 0.8237
vn -0.9772 -0.0038 0.2122
vn -0.1792 -0.5452 -0.8189
vn 0.1613 0.6637 0.7304
vn -0.9762 -0.0036 0.2169
vn -0.0195 -0.6691 0.7429
vn -0.9769 0.0022 0.2136
vn -0.9762 0.0008 0.2168
vn -0.1612 0.6791 -0.7161
vn 0.1379 -0.7807 0.6095
vn -0.5806 0.8042 -0.1273
vn -0.1923 0.0941 -0.9768
vn -0.9788 0.2042 0.0134
vn -0.2782 0.9526 0.1231
vn -0.9794 -0.1204 0.1622
vn -0.3634 0.9006 0.2385
vn -0.4807 0.8437 0.2389
vn -0.5771 0.3193 0.7516
vn -0.9005 0.0067 0.4347
vn -0.4448 -0.6284 0.6382
vn -0.9658 -0.2563 0.0402
vn -0.9556 -0.0367 0.2925
vn -0.9291 0.3697 -0.0009
vn -0.1793 0.8814 0.4370
vn -0.2824 0.8730 -0.3977
vn -0.9995 0.0130 0.0282
vn 0.0070 0.7033 0.7109
vn -0.9992 0.0279 0.0295
vn -0.9994 0.0118 0.0326
vn -0.0230 0.0697 -0.9973
vn 0.0113 0.4979 0.8672
vn -0.0170 0.0221 -0.9996
vn 0.0080 0.8168 0.5769
vn -0.4140 0.8924 -0.1796
vn -0.9684 0.2129 -0.1301
vn -0.9585 0.2650 0.1056
vn -0.9871 -0.0026 0.1598
vn -0.2461 0.4484 -0.8593
vn -0.1328 0.7531 0.6444
vn -0.0936 0.7920 -0.6033
vn 0.0840 0.8194 0.5670
vn -0.1514 0.1295 -0.9800
vn 0.4808 -0.8761 -0.0352
vn -0.6773 0.2799 0.6804
vn -0.1636 -0.0970 -0.9818
vn 0.3075 -0.9489 0.0709
vn -0.6033 0.7964 0.0421
vn 0.2727 -0.9614 -0.0378
vn 0.5095 0.2451 -0.8248
vn 0.6868 -0.7269 0.0006
vn -0.4566 0.8893 -0.0267
vn 0.4899 -0.8716 0.0188
vn 0.0735 -0.1463 -0.9865
vn -0.4884 0.8725 0.0147
vn 0.0016 -0.2635 -0.9647
vn -0.7868 -0.5237 0.3267
vn -0.6868 0.7269 -0.0006
vn -0.7126 -0.0996 0.6944
vn -0.9939 0.0559 -0.0953
vn -0.9714 0.1533 0.1814
vn -0.2669 0.9620 0.0578
vn -0.2554 0.0446 -0.9658
vn -0.2635 0.9573 -0.1192
vn 0.1959 -0.0334 0.9801
vn -0.9788 0.1083 0.1738
vn -0.2544 0.9624 0.0957
vn -0.2408 -0.0403 -0.9697
vn -0.2550 0.9646 0.0674
vn 0.2120 0.0335 0.9767
vn -0.9840 0.0485 0.1714
vn -0.2543 0.9634 0.0844
vn -0.2541 0.9657 0.0540
vn -0.2453 -0.0345 -0.9688
vn -0.9848 0.0130 0.1734
vn -0.9143 -0.2574 0.3128
vn 0.2039 0.0231 0.9787
vn -0.6350 0.7703 -0.0576
vn 0.2077 -0.0378 0.9775
vn -0.2560 0.0396 -0.9659
vn -0.9807 0.0819 0.1776
vn -0.9238 -0.2368 0.3008
vn -0.4496 0.8821 -0.1405
vn 0.2209 -0.0375 0.9746
vn -0.2530 0.0398 -0.9666
vn -0.3508 -0.9338 -0.0701
vn -0.9747 0.1335 0.1793
vn -0.9298 -0.2194 0.2955
vn -0.4888 -0.8619 0.1350
vn -0.6240 0.7535 -0.2071
vn 0.2098 0.0427 0.9768
vn -0.2437 -0.0453 -0.9688
vn -0.9986 0.0381 0.0360
vn -0.0193 0.7725 -0.6347
vn -0.4479 -0.8930 -0.0448
vn 0.3886 -0.9184 -0.0739
vn 0.3561 -0.8897 -0.2856
vn 0.9319 -0.1534 -0.3286
vn 0.9179 -0.2837 -0.2774
vn 0.4105 -0.8959 -0.1699
vn 0.3603 -0.8989 -0.2493
vn 0.8912 -0.0395 -0.4520
vn 0.9464 -0.2116 -0.2442
vn 0.8960 -0.3166 0.3112
vn 0.3675 -0.9271 0.0745
vn 0.4302 -0.8366 0.3391
vn 0.5284 -0.8390 0.1299
vn 0.9124 -0.4091 -0.0099
vn 0.4389 -0.8326 0.3378
vn 0.8956 -0.1014 0.4331
vn 0.3880 -0.8864 -0.2524
vn 0.9765 -0.2154 -0.0025
vn 0.9593 -0.2807 0.0321
vn 0.9384 -0.3238 -0.1209
vn 0.9669 -0.2392 -0.0892
vn 0.9293 -0.0964 -0.3567
vn 0.9448 -0.1883 -0.2680
vn 0.8966 0.0052 0.4427
vn -0.2252 -0.9607 -0.1623
vn 0.3680 0.9266 0.0774
vn 0.1647 -0.0360 -0.9857
vn 0.9607 -0.0145 0.2774
vn -0.4461 -0.8625 -0.2388
vn -0.3978 -0.0084 -0.9174
vn 0.3495 0.9186 0.1843
vn -0.4817 0.0249 -0.8760
vn 0.4057 0.8880 0.2165
vn -0.1581 -0.9328 -0.3238
vn 0.3222 -0.8202 0.4728
vn 0.9207 -0.2064 0.3313
vn 0.3527 -0.8757 0.3297
vn 0.3623 -0.8723 0.3284
vn 0.9246 -0.2285 0.3047
vn 0.3693 -0.8626 0.3457
vn 0.3833 -0.8598 0.3374
vn 0.9177 -0.2454 0.3124
vn 0.3924 -0.8502 0.3509
vn -0.3992 -0.9160 -0.0396
vn -0.4246 -0.8928 -0.1503
vn -0.9872 -0.1584 0.0185
vn -0.9454 -0.2837 -0.1603
vn -0.4282 -0.8962 -0.1165
vn -0.4294 -0.8979 -0.0973
vn -0.9954 -0.0421 -0.0855
vn -0.9693 -0.2125 -0.1236
vn -0.8960 -0.3168 0.3111
vn -0.3666 -0.9273 0.0753
vn -0.4304 -0.8366 0.3389
vn -0.5283 -0.8390 0.1300
vn -0.9124 -0.4091 -0.0099
vn -0.4389 -0.8326 0.3378
vn -0.8029 -0.1059 0.5866
vn -0.4286 -0.8838 -0.1878
vn -0.9767 -0.2146 -0.0005
vn -0.9602 -0.2779 0.0294
vn -0.9467 -0.3218 -0.0130
vn -0.9506 -0.3100 -0.0152
vn -0.9950 -0.0989 -0.0130
vn -0.9743 -0.1876 -0.1244
vn -0.7767 -0.0053 0.6299
vn 0.1958 -0.9585 -0.2073
vn -0.3615 0.9212 0.1436
vn -0.3418 -0.0082 -0.9397
vn -0.8814 -0.0177 0.4721
vn 0.3899 -0.8600 -0.3293
vn 0.1931 0.0087 -0.9811
vn -0.3047 0.9170 0.2573
vn 0.2933 0.0279 -0.9556
vn -0.3550 0.8860 0.2983
vn 0.0808 -0.9285 -0.3625
vn -0.3315 -0.8644 0.3780
vn -0.9332 -0.2090 0.2924
vn -0.3135 -0.8097 0.4961
vn -0.3633 -0.8722 0.3274
vn -0.9245 -0.2290 0.3048
vn -0.3701 -0.8626 0.3449
vn -0.3840 -0.8598 0.3366
vn -0.9177 -0.2457 0.3121
vn -0.3929 -0.8503 0.3502
usemtl Top
s off
f 69//1 62//1 65//1 67//1
f 3//2 4//2 6//2 5//2
f 5//3 6//3 41//3 42//3
f 5//4 42//4 141//4 191//4 27//4
f 53//5 51//5 8//5 9//5
f 55//6 53//6 9//6 54//6
f 142//7 41//7 6//7 12//7 152//7
f 6//8 4//8 11//8 12//8
f 147//9 54//9 9//9 15//9 157//9
f 15//10 13//10 16//10 18//10
f 18//11 162//11 166//11 20//11
f 19//12 20//12 22//12 21//12
f 15//13 18//13 20//13 19//13
f 157//14 15//14 19//14 163//14
f 21//15 22//15 24//15 23//15
f 20//16 166//16 170//16 22//16
f 163//17 19//17 21//17 167//17
f 171//18 23//18 24//18 174//18
f 22//19 170//19 174//19 24//19
f 167//20 21//20 23//20 171//20
f 28//21 30//21 31//21 29//21
f 154//22 179//22 28//22 13//22
f 13//23 28//23 29//23 16//23
f 30//24 32//24 33//24 31//24
f 29//25 31//25 186//25 182//25
f 179//26 183//26 30//26 28//26
f 187//27 190//27 33//27 32//27
f 31//28 33//28 190//28 186//28
f 183//29 187//29 32//29 30//29
f 70//30 60//30 66//30 68//30
f 16//31 29//31 182//31 159//31
f 3//32 5//32 27//32 26//32
f 16//33 159//33 162//33 18//33
f 113//34 301//34 194//34 35//34
f 111//35 113//35 35//35 36//35
f 35//36 194//36 197//36 37//36
f 37//37 197//37 199//37 38//37
f 38//38 199//38 205//38
f 38//39 39//39 37//39
f 39//40 38//40 205//40 201//40
f 36//41 35//41 40//41
f 37//42 39//42 40//42 35//42
f 42//43 41//43 44//43 43//43
f 44//44 210//44 323//44 132//44
f 141//45 42//45 43//45 209//45
f 41//46 142//46 210//46 44//46
f 45//47 46//47 48//47 47//47
f 209//48 43//48 45//48 213//48
f 43//49 44//49 46//49 45//49
f 47//50 48//50 50//50 49//50
f 46//51 214//51 218//51 48//51
f 213//52 45//52 47//52 217//52
f 49//53 50//53 222//53 221//53
f 48//54 218//54 222//54 50//54
f 217//55 47//55 49//55 221//55
f 152//56 12//56 53//56 55//56 228//56
f 12//57 11//57 51//57 53//57
f 55//58 54//58 57//58 56//58
f 56//59 57//59 59//59 58//59
f 54//60 147//60 231//60 57//60
f 228//61 55//61 56//61 232//61
f 236//62 58//62 59//62 235//62
f 232//63 56//63 58//63 236//63
f 57//64 231//64 235//64 59//64
f 64//65 63//65 73//65 71//65
f 67//66 65//66 74//66 75//66
f 61//67 70//67 68//67 63//67
f 62//68 1//68 64//68 65//68
f 60//69 69//69 67//69 66//69
f 1//70 61//70 63//70 64//70
f 73//71 76//71 82//71 79//71
f 71//72 73//72 79//72 84//72
f 68//73 66//73 72//73 76//73
f 65//74 64//74 71//74 74//74
f 63//75 68//75 76//75 73//75
f 66//76 67//76 75//76 72//76
f 77//77 79//77 82//77 78//77
f 77//78 78//78 81//78 80//78
f 72//79 75//79 81//79 83//79
f 74//72 71//72 84//72 80//72
f 76//79 72//79 83//79 82//79
f 75//80 74//80 80//80 81//80
f 82//79 83//79 78//79
f 83//79 81//79 78//79
f 84//72 79//72 77//72
f 80//72 84//72 77//72
f 9//81 8//81 13//81 15//81
f 26//82 27//82 98//82 96//82
f 27//83 191//83 277//83 98//83
f 101//84 99//84 131//84 128//84
f 98//85 277//85 281//85 101//85
f 96//86 98//86 129//86 130//86
f 99//87 101//87 104//87 102//87
f 101//88 281//88 286//88 104//88
f 105//89 106//89 120//89 125//89
f 104//90 286//90 291//90 107//90
f 103//91 102//91 124//91 121//91
f 105//92 107//92 110//92 108//92
f 107//93 291//93 296//93 110//93
f 110//94 296//94 301//94 113//94
f 111//95 112//95 114//95 119//95
f 118//96 117//96 116//96 119//96
f 115//97 118//97 119//97 114//97
f 109//98 108//98 118//98 115//98
f 112//99 109//99 115//99 114//99
f 108//100 110//100 117//100 118//100
f 113//101 111//101 119//101 116//101
f 124//102 123//102 122//102 125//102
f 121//103 124//103 125//103 120//103
f 106//104 103//104 121//104 120//104
f 102//105 104//105 123//105 124//105
f 107//106 105//106 125//106 122//106
f 104//107 107//107 122//107 123//107
f 130//108 129//108 128//108 131//108
f 127//109 130//109 131//109 126//109
f 98//110 101//110 128//110 129//110
f 100//111 97//111 127//111 126//111
f 97//112 96//112 130//112 127//112
f 99//113 100//113 126//113 131//113
f 46//114 44//114 132//114
f 214//115 46//115 132//115 323//115
f 110//116 113//116 116//116 117//116
f 248//117 246//117 244//117 241//117
f 137//118 139//118 140//118 138//118
f 139//119 207//119 206//119 140//119
f 139//120 178//120 191//120 141//120 207//120
f 227//121 146//121 145//121 225//121
f 230//122 229//122 146//122 227//122
f 142//123 152//123 151//123 140//123 206//123
f 140//124 151//124 150//124 138//124
f 147//125 157//125 156//125 146//125 229//125
f 156//126 161//126 158//126 153//126
f 161//127 165//127 166//127 162//127
f 164//128 168//128 169//128 165//128
f 156//129 164//129 165//129 161//129
f 157//130 163//130 164//130 156//130
f 168//131 172//131 173//131 169//131
f 165//132 169//132 170//132 166//132
f 163//133 167//133 168//133 164//133
f 171//18 174//18 173//18 172//18
f 169//19 173//19 174//19 170//19
f 167//20 171//20 172//20 168//20
f 180//134 181//134 185//134 184//134
f 154//135 153//135 180//135 179//135
f 153//136 158//136 181//136 180//136
f 184//137 185//137 189//137 188//137
f 181//138 182//138 186//138 185//138
f 179//139 180//139 184//139 183//139
f 187//27 188//27 189//27 190//27
f 185//28 186//28 190//28 189//28
f 183//29 184//29 188//29 187//29
f 249//140 247//140 245//140 239//140
f 158//141 159//141 182//141 181//141
f 137//142 177//142 178//142 139//142
f 158//33 161//33 162//33 159//33
f 303//143 195//143 194//143 301//143
f 300//144 196//144 195//144 303//144
f 195//145 198//145 197//145 194//145
f 198//146 200//146 199//146 197//146
f 200//147 205//147 199//147
f 200//148 198//148 202//148
f 202//149 201//149 205//149 200//149
f 196//150 203//150 195//150
f 198//151 195//151 203//151 202//151
f 207//152 208//152 211//152 206//152
f 211//44 324//44 323//44 210//44
f 141//153 209//153 208//153 207//153
f 206//154 211//154 210//154 142//154
f 212//155 216//155 219//155 215//155
f 209//156 213//156 212//156 208//156
f 208//157 212//157 215//157 211//157
f 216//158 220//158 223//158 219//158
f 215//159 219//159 218//159 214//159
f 213//160 217//160 216//160 212//160
f 220//53 221//53 222//53 223//53
f 219//161 223//161 222//161 218//161
f 217//162 221//162 220//162 216//162
f 152//163 228//163 230//163 227//163 151//163
f 151//164 227//164 225//164 150//164
f 230//165 233//165 234//165 229//165
f 233//166 237//166 238//166 234//166
f 229//167 234//167 231//167 147//167
f 228//168 232//168 233//168 230//168
f 236//169 235//169 238//169 237//169
f 232//170 236//170 237//170 233//170
f 234//171 238//171 235//171 231//171
f 243//172 250//172 252//172 242//172
f 246//173 254//173 253//173 244//173
f 240//174 242//174 247//174 249//174
f 241//175 244//175 243//175 135//175
f 239//176 245//176 246//176 248//176
f 135//177 243//177 242//177 240//177
f 252//178 258//178 261//178 255//178
f 250//179 263//179 258//179 252//179
f 247//180 255//180 251//180 245//180
f 244//181 253//181 250//181 243//181
f 242//182 252//182 255//182 247//182
f 245//183 251//183 254//183 246//183
f 256//184 257//184 261//184 258//184
f 256//185 259//185 260//185 257//185
f 251//186 262//186 260//186 254//186
f 253//179 259//179 263//179 250//179
f 255//186 261//186 262//186 251//186
f 254//187 260//187 259//187 253//187
f 261//186 257//186 262//186
f 262//186 257//186 260//186
f 263//179 256//179 258//179
f 259//179 256//179 263//179
f 146//188 156//188 153//188 145//188
f 177//189 275//189 278//189 178//189
f 178//190 278//190 277//190 191//190
f 283//191 319//191 322//191 280//191
f 278//192 283//192 281//192 277//192
f 275//193 321//193 320//193 278//193
f 280//194 285//194 288//194 283//194
f 283//195 288//195 286//195 281//195
f 290//196 316//196 311//196 292//196
f 288//197 293//197 291//197 286//197
f 287//198 312//198 315//198 285//198
f 290//199 295//199 298//199 293//199
f 293//200 298//200 296//200 291//200
f 298//201 303//201 301//201 296//201
f 300//202 310//202 305//202 302//202
f 309//203 310//203 307//203 308//203
f 306//204 305//204 310//204 309//204
f 297//205 306//205 309//205 295//205
f 302//206 305//206 306//206 297//206
f 295//207 309//207 308//207 298//207
f 303//208 307//208 310//208 300//208
f 315//209 316//209 313//209 314//209
f 312//210 311//210 316//210 315//210
f 292//211 311//211 312//211 287//211
f 285//212 315//212 314//212 288//212
f 293//213 313//213 316//213 290//213
f 288//214 314//214 313//214 293//214
f 321//215 322//215 319//215 320//215
f 318//216 317//216 322//216 321//216
f 278//217 320//217 319//217 283//217
f 282//218 317//218 318//218 276//218
f 276//219 318//219 321//219 275//219
f 280//220 322//220 317//220 282//220
f 215//221 324//221 211//221
f 214//222 323//222 324//222 215//222
f 298//223 308//223 307//223 303//223
usemtl Bottom
f 133//224 134//224 2//224 61//224 1//224
f 52//225 224//225 144//225 7//225
f 17//226 52//226 7//226
f 4//227 2//227 14//227 11//227
f 2//228 134//228 148//228 10//228
f 7//229 144//229 154//229 13//229
f 8//230 7//230 13//230
f 2//231 10//231 14//231
f 112//232 111//232 36//232 34//232
f 133//233 1//233 62//233 25//233 175//233
f 304//234 112//234 34//234 192//234
f 40//235 204//235 192//235 34//235
f 40//236 34//236 36//236
f 39//237 201//237 204//237 40//237
f 14//238 10//238 86//238 87//238
f 10//239 148//239 224//239 52//239
f 69//240 26//240 25//240 62//240
f 60//241 3//241 26//241 69//241
f 61//242 2//242 4//242 70//242
f 70//243 4//243 3//243 60//243
f 51//244 17//244 7//244 8//244
f 11//245 14//245 17//245 51//245
f 87//246 86//246 90//246 91//246
f 10//247 52//247 85//247 86//247
f 17//248 14//248 87//248 88//248
f 52//249 17//249 88//249 85//249
f 91//250 90//250 94//250 93//250 95//250
f 90//251 89//251 94//251
f 85//252 88//252 92//252 89//252
f 88//253 87//253 91//253 95//253 92//253
f 93//254 94//254 89//254 92//254
f 92//255 95//255 93//255
f 86//256 85//256 89//256 90//256
f 175//257 25//257 97//257 279//257
f 25//258 26//258 96//258 97//258
f 279//259 97//259 100//259 284//259
f 284//260 100//260 103//260 289//260
f 100//261 99//261 102//261 103//261
f 289//262 103//262 106//262 294//262
f 294//263 106//263 109//263 299//263
f 106//264 105//264 108//264 109//264
f 299//265 109//265 112//265 304//265
f 133//266 135//266 240//266 136//266 134//266
f 226//267 143//267 144//267 224//267
f 160//268 143//268 226//268
f 138//269 150//269 155//269 136//269
f 136//270 149//270 148//270 134//270
f 143//271 153//271 154//271 144//271
f 145//272 153//272 143//272
f 136//273 155//273 149//273
f 302//274 193//274 196//274 300//274
f 133//275 175//275 176//275 241//275 135//275
f 304//276 192//276 193//276 302//276
f 203//277 193//277 192//277 204//277
f 203//278 196//278 193//278
f 202//279 203//279 204//279 201//279
f 155//280 266//280 265//280 149//280
f 149//281 226//281 224//281 148//281
f 248//282 241//282 176//282 177//282
f 239//283 248//283 177//283 137//283
f 240//284 249//284 138//284 136//284
f 249//285 239//285 137//285 138//285
f 225//286 145//286 143//286 160//286
f 150//287 225//287 160//287 155//287
f 266//288 270//288 269//288 265//288
f 149//289 265//289 264//289 226//289
f 160//290 267//290 266//290 155//290
f 226//291 264//291 267//291 160//291
f 270//292 274//292 272//292 273//292 269//292
f 269//293 273//293 268//293
f 264//294 268//294 271//294 267//294
f 267//295 271//295 274//295 270//295 266//295
f 272//296 271//296 268//296 273//296
f 271//297 272//297 274//297
f 265//298 269//298 268//298 264//298
f 175//299 279//299 276//299 176//299
f 176//300 276//300 275//300 177//300
f 279//301 284//301 282//301 276//301
f 284//302 289//302 287//302 282//302
f 282//303 287//303 285//303 280//303
f 289//304 294//304 292//304 287//304
f 294//305 299//305 297//305 292//305
f 292//306 297//306 295//306 290//306
f 299//307 304//307 302//307 297//307
