# Blender v2.79 (sub 0) OBJ File: 'Whale.blend'
# www.blender.org
mtllib whale.mtl
o Whale_Cylinder
v 0.707241 -0.809575 -0.112119
v 0.627607 -0.958355 -1.274340
v 1.000000 -0.094772 -0.128638
v 0.922107 -0.395977 -1.485984
v 0.707107 0.867173 -0.149776
v 0.645220 0.362285 -2.212260
v 0.416653 -1.088501 -3.421724
v 0.714081 -0.650301 -3.493349
v 0.483267 -0.112424 -3.581216
v 0.263807 -1.078866 -4.411585
v 0.487337 -0.811902 -4.455835
v 0.270534 -0.583603 -4.493677
v 0.130272 -1.094243 -5.013960
v 0.297746 -1.008721 -5.029314
v 0.183040 -0.840927 -5.059329
v 0.100379 -1.125651 -5.228702
v 0.249986 -1.052009 -5.254176
v 0.179271 -0.954060 -5.285109
v 0.649438 -1.083456 -5.637764
v 0.710901 -1.173053 -5.605566
v 0.649438 -1.285982 -5.564953
v 1.003003 -1.590165 -6.438849
v 0.393911 -1.509777 -6.198314
v 1.062448 -1.478723 -6.492504
v 1.003003 -1.384976 -6.510577
v 0.386122 -1.305628 -6.268837
v 0.408727 -1.401434 -6.240029
v 0.798788 -1.252147 -5.826621
v 0.886674 -1.330828 -6.047779
v 0.974561 -1.405649 -6.269915
v 0.914611 -1.313979 -6.291514
v 0.826220 -1.240010 -6.073131
v 0.737829 -1.161958 -5.855427
v 0.914611 -1.516815 -6.219499
v 0.826220 -1.442679 -6.000252
v 0.737829 -1.364487 -5.782524
v 0.282013 -1.054738 -5.566480
v 0.449478 -1.206175 -5.978264
v 0.391168 -1.266996 -6.150457
v 0.408194 -1.138926 -5.793221
v 0.389723 -1.340521 -5.715947
v 0.391573 -1.465491 -6.063116
v 0.260818 -1.259832 -5.491791
v 0.439630 -1.402544 -5.888246
v 0.564244 0.150864 -2.821491
v 0.062601 0.530178 -2.466701
v 0.962836 0.041428 1.185078
v 0.707107 0.763763 1.139789
v 0.818094 -0.576510 -2.589503
v 0.544344 0.694322 2.442709
v 0.131667 0.451440 -2.224187
v 0.144207 0.231492 -2.833242
v 0.520339 0.443448 3.354672
v 0.522130 -1.006805 -2.574557
v 0.800968 -0.425676 1.216296
v 0.612573 0.404974 2.452169
v 0.837056 0.115439 1.790392
v 0.764331 -0.238172 1.611040
v 0.725585 0.337335 1.949039
v 0.630591 -0.887262 0.240621
v 0.689011 -0.640997 1.335232
v 0.537068 -0.199738 2.449625
v 0.679971 0.163574 2.437768
v 0.807225 0.102863 1.835631
v 0.519560 0.053692 3.254355
v 0.613244 0.184939 3.256011
v 0.477908 0.363958 3.389112
v 0.438557 0.192095 3.436549
v 0.774419 -0.538724 1.259042
v 0.600039 0.371255 2.431188
v 0.704343 0.308973 1.978287
v 0.739733 -0.226631 1.674490
v 0.100410 0.401128 -2.749906
v 0.046822 0.611805 -2.661214
v 0.061670 0.571807 -2.894394
v 0.695390 -0.799843 0.232595
v 1.143944 -1.373536 0.191732
v 1.452616 -1.115690 0.910113
v 1.520818 -1.018182 0.834078
v 1.207226 -1.291093 0.167256
v 1.441209 -1.944570 -0.258786
v 1.830026 -1.725090 0.268466
v 1.890726 -1.622513 0.183901
v 1.509567 -1.865482 -0.292922
v 1.506306 -2.262404 -0.663345
v 1.883328 -2.075127 -0.119196
v 1.945726 -1.974712 -0.196522
v 1.572322 -2.178634 -0.691259
v 1.834017 -2.331717 -0.442373
v 1.889647 -2.244433 -0.507177
v 0.764060 -1.371029 -6.474500
v 0.774301 -1.576805 -6.406265
v 0.768546 -1.462486 -6.438628
v -0.000000 -1.007303 -0.125467
v -0.000000 -1.102801 -1.257433
v -0.706959 -0.816524 -0.108452
v -0.627607 -0.959941 -1.273745
v -1.000135 -0.095710 -0.128595
v -0.922107 -0.396882 -1.485897
v -0.707107 0.867158 -0.149787
v -0.645220 0.361743 -2.212374
v 0.000000 0.998651 -0.134290
v -0.000000 0.474320 -2.227138
v -0.416653 -1.088503 -3.421705
v -0.000000 -1.196793 -3.403919
v -0.714081 -0.650309 -3.493340
v -0.483267 -0.112437 -3.581239
v -0.000000 -0.004256 -3.599154
v -0.263807 -1.078866 -4.411585
v -0.000000 -1.187113 -4.393642
v -0.487337 -0.811903 -4.455835
v -0.270534 -0.583603 -4.493677
v -0.000000 -0.475355 -4.511621
v -0.130272 -1.094515 -5.013991
v -0.000000 -1.174775 -4.999817
v -0.297746 -1.008928 -5.029259
v -0.183040 -0.841052 -5.059164
v -0.000000 -0.783048 -5.066544
v -0.100379 -1.125633 -5.228547
v -0.000000 -1.174386 -5.211679
v -0.249986 -1.052034 -5.254171
v -0.179271 -0.954175 -5.285418
v -0.000000 -0.921043 -5.280303
v -0.000000 -1.264125 -5.503715
v -0.000000 -1.264125 -5.503715
v -0.649438 -1.083606 -5.637764
v -0.710901 -1.173053 -5.605566
v -0.000000 -1.061596 -5.576619
v -0.000000 -1.061596 -5.576619
v -0.649438 -1.286135 -5.564860
v -1.003003 -1.597216 -6.436340
v -0.000000 -1.467440 -6.068528
v -0.000000 -1.370209 -6.103528
v -0.000000 -1.264911 -6.141432
v -0.393911 -1.511869 -6.197519
v -1.062448 -1.486889 -6.490428
v -1.003003 -1.393948 -6.508966
v -0.386122 -1.308157 -6.268432
v -0.408727 -1.403792 -6.239407
v -0.798788 -1.252147 -5.826621
v -0.886674 -1.331241 -6.047675
v -0.974561 -1.410334 -6.268729
v -0.914611 -1.318662 -6.290753
v -0.826220 -1.240310 -6.073090
v -0.737829 -1.161958 -5.855427
v -0.914611 -1.521144 -6.217867
v -0.826220 -1.442839 -6.000186
v -0.737829 -1.364487 -5.782524
v -0.000000 -1.106701 -5.701922
v -0.000000 -1.172134 -5.883696
v -0.000000 -1.223415 -6.026155
v -0.282013 -1.055118 -5.566504
v -0.449478 -1.206175 -5.978264
v -0.391168 -1.268101 -6.150295
v -0.408194 -1.139549 -5.793176
v -0.000000 -1.411933 -5.914331
v -0.000000 -1.357862 -5.764119
v -0.000000 -1.307123 -5.623165
v -0.389723 -1.340521 -5.715947
v -0.391573 -1.465491 -6.063116
v -0.260818 -1.259832 -5.491791
v -0.439630 -1.402544 -5.888246
v -0.564244 0.150807 -2.821465
v -0.062601 0.530168 -2.466707
v -0.963848 0.040951 1.185037
v -0.707107 0.763764 1.139742
v 0.000000 0.872256 1.132062
v -0.818094 -0.576563 -2.589500
v -0.000000 0.545396 -2.462713
v -0.000000 0.390564 -2.788769
v -0.544344 0.694315 2.442694
v 0.000000 0.804207 2.439750
v -0.000000 -1.127331 -2.557041
v -0.131667 0.451338 -2.224213
v -0.144207 0.231519 -2.833279
v -0.520339 0.443448 3.354672
v 0.000000 0.534079 3.446441
v -0.000000 0.259271 -2.837379
v -0.522130 -1.006842 -2.574564
v -0.801835 -0.426911 1.217042
v -0.612573 0.404965 2.452156
v -0.837056 0.115571 1.790385
v -0.765240 -0.238091 1.611502
v -0.725585 0.337312 1.949030
v 0.000404 -0.990047 0.069016
v -0.629205 -0.904607 0.254797
v -0.689521 -0.641752 1.336778
v 0.000000 -0.744646 1.342351
v 0.000000 -0.301561 2.452498
v -0.537068 -0.199746 2.449630
v -0.679971 0.163564 2.437763
v 0.000000 -0.048596 3.257298
v -0.807225 0.102907 1.835634
v -0.519560 0.053692 3.254355
v -0.613244 0.184939 3.256011
v -0.477908 0.363958 3.389112
v 0.000000 0.384379 3.519604
v 0.000000 0.188572 3.534819
v -0.438557 0.192095 3.436549
v -0.775201 -0.540235 1.260307
v -0.600039 0.371245 2.431176
v -0.704343 0.308952 1.978279
v -0.740859 -0.226347 1.674918
v -0.100410 0.401139 -2.749923
v -0.000000 0.627193 -2.657214
v -0.046822 0.611807 -2.661217
v -0.061670 0.571808 -2.894397
v -0.000000 0.577935 -2.929168
v -0.695210 -0.807737 0.237584
v -1.137702 -1.384686 0.192017
v -1.448476 -1.128414 0.910113
v -1.517291 -1.031630 0.834078
v -1.201960 -1.302113 0.167040
v -1.439837 -1.956885 -0.258786
v -1.822868 -1.731593 0.268466
v -1.882063 -1.634029 0.183901
v -1.506846 -1.876306 -0.292922
v -1.510918 -2.273205 -0.663345
v -1.885155 -2.078731 -0.119195
v -1.945100 -1.977471 -0.196522
v -1.575392 -2.188241 -0.691259
v -1.839843 -2.336511 -0.442373
v -1.893867 -2.248225 -0.507177
v -0.764060 -1.379528 -6.472994
v -0.774301 -1.583340 -6.403922
v -0.768546 -1.468481 -6.437078
vn 0.2474 -0.9643 0.0941
vn 0.9096 -0.4152 0.0173
vn 0.9567 0.2720 -0.1032
vn 0.1720 0.9556 -0.2393
vn 0.2387 -0.9684 0.0715
vn 0.9710 0.2381 0.0211
vn 0.9340 0.3154 -0.1678
vn 0.2013 0.9223 -0.3300
vn 0.8225 -0.5667 -0.0481
vn 0.3296 0.8324 -0.4455
vn 0.8349 0.4317 -0.3414
vn 0.3015 -0.9529 -0.0326
vn 0.2645 0.8440 -0.4666
vn 0.7912 -0.6021 -0.1070
vn 0.6647 -0.7455 -0.0481
vn 0.7360 0.5479 -0.3975
vn 0.4286 -0.9024 -0.0451
vn 0.8176 0.5086 -0.2700
vn 0.4547 -0.8878 0.0705
vn 0.2157 0.8470 -0.4858
vn 0.4917 -0.8703 0.0288
vn 0.0089 0.9425 -0.3340
vn 0.0060 0.9533 -0.3021
vn 0.4571 -0.8502 0.2613
vn 0.1531 0.8929 -0.4235
vn 0.5802 0.5958 0.5553
vn -0.0000 -0.9409 0.3387
vn 0.8463 -0.2925 0.4452
vn 0.8176 0.5574 0.1445
vn 0.8635 -0.2616 0.4311
vn -0.3248 -0.3100 -0.8935
vn 0.4920 -0.2626 0.8301
vn 0.8583 -0.2725 0.4348
vn -0.3242 -0.3305 -0.8864
vn 0.8518 -0.2805 0.4424
vn -0.1753 -0.3306 -0.9273
vn -0.1723 -0.3147 -0.9334
vn 0.8079 0.5773 0.1183
vn -0.0060 -0.8923 0.4514
vn 0.8031 0.5851 0.1125
vn 0.8114 0.5694 0.1324
vn 0.0043 0.9397 -0.3419
vn 0.0003 0.9407 -0.3393
vn -0.0006 0.9453 -0.3263
vn -0.0024 0.9459 -0.3243
vn -0.0063 0.9379 -0.3467
vn -0.0011 0.9403 -0.3403
vn -0.0106 0.9403 -0.3403
vn -0.0004 0.9420 -0.3355
vn 0.0002 -0.9454 0.3260
vn 0.0001 -0.9410 0.3383
vn 0.0003 -0.9407 0.3392
vn 0.0287 -0.8833 0.4680
vn -0.0042 -0.9511 0.3087
vn 0.0020 -0.9444 0.3287
vn 0.9507 0.3100 0.0097
vn 0.1671 0.9820 0.0883
vn 0.1857 0.4171 -0.8897
vn 0.1996 0.9450 0.2591
vn 0.2251 -0.9742 0.0182
vn 0.9578 0.2400 -0.1584
vn 0.1710 0.9833 0.0624
vn 0.1767 0.9247 -0.3373
vn 0.8566 -0.5154 -0.0256
vn 0.2285 -0.9706 -0.0753
vn 0.2410 0.3755 0.8949
vn 0.8992 -0.4234 0.1107
vn 0.8219 0.0107 0.5695
vn 0.9328 -0.3568 0.0503
vn 0.9487 0.2809 0.1451
vn 0.9688 0.2314 0.0891
vn 0.9268 0.3418 0.1555
vn 0.8632 -0.4356 0.2554
vn 0.9443 -0.2364 0.2289
vn 0.8300 -0.3758 0.4121
vn 0.9526 -0.3039 0.0134
vn 0.9240 -0.3056 0.2300
vn 0.8295 -0.4111 0.3781
vn 0.1867 0.9448 0.2691
vn 0.9272 0.3637 -0.0899
vn 0.2361 0.9581 -0.1624
vn 0.2755 0.8902 0.3628
vn 0.3559 -0.5580 -0.7497
vn 0.9710 0.2382 0.0210
vn 0.4764 0.8008 -0.3630
vn 0.8045 -0.5923 0.0444
vn 0.3725 0.7400 -0.5601
vn 0.5659 0.1783 0.8050
vn -0.1682 -0.0614 -0.9838
vn -0.4891 -0.8098 0.3242
vn -0.7598 0.4469 -0.4722
vn 0.8259 -0.0847 0.5574
vn -0.6334 0.2505 -0.7321
vn -0.4341 -0.7328 0.5239
vn 0.8900 -0.4124 0.1945
vn -0.3921 -0.7314 0.5580
vn 0.3164 0.7443 -0.5881
vn 0.8968 -0.2562 0.3607
vn 0.3214 -0.6176 -0.7178
vn 0.4875 0.6138 -0.6209
vn -0.5222 -0.6273 0.5777
vn -0.0042 0.9507 -0.3101
vn -0.4990 -0.2552 -0.8282
vn 0.0027 -0.9503 0.3113
vn -0.4957 -0.3467 -0.7962
vn -0.2415 -0.9660 0.0921
vn -0.9103 -0.4137 0.0161
vn -0.9568 0.2719 -0.1033
vn -0.1723 0.9555 -0.2393
vn -0.2387 -0.9685 0.0715
vn -0.9710 0.2381 0.0212
vn -0.9340 0.3154 -0.1677
vn -0.2014 0.9223 -0.3300
vn -0.8225 -0.5668 -0.0481
vn -0.3299 0.8322 -0.4456
vn -0.8349 0.4317 -0.3414
vn -0.3015 -0.9529 -0.0326
vn -0.2645 0.8440 -0.4666
vn -0.7912 -0.6021 -0.1070
vn -0.6648 -0.7454 -0.0479
vn -0.7360 0.5479 -0.3977
vn -0.4281 -0.9026 -0.0448
vn -0.8177 0.5086 -0.2695
vn -0.4547 -0.8879 0.0696
vn -0.2161 0.8472 -0.4853
vn -0.4909 -0.8708 0.0283
vn -0.0080 0.9420 -0.3354
vn -0.0063 0.9469 -0.3215
vn -0.4569 -0.8503 0.2613
vn -0.1529 0.8929 -0.4235
vn -0.5797 0.5970 0.5546
vn -0.8465 -0.2923 0.4450
vn -0.8182 0.5588 0.1350
vn -0.8623 -0.2590 0.4351
vn 0.3250 -0.3110 -0.8931
vn -0.4923 -0.2617 0.8301
vn -0.8565 -0.2689 0.4406
vn 0.3250 -0.3316 -0.8857
vn -0.8516 -0.2806 0.4429
vn 0.1758 -0.3385 -0.9244
vn 0.1727 -0.3198 -0.9316
vn -0.8082 0.5770 0.1177
vn 0.0059 -0.8924 0.4513
vn -0.8029 0.5854 0.1125
vn -0.8135 0.5684 0.1229
vn -0.0029 0.9394 -0.3427
vn 0.0000 0.9409 -0.3387
vn -0.0002 0.9440 -0.3298
vn 0.0050 0.9379 -0.3469
vn 0.0094 0.9400 -0.3410
vn -0.0001 -0.9430 0.3329
vn -0.0281 -0.8835 0.4675
vn 0.0074 -0.9467 0.3220
vn -0.0000 -0.9409 0.3386
vn -0.9506 0.3104 0.0093
vn -0.1671 0.9820 0.0883
vn -0.1855 0.4172 -0.8897
vn -0.1996 0.9450 0.2591
vn -0.2237 -0.9745 0.0177
vn -0.9578 0.2400 -0.1582
vn -0.1711 0.9833 0.0625
vn -0.1772 0.9247 -0.3369
vn -0.8567 -0.5152 -0.0261
vn -0.2151 -0.9721 -0.0933
vn -0.2410 0.3755 0.8949
vn -0.8992 -0.4234 0.1107
vn -0.8220 0.0108 0.5695
vn -0.9334 -0.3552 0.0501
vn -0.9487 0.2809 0.1451
vn -0.9688 0.2314 0.0891
vn -0.9265 0.3424 0.1561
vn -0.8632 -0.4356 0.2554
vn -0.9449 -0.2345 0.2285
vn -0.8315 -0.3730 0.4117
vn -0.9536 -0.3009 0.0132
vn -0.9241 -0.3044 0.2312
vn -0.8279 -0.4121 0.3805
vn -0.1873 0.9447 0.2692
vn -0.9272 0.3636 -0.0899
vn -0.2360 0.9581 -0.1624
vn -0.2756 0.8902 0.3628
vn -0.3558 -0.5580 -0.7497
vn -0.9710 0.2382 0.0210
vn -0.4824 0.7957 -0.3662
vn -0.8291 -0.5574 0.0423
vn -0.3750 0.7401 -0.5582
vn -0.5697 0.1739 0.8032
vn 0.2052 -0.0804 -0.9754
vn 0.4871 -0.8073 0.3332
vn 0.7679 0.4329 -0.4722
vn -0.8276 -0.0868 0.5546
vn 0.6351 0.2456 -0.7324
vn 0.4305 -0.7349 0.5240
vn -0.8981 -0.3954 0.1929
vn 0.3770 -0.7403 0.5565
vn -0.3023 0.7539 -0.5833
vn -0.8992 -0.2421 0.3644
vn -0.3326 -0.6117 -0.7178
vn -0.4762 0.6225 -0.6211
vn 0.5111 -0.6356 0.5786
vn -0.0049 0.9470 -0.3213
vn 0.4991 -0.2582 -0.8272
vn 0.0006 -0.9453 0.3262
vn 0.4973 -0.3520 -0.7930
vn 0.1273 -0.9718 0.1987
vn 0.9192 0.3589 0.1623
vn 0.1562 -0.9141 0.3741
vn 0.2423 0.1377 0.9604
vn 0.8967 -0.4265 0.1188
vn 0.8824 0.4617 0.0902
vn 0.1827 -0.9373 0.2969
vn 0.7189 0.0271 0.6946
vn 0.1508 -0.7524 0.6412
vn 0.6299 -0.4575 0.6276
vn 0.9230 0.3501 0.1598
vn 0.9099 -0.3315 0.2494
vn 0.9266 -0.3004 0.2261
vn -0.1105 -0.9721 0.2069
vn -0.9192 0.3589 0.1623
vn -0.1551 -0.9141 0.3746
vn -0.2423 0.1377 0.9604
vn -0.8967 -0.4265 0.1188
vn -0.8824 0.4617 0.0902
vn -0.1827 -0.9373 0.2969
vn -0.7189 0.0271 0.6946
vn -0.1508 -0.7524 0.6412
vn -0.6299 -0.4575 0.6276
vn -0.9229 0.3502 0.1598
vn -0.9094 -0.3319 0.2506
vn -0.9277 -0.2973 0.2260
usemtl Top
s off
f 94//1 95//1 2//1 1//1
f 1//2 2//2 4//2 3//2
f 3//3 4//3 6//3 5//3
f 5//4 6//4 51//4 103//4 102//4
f 54//5 173//5 105//5 7//5
f 46//6 73//6 74//6
f 45//7 49//7 8//7 9//7
f 178//8 52//8 45//8 9//8 108//8
f 49//9 54//9 7//9 8//9
f 113//10 12//10 15//10 118//10
f 9//11 8//11 11//11 12//11
f 7//12 105//12 110//12 10//12
f 108//13 9//13 12//13 113//13
f 8//14 7//14 10//14 11//14
f 11//15 10//15 13//15 14//15
f 12//16 11//16 14//16 15//16
f 10//17 110//17 115//17 13//17
f 15//18 14//18 17//18 18//18
f 14//19 13//19 16//19 17//19
f 118//20 15//20 18//20 123//20
f 13//21 115//21 120//21 16//21
f 18//22 19//22 37//22
f 39//23 31//23 25//23 91//23
f 16//24 120//24 125//24 124//24
f 123//25 18//25 129//25 128//25
f 18//26 17//26 20//26 19//26
f 158//27 41//27 43//27 124//27 125//27
f 20//28 21//28 36//28 28//28
f 31//29 30//29 24//29 25//29
f 30//30 34//30 22//30 24//30
f 23//31 132//31 133//31 27//31
f 17//32 16//32 21//32 20//32
f 29//33 35//33 34//33 30//33
f 27//34 133//34 134//34 26//34
f 28//35 36//35 35//35 29//35
f 24//36 93//36 91//36 25//36
f 22//37 92//37 93//37 24//37
f 33//38 28//38 29//38 32//38
f 16//39 124//39 43//39
f 19//40 20//40 28//40 33//40
f 32//41 29//41 30//41 31//41
f 37//42 19//42 33//42 40//42
f 40//43 33//43 32//43 38//43
f 38//44 32//44 31//44 39//44
f 151//45 39//45 26//45 134//45
f 129//46 37//46 40//46 149//46 128//46
f 149//47 40//47 38//47 150//47
f 129//48 18//48 37//48
f 150//49 38//49 39//49 151//49
f 132//50 23//50 42//50 156//50
f 156//27 42//27 44//27 157//27
f 157//27 44//27 41//27 158//27
f 44//51 35//51 36//51 41//51
f 41//52 36//52 21//52 43//52
f 21//53 16//53 43//53
f 92//54 22//54 34//54 42//54
f 42//55 34//55 35//55 44//55
f 3//56 5//56 48//56 47//56
f 5//57 102//57 167//57 48//57
f 52//58 178//58 170//58 73//58
f 50//59 172//59 177//59 53//59
f 2//60 95//60 173//60 54//60
f 6//61 4//61 49//61 45//61
f 48//62 167//62 172//62 50//62
f 51//63 6//63 45//63 52//63
f 4//64 2//64 54//64 49//64
f 94//65 1//65 60//65 185//65
f 53//66 177//66 197//66 67//66
f 56//67 53//67 67//67 70//67
f 57//68 59//68 71//68 64//68
f 1//69 3//69 47//69 55//69
f 48//70 50//70 56//70 59//70
f 56//71 50//71 53//71
f 47//72 48//72 59//72 57//72
f 59//73 56//73 70//73 71//73
f 55//74 58//74 72//74 69//74
f 58//75 57//75 64//75 72//75
f 1//76 55//76 69//76 76//76
f 55//77 47//77 57//77 58//77
f 61//78 69//78 72//78
f 103//79 51//79 46//79 169//79
f 51//80 52//80 73//80 46//80
f 205//81 74//81 75//81 208//81
f 169//82 46//82 74//82 205//82
f 73//83 170//83 208//83 75//83
f 73//84 75//84 74//84
f 76//85 69//85 79//85 80//85
f 60//86 1//86 76//86
f 80//87 79//87 83//87 84//87
f 69//88 61//88 78//88 79//88
f 60//89 76//89 80//89 77//89
f 61//90 60//90 77//90 78//90
f 81//91 84//91 88//91 85//91
f 79//92 78//92 82//92 83//92
f 77//93 80//93 84//93 81//93
f 78//94 77//94 81//94 82//94
f 86//95 89//95 90//95 87//95
f 82//96 81//96 85//96 86//96
f 84//97 83//97 87//97 88//97
f 83//98 82//98 86//98 87//98
f 89//99 85//99 88//99 90//99
f 88//100 87//100 90//100
f 86//101 85//101 89//101
f 26//102 39//102 91//102
f 92//103 23//103 27//103 93//103
f 23//104 92//104 42//104
f 93//105 27//105 26//105 91//105
f 94//106 96//106 97//106 95//106
f 96//107 98//107 99//107 97//107
f 98//108 100//108 101//108 99//108
f 100//109 102//109 103//109 174//109 101//109
f 179//110 104//110 105//110 173//110
f 164//111 206//111 204//111
f 163//112 107//112 106//112 168//112
f 178//113 108//113 107//113 163//113 175//113
f 168//114 106//114 104//114 179//114
f 113//115 118//115 117//115 112//115
f 107//116 112//116 111//116 106//116
f 104//117 109//117 110//117 105//117
f 108//118 113//118 112//118 107//118
f 106//119 111//119 109//119 104//119
f 111//120 116//120 114//120 109//120
f 112//121 117//121 116//121 111//121
f 109//122 114//122 115//122 110//122
f 117//123 122//123 121//123 116//123
f 116//124 121//124 119//124 114//124
f 118//125 123//125 122//125 117//125
f 114//126 119//126 120//126 115//126
f 122//127 152//127 126//127
f 154//128 224//128 137//128 143//128
f 119//129 124//129 125//129 120//129
f 123//130 128//130 129//130 122//130
f 122//131 126//131 127//131 121//131
f 158//27 125//27 124//27 161//27 159//27
f 127//132 140//132 148//132 130//132
f 143//133 137//133 136//133 142//133
f 142//134 136//134 131//134 146//134
f 135//135 139//135 133//135 132//135
f 121//136 127//136 130//136 119//136
f 141//137 142//137 146//137 147//137
f 139//138 138//138 134//138 133//138
f 140//139 141//139 147//139 148//139
f 136//140 137//140 224//140 226//140
f 131//141 136//141 226//141 225//141
f 145//142 144//142 141//142 140//142
f 119//143 161//143 124//143
f 126//144 145//144 140//144 127//144
f 144//145 143//145 142//145 141//145
f 152//146 155//146 145//146 126//146
f 155//147 153//147 144//147 145//147
f 153//147 154//147 143//147 144//147
f 151//148 134//148 138//148 154//148
f 129//149 128//149 149//149 155//149 152//149
f 149//147 150//147 153//147 155//147
f 129//150 152//150 122//150
f 150//147 151//147 154//147 153//147
f 132//151 156//151 160//151 135//151
f 156//27 157//27 162//27 160//27
f 157//27 158//27 159//27 162//27
f 162//27 159//27 148//27 147//27
f 159//27 161//27 130//27 148//27
f 130//152 161//152 119//152
f 225//153 160//153 146//153 131//153
f 160//154 162//154 147//154 146//154
f 98//155 165//155 166//155 100//155
f 100//156 166//156 167//156 102//156
f 175//157 204//157 170//157 178//157
f 171//158 176//158 177//158 172//158
f 97//159 179//159 173//159 95//159
f 101//160 163//160 168//160 99//160
f 166//161 171//161 172//161 167//161
f 174//162 175//162 163//162 101//162
f 99//163 168//163 179//163 97//163
f 94//164 185//164 186//164 96//164
f 176//165 196//165 197//165 177//165
f 181//166 201//166 196//166 176//166
f 182//167 193//167 202//167 184//167
f 96//168 180//168 165//168 98//168
f 166//169 184//169 181//169 171//169
f 181//170 176//170 171//170
f 165//171 182//171 184//171 166//171
f 184//172 202//172 201//172 181//172
f 180//173 200//173 203//173 183//173
f 183//174 203//174 193//174 182//174
f 96//175 209//175 200//175 180//175
f 180//176 183//176 182//176 165//176
f 187//177 203//177 200//177
f 103//178 169//178 164//178 174//178
f 174//179 164//179 204//179 175//179
f 205//180 208//180 207//180 206//180
f 169//181 205//181 206//181 164//181
f 204//182 207//182 208//182 170//182
f 204//183 206//183 207//183
f 209//184 213//184 212//184 200//184
f 186//185 209//185 96//185
f 213//186 217//186 216//186 212//186
f 200//187 212//187 211//187 187//187
f 186//188 210//188 213//188 209//188
f 187//189 211//189 210//189 186//189
f 214//190 218//190 221//190 217//190
f 212//191 216//191 215//191 211//191
f 210//192 214//192 217//192 213//192
f 211//193 215//193 214//193 210//193
f 219//194 220//194 223//194 222//194
f 215//195 219//195 218//195 214//195
f 217//196 221//196 220//196 216//196
f 216//197 220//197 219//197 215//197
f 222//198 223//198 221//198 218//198
f 221//199 223//199 220//199
f 219//200 222//200 218//200
f 138//201 224//201 154//201
f 225//202 226//202 139//202 135//202
f 135//203 160//203 225//203
f 226//204 224//204 138//204 139//204
usemtl Bottom
f 185//205 60//205 61//205 188//205
f 71//206 70//206 63//206
f 188//207 61//207 62//207 189//207
f 198//208 68//208 67//208 197//208
f 62//209 63//209 66//209 65//209
f 63//210 70//210 67//210 66//210
f 189//211 62//211 65//211 192//211
f 66//212 67//212 68//212
f 192//213 65//213 68//213 198//213
f 65//214 66//214 68//214
f 64//215 71//215 63//215
f 62//216 61//216 72//216 63//216
f 63//217 72//217 64//217
f 185//218 188//218 187//218 186//218
f 202//219 191//219 201//219
f 188//220 189//220 190//220 187//220
f 198//221 197//221 196//221 199//221
f 190//222 194//222 195//222 191//222
f 191//223 195//223 196//223 201//223
f 189//224 192//224 194//224 190//224
f 195//225 199//225 196//225
f 192//226 198//226 199//226 194//226
f 194//227 199//227 195//227
f 193//228 191//228 202//228
f 190//229 191//229 203//229 187//229
f 191//230 193//230 203//230
