<?xml version="1.0" encoding="UTF-8" standalone="no"?>
<svg
   width="256"
   height="384"
   viewBox="0 0 256 384"
   version="1.1"
   id="svg6"
   sodipodi:docname="godot_icon.svg"
   inkscape:version="1.3 (0e150ed6c4, 2023-07-21)"
   xmlns:inkscape="http://www.inkscape.org/namespaces/inkscape"
   xmlns:sodipodi="http://sodipodi.sourceforge.net/DTD/sodipodi-0.dtd"
   xmlns="http://www.w3.org/2000/svg"
   xmlns:svg="http://www.w3.org/2000/svg">
  <defs
     id="defs6" />
  <sodipodi:namedview
     id="namedview6"
     pagecolor="#505050"
     bordercolor="#eeeeee"
     borderopacity="1"
     inkscape:showpageshadow="0"
     inkscape:pageopacity="0"
     inkscape:pagecheckerboard="0"
     inkscape:deskcolor="#d1d1d1"
     inkscape:zoom="1.8828125"
     inkscape:cx="161.72614"
     inkscape:cy="126.40664"
     inkscape:window-width="3840"
     inkscape:window-height="2132"
     inkscape:window-x="0"
     inkscape:window-y="0"
     inkscape:window-maximized="1"
     inkscape:current-layer="svg6" />
  <g
     fill="#ffffff"
     id="g4"
     transform="matrix(0.25,0,0,0.25,0,-0.330465)">
    <path
       d="m 105,673 v 33 q 407,354 814,0 v -33 z"
       id="path1" />
    <path
       fill="#478cbf"
       d="m 105,673 152,14 q 12,1 15,14 l 4,67 132,10 8,-61 q 2,-11 15,-15 h 162 q 13,4 15,15 l 8,61 132,-10 4,-67 q 3,-13 15,-14 L 919,673 V 427 q 30,-39 56,-81 -35,-59 -83,-108 -43,20 -82,47 -40,-37 -88,-64 7,-51 8,-102 -59,-28 -123,-42 -26,43 -46,89 -49,-7 -98,0 -20,-46 -46,-89 -64,14 -123,42 1,51 8,102 -48,27 -88,64 -39,-27 -82,-47 -48,49 -83,108 26,42 56,81 z m 0,33 v 39 c 0,276 813,276 813,0 v -39 l -134,12 -5,69 q -2,10 -14,13 l -162,11 q -12,0 -16,-11 L 577,735 H 447 l -10,65 q -4,11 -16,11 L 259,800 q -12,-3 -14,-13 l -5,-69 z"
       id="path2" />
    <path
       d="m 483,600 c 3,34 55,34 58,0 v -86 c -3,-34 -55,-34 -58,0 z"
       id="path3" />
    <circle
       cx="725"
       cy="526"
       r="90"
       id="circle3" />
    <circle
       cx="299"
       cy="526"
       r="90"
       id="circle4" />
  </g>
  <g
     fill="#414042"
     id="g6"
     transform="matrix(0.25,0,0,0.25,0,-0.330465)">
    <circle
       cx="307"
       cy="532"
       r="60"
       id="circle5" />
    <circle
       cx="717"
       cy="532"
       r="60"
       id="circle6" />
  </g>
  <path
     style="font-size:85.3333px;font-family:Montserrat;-inkscape-font-specification:Montserrat;fill:#ffffff;stroke-width:5.96887;stroke-opacity:0.3;paint-order:stroke fill markers"
     d="m 83.213934,327.31768 q -4.966091,0 -9.550176,-1.5917 -4.520416,-1.65536 -7.003461,-4.20207 l 1.846367,-3.62907 q 2.355709,2.29205 6.303115,3.88375 4.011074,1.52802 8.404155,1.52802 4.202076,0 6.812459,-1.01869 2.674047,-1.08235 3.883737,-2.86505 1.273357,-1.78271 1.273357,-3.9474 0,-2.61038 -1.528028,-4.20208 -1.46436,-1.59171 -3.883738,-2.48305 -2.419378,-0.95501 -5.348098,-1.65536 -2.928721,-0.70036 -5.857441,-1.46436 -2.928722,-0.82768 -5.411767,-2.16471 -2.419378,-1.33703 -3.947406,-3.50172 -1.46436,-2.22839 -1.46436,-5.79378 0,-3.31073 1.719032,-6.04844 1.7827,-2.80139 5.411767,-4.45676 3.629065,-1.71903 9.295503,-1.71903 3.756402,0 7.449137,1.08236 3.692735,1.01869 6.366783,2.86505 l -1.591697,3.7564 q -2.865052,-1.91004 -6.112111,-2.80138 -3.183392,-0.89136 -6.175781,-0.89136 -4.011072,0 -6.621454,1.08236 -2.61038,1.08236 -3.883738,2.92872 -1.209688,1.7827 -1.209688,4.07474 0,2.61037 1.46436,4.20209 1.528027,1.59169 3.947406,2.48303 2.483045,0.89136 5.411766,1.59169 2.92872,0.70036 5.793773,1.52804 2.92872,0.82768 5.348098,2.1647 2.483044,1.27337 3.947405,3.43806 1.528024,2.16471 1.528024,5.66644 0,3.24706 -1.782694,6.04845 -1.782701,2.73771 -5.475435,4.45676 -3.629066,1.65535 -9.359171,1.65535 z m 39.537726,-0.382 -19.73704,-44.5675 h 5.09342 l 18.46366,41.95712 h -2.80137 l 18.591,-41.95712 h 4.7751 l -19.73703,44.5675 z m 49.97074,0.382 q -5.09342,0 -9.42284,-1.65535 -4.26574,-1.71905 -7.44915,-4.77511 -3.11972,-3.05605 -4.90241,-7.19446 -1.71903,-4.13842 -1.71903,-9.04083 0,-4.90241 1.71903,-9.04083 1.78269,-4.13841 4.96609,-7.19446 3.1834,-3.05606 7.44914,-4.71143 4.32942,-1.71903 9.42283,-1.71903 5.09343,0 9.29552,1.5917 4.26574,1.59168 7.25813,4.83876 l -2.92872,2.99239 q -2.80139,-2.80139 -6.1758,-4.01108 -3.37438,-1.20969 -7.25812,-1.20969 -4.13843,0 -7.64015,1.40069 -3.43805,1.33703 -6.04843,3.88374 -2.54672,2.48305 -4.01108,5.85744 -1.40069,3.31072 -1.40069,7.3218 0,3.94742 1.40069,7.3218 1.46436,3.37439 4.01108,5.92111 2.61038,2.48305 6.04843,3.88375 3.50172,1.33701 7.57648,1.33701 3.82007,0 7.19446,-1.14602 3.43808,-1.14602 6.30313,-3.88374 l 2.67404,3.56541 q -3.1834,2.80138 -7.44914,4.26574 -4.26574,1.40069 -8.91349,1.40069 z m 11.84221,-6.23945 v -16.4263 h 4.52042 v 16.99932 z"
     id="text6"
     aria-label="SVG" />
</svg>
