<?xml version="1.0" encoding="utf-8"?>
<!-- Generator: Adobe Illustrator 26.0.1, SVG Export Plug-In . SVG Version: 6.00 Build 0)  -->
<svg version="1.1" xmlns="http://www.w3.org/2000/svg" xmlns:xlink="http://www.w3.org/1999/xlink" x="0px" y="0px"
	 viewBox="0 0 128 128" style="enable-background:new 0 0 128 128;" xml:space="preserve">
<style type="text/css">
	.st0{display:none;}
	.st1{display:inline;fill:#363D52;stroke:#212532;stroke-width:4;}
	.st2{display:inline;}
	.st3{fill:#FFFFFF;}
	.st4{fill:#478CBF;}
	.st5{fill:#414042;}
	.st6{fill:#363D52;stroke:#212532;stroke-width:4;}
</style>
<g id="Layer_1" class="st0">
	<path class="st1" d="M16,2h96c7.7,0,14,6.3,14,14v96c0,7.7-6.3,14-14,14H16c-7.7,0-14-6.3-14-14V16C2,8.3,8.3,2,16,2z"/>
	<g transform="translate(12.322 12.322)scale(.101)" class="st2">
		<path class="st3" d="M105,673v33c271.3,236,542.7,236,814,0v-33H105z"/>
		<path class="st4" d="M105,673l152,14c8,0.7,13,5.3,15,14l4,67l132,10l8-61c1.3-7.3,6.3-12.3,15-15h162c8.7,2.7,13.7,7.7,15,15
			l8,61l132-10l4-67c2-8.7,7-13.3,15-14l152-14V427c20-26,38.7-53,56-81c-23.3-39.3-51-75.3-83-108c-28.7,13.3-56,29-82,47
			c-26.7-24.7-56-46-88-64c4.7-34,7.3-68,8-102c-39.3-18.7-80.3-32.7-123-42c-17.3,28.7-32.7,58.3-46,89c-32.7-4.7-65.3-4.7-98,0
			c-13.3-30.7-28.7-60.3-46-89c-42.7,9.3-83.7,23.3-123,42c0.7,34,3.3,68,8,102c-32,18-61.3,39.3-88,64c-26-18-53.3-33.7-82-47
			c-32,32.7-59.7,68.7-83,108c17.3,28,36,55,56,81V673z M105,706v39c0,276,813,276,814,0v-39l-134,12l-5,69c-1.3,6.7-6,11-14,13
			l-162,11c-8,0-13.3-3.7-16-11l-10-65H446l-10,65c-2.7,7.3-8,11-16,11l-162-11c-8-2-12.7-6.3-14-13l-5-69L105,706z"/>
		<path class="st3" d="M483,600c0,34,58,34,58,0v-86c0-34-58-34-58,0V600z"/>
		<circle class="st3" cx="725" cy="526" r="90"/>
		<circle class="st3" cx="299" cy="526" r="90"/>
	</g>
	<g transform="translate(12.322 12.322)scale(.101)" class="st2">
		<circle class="st5" cx="307" cy="532" r="60"/>
		<circle class="st5" cx="717" cy="532" r="60"/>
	</g>
</g>
<g id="Layer_2" class="st0">
	<g class="st2">
		<path d="M112,92c0,17.7-21.5,32-48,32s-48-14.3-48-32H112z"/>
		<path d="M32,92H16V52c0-4.4,3.6-8,8-8h0c4.4,0,8,3.6,8,8V92z"/>
		<path d="M52,92H36V20c0-4.4,3.6-8,8-8h0c4.4,0,8,3.6,8,8V92z"/>
		<path d="M72,92H56V12c0-4.4,3.6-8,8-8h0c4.4,0,8,3.6,8,8V92z"/>
		<path d="M92,92H76V20c0-4.4,3.6-8,8-8h0c4.4,0,8,3.6,8,8V92z"/>
		<path d="M112,92H96V40c0-4.4,3.6-8,8-8h0c4.4,0,8,3.6,8,8V92z"/>
		<rect x="52" y="60" width="44" height="32"/>
	</g>
</g>
<g id="Layer_2_copy">
	<path class="st6" d="M104,32c-4.4,0-8,3.6-8,8v20h-4V20c0-4.4-3.6-8-8-8s-8,3.6-8,8v40h-4V12c0-4.4-3.6-8-8-8s-8,3.6-8,8v48h-4V20
		c0-4.4-3.6-8-8-8s-8,3.6-8,8v72h-4V52c0-4.4-3.6-8-8-8s-8,3.6-8,8v40c0,17.7,21.5,32,48,32s48-14.3,48-32V40
		C112,35.6,108.4,32,104,32z"/>
</g>
<g id="Layer_1_copy" class="st0">
	<path class="st1" d="M16,2h96c7.7,0,14,6.3,14,14v96c0,7.7-6.3,14-14,14H16c-7.7,0-14-6.3-14-14V16C2,8.3,8.3,2,16,2z"/>
</g>
<g id="Layer_5">
	<rect x="49.9" y="74.2" class="st4" width="47.8" height="20.9"/>
	<g>
		<g transform="translate(12.322 12.322)scale(.101)">
			<path class="st3" d="M588.9,764.8c0,23.9,40.8,23.9,40.8,0v-60.5c0-23.9-40.8-23.9-40.8,0V764.8z"/>
			<circle class="st3" cx="759.2" cy="712.7" r="63.3"/>
			<circle class="st3" cx="459.5" cy="712.7" r="63.3"/>
		</g>
		<g transform="translate(12.322 12.322)scale(.101)">
			<circle class="st5" cx="465.1" cy="717" r="42.2"/>
			<circle class="st5" cx="753.5" cy="717" r="42.2"/>
		</g>
	</g>
</g>
</svg>
