<svg height="16" viewBox="0 0 16 16" width="16" xmlns="http://www.w3.org/2000/svg"><g fill="#e0e0e0"><path d="m3.9844 1.002c-.2594998.003622-.5074296.1079777-.69141.29102l-2 2c-.39044859.3905113-.39044859 1.0235887 0 1.4141.3905113.3904486 1.0235887.3904486 1.4141 0l.29297-.29297v8.5859c1.5095036-.849214 1.5209705-.753534 2.00004-1.99996v-6.5859l.29297.29297c.3905113.3904486 1.0235887.3904486 1.4141 0 .3904486-.3905113.3904486-1.0235887 0-1.4141l-2-2c-.1916481-.1906987-.4523394-.29568076-.72266-.29102z"/><path d="m3.9844 14.999848c-.2594998-.003622-.5074296-.107978-.69141-.29102l-2-2c-.39044859-.390511-.39044859-1.023589 0-1.4141.3905113-.390449 1.0235887-.390449 1.4141 0l.29297.29297v-4.5829568h8.5859l-.29297-.29297c-.390449-.3905113-.390449-1.0235887 0-1.4141.390511-.3904485 1.023589-.3904485 1.4141 0l2 2c.390393.3905342.390393 1.0235659 0 1.4141l-2 1.9999998c-.191165.190217-.451053.295161-.7207.29102-.26018-.0031-.508903-.107502-.69336-.29102-.390449-.390511-.390449-1.0235885 0-1.4140998l.29297-.29297h-6.5859v2.5829568l.29297-.29297c.3905113-.390449 1.0235887-.390449 1.4141 0 .3904486.390511.3904486 1.023589 0 1.4141l-2 2c-.1916481.190699-.4523394.295681-.72266.29102z"/></g></svg>
